<svg width="102" height="24" viewBox="0 0 102 24" fill="none" xmlns="http://www.w3.org/2000/svg">
<path d="M6.60473 24C10.6012 24 12.9991 21.4969 13.0202 18.4049C13.1043 11.4636 3.3865 12.5995 3.42857 8.11919C3.42857 6.60473 4.71166 5.46889 6.60473 5.46889C8.22436 5.46889 9.69676 6.49956 10.7064 7.63541L12.5153 5.74233C11.2533 4.20684 9.1709 2.79755 6.54163 2.79755C3.09203 2.79755 0.588957 5.13234 0.567923 8.09816C0.567923 14.8501 10.2016 13.4198 10.2016 18.3839C10.2016 20.0245 8.83436 21.2866 6.77301 21.2866C4.922 21.2866 3.1972 20.1507 2.04032 18.489L0 20.4032C1.32515 22.4435 3.80719 24 6.60473 24ZM34.8747 8.98159L29.2585 20.3821L26.9238 15.7546L30.3734 8.98159H27.5337L25.5776 13.2305L23.6214 8.98159H20.8028L24.2103 15.7756L21.9387 20.3821L16.3015 8.98159H13.3567L20.8238 23.7686H22.9273L25.5776 18.3418L28.2489 23.7686H30.3103L37.8195 8.98159H34.8747ZM41.5846 6.20508C42.6784 6.20508 43.4777 5.38475 43.4777 4.29097C43.4777 3.2603 42.6784 2.43997 41.5846 2.43997C40.4908 2.43997 39.7125 3.2603 39.7125 4.29097C39.7125 5.38475 40.4908 6.20508 41.5846 6.20508ZM40.1963 23.7055H42.9728V8.98159H40.1963V23.7055ZM52.4593 2.94479C53.1534 2.94479 53.7213 3.17616 54.2472 3.4496V0.609991C53.6372 0.315513 52.7117 0 51.681 0C49.6827 0 48.4417 1.32515 48.4417 3.61788V8.98159H46.5697V11.6319H48.4417V23.7055H51.2393V11.6319H54.2472V8.98159H51.2393V4.29097C51.2393 3.3865 51.7441 2.94479 52.4593 2.94479ZM63.2708 8.98159H60.2209V5.02717H57.4654V8.98159H55.5723V11.6319H57.4654V23.7055H60.2209V11.6319H63.2708V8.98159ZM75.8703 12.5153C77.1323 11.5688 77.8685 10.1385 77.8685 8.41367C77.8685 5.61613 75.8913 3.09202 71.8317 3.09202H66.1525V23.7055H72.8834C77.1113 23.7055 79.3199 20.7818 79.3199 17.7949C79.3199 15.3129 77.9527 13.4198 75.8703 12.5153ZM71.6635 5.82647C73.7669 5.82647 75.05 7.00438 75.05 8.68712C75.05 10.3067 73.7458 11.6529 71.6214 11.6529H68.95V5.82647H71.6635ZM72.6941 20.9711H68.95V14.4294H72.6941C75.05 14.4294 76.3961 15.8387 76.3961 17.6687C76.3961 19.4987 75.0079 20.9711 72.6941 20.9711ZM88.617 8.77125C84.284 8.77125 81.4023 12.2419 81.4023 16.3436C81.4023 20.4663 84.2209 23.9369 88.9115 23.9369C90.9097 23.9369 92.6766 23.39 93.9176 22.4645V19.667C92.5083 20.6345 90.9939 21.2656 89.0587 21.2656C86.5346 21.2656 84.7047 19.7932 84.2629 17.4584H95.5162C95.8317 12.8098 93.2025 8.77125 88.617 8.77125ZM88.5539 11.5478C90.6783 11.5478 92.1718 13.0202 92.5925 15.1656H84.284C84.7257 13.0412 86.3243 11.5478 88.5539 11.5478ZM98.9027 23.7055H101.658V0.147239H98.9027V23.7055Z" fill="url(#paint0_linear_10987_74628)"/>
<defs>
<linearGradient id="paint0_linear_10987_74628" x1="36.5334" y1="-13.388" x2="116.408" y2="25.6415" gradientUnits="userSpaceOnUse">
<stop stop-color="#D81159"/>
<stop offset="0.572578" stop-color="#EB873F"/>
<stop offset="1" stop-color="#FFCF23"/>
</linearGradient>
</defs>
</svg>
