<svg width="192" height="143" viewBox="0 0 192 143" fill="none" xmlns="http://www.w3.org/2000/svg">
<path d="M0.5 8C0.5 3.85787 3.85786 0.5 8 0.5H184C188.142 0.5 191.5 3.85786 191.5 8V97.5H0.5V8Z" fill="#F7F5FA"/>
<g clip-path="url(#clip0_17965_223225)">
<path d="M88.9819 66.8103C88.148 67.5336 87.2802 67.8816 86.3378 67.8816C85.3954 67.8816 84.5276 67.5336 83.6938 66.8103C82.7988 66.0324 81.531 65.5889 80.2158 65.5889C78.9005 65.5889 77.6327 66.0324 76.7378 66.8103C76.209 67.2675 75.6666 67.5745 75.1039 67.7383C74.5005 67.9157 74.0938 68.3524 74.0938 68.8505C74.0938 69.6762 75.1514 70.2562 76.1548 69.9696C77.1582 69.683 78.1615 69.1439 79.0158 68.3933C79.3412 68.1204 79.7615 67.9635 80.2158 67.9635C80.67 67.9635 81.0904 68.1204 81.4158 68.3933C82.8192 69.6148 84.5141 70.2562 86.3378 70.2562C88.1615 70.2562 89.8565 69.6148 91.2599 68.3933C91.5717 68.1204 92.0056 67.9635 92.4599 67.9635C92.9141 67.9635 93.3344 68.1204 93.6531 68.3933C95.0632 69.6148 96.7582 70.2562 98.5751 70.2562C100.392 70.2562 102.094 69.6148 103.504 68.3933C103.816 68.1204 104.25 67.9635 104.697 67.9635C105.145 67.9635 105.578 68.1204 105.897 68.3933C107.314 69.6284 108.995 70.2562 110.806 70.2562C111.192 70.2562 111.572 70.2289 111.965 70.1743C112.724 70.0651 113.314 69.5397 113.267 68.9392C113.206 68.1955 112.338 67.6905 111.443 67.827C110.67 67.943 109.511 67.9635 108.168 66.8035C107.273 66.0256 106.006 65.582 104.69 65.582C103.375 65.582 102.114 66.0256 101.212 66.8035C100.392 67.5268 99.5243 67.8748 98.5683 67.8748C97.6124 67.8748 96.7582 67.5268 95.9243 66.8035C95.0293 66.0256 93.7683 65.582 92.4599 65.582C91.1514 65.582 89.8768 66.0256 88.9819 66.8035V66.8103Z" fill="#957DBD"/>
<mask id="mask0_17965_223225" style="mask-type:luminance" maskUnits="userSpaceOnUse" x="58" y="14" width="69" height="70">
<path d="M126.556 14.5H58V83.5H126.556V14.5Z" fill="white"/>
</mask>
<g mask="url(#mask0_17965_223225)">
<path d="M116.453 18.2803H71.6666C70.9276 18.2803 70.3242 17.6798 70.3242 16.9292C70.3242 16.1786 70.9208 15.5781 71.6666 15.5781H116.453C117.192 15.5781 117.795 16.1786 117.795 16.9292C117.795 17.6798 117.199 18.2803 116.453 18.2803Z" fill="#957DBD"/>
<path d="M116.453 82.6824H71.6666C70.9276 82.6824 70.3242 82.0819 70.3242 81.3313V75.8042C70.3242 75.0604 70.9208 74.4531 71.6666 74.4531H116.453C117.192 74.4531 117.795 75.0536 117.795 75.8042V81.3313C117.795 82.0751 117.199 82.6824 116.453 82.6824ZM73.009 79.987H115.117V77.1553H73.009V79.987Z" fill="#957DBD"/>
<path d="M96.6291 77.1541H73.9986C73.2596 77.1541 72.6562 76.5536 72.6562 75.803V16.9292C72.6562 16.1854 73.2529 15.5781 73.9986 15.5781H96.6359C97.3749 15.5781 97.9783 16.1786 97.9783 16.9292V75.803C97.9783 76.5468 97.3817 77.1541 96.6359 77.1541H96.6291ZM75.3342 74.4588H95.2935V18.2803H75.3342V74.4588Z" fill="#957DBD"/>
<path d="M114.119 77.1541H96.6275C95.8885 77.1541 95.2852 76.5536 95.2852 75.803V16.9292C95.2852 16.1854 95.8818 15.5781 96.6275 15.5781H114.119C114.858 15.5781 115.461 16.1786 115.461 16.9292V36.8882C115.461 37.6319 114.865 38.2392 114.119 38.2392C113.373 38.2392 112.777 37.6387 112.777 36.8882V18.2803H97.9631V74.4588H112.777V33.995C112.777 33.2512 113.373 32.6439 114.119 32.6439C114.865 32.6439 115.461 33.2444 115.461 33.995V75.803C115.461 76.5468 114.865 77.1541 114.119 77.1541Z" fill="#957DBD"/>
<path d="M73.9969 34.6856C73.6512 34.6856 73.3122 34.556 73.0478 34.2899C72.5257 33.7644 72.5257 32.9115 73.0478 32.3861L77.1291 28.2783C78.18 27.2206 79.5766 26.6406 81.0613 26.6406C82.5461 26.6406 83.9427 27.2206 84.9935 28.2783C85.5156 28.8037 85.5156 29.6566 84.9935 30.1821C84.4715 30.7075 83.624 30.7075 83.102 30.1821C82.5596 29.6362 81.8342 29.3291 81.0613 29.3291C80.2885 29.3291 79.5698 29.6294 79.0207 30.1821L74.9393 34.2899C74.6749 34.556 74.3359 34.6856 73.9901 34.6856H73.9969Z" fill="#957DBD"/>
<path d="M84.8665 36.909C84.5139 36.909 84.1682 36.7657 83.9173 36.5132L83.1241 35.7148C82.1478 34.7322 81.6055 33.4221 81.6055 32.0301C81.6055 30.6381 82.1411 29.328 83.1241 28.3454C85.1445 26.312 88.4326 26.312 90.4529 28.3454L91.2461 29.1437C91.7682 29.6692 91.7682 30.5221 91.2461 31.0475L85.8156 36.5132C85.5648 36.7657 85.2258 36.909 84.8665 36.909ZM85.0156 30.2492C84.5411 30.7268 84.2834 31.3546 84.2834 32.0301C84.2834 32.6306 84.4936 33.1969 84.8733 33.6541L88.3987 30.1059C87.4156 29.2734 85.9445 29.3212 85.0156 30.256V30.2492Z" fill="#957DBD"/>
<path d="M102.128 49.8857C101.389 49.8857 100.785 49.2852 100.785 48.5346V44.1948C100.785 43.451 101.382 42.8438 102.128 42.8438C102.873 42.8438 103.47 43.4442 103.47 44.1948V48.5346C103.47 49.2784 102.873 49.8857 102.128 49.8857Z" fill="#957DBD"/>
<path d="M114.122 29.9163C114.074 29.9163 114.034 29.9163 113.993 29.9163C113.952 29.9163 113.905 29.9026 113.864 29.8958C113.776 29.8753 113.695 29.8549 113.613 29.8207C113.532 29.7866 113.457 29.7457 113.383 29.6979C113.349 29.6706 113.308 29.6433 113.274 29.616C113.24 29.5887 113.207 29.5614 113.179 29.5273C113.146 29.4932 113.118 29.4659 113.091 29.425C113.064 29.3908 113.037 29.3567 113.01 29.3158C112.962 29.2407 112.922 29.1657 112.888 29.0838C112.854 29.0019 112.827 28.92 112.813 28.8313C112.807 28.7904 112.8 28.7426 112.793 28.7017C112.793 28.6607 112.793 28.613 112.793 28.572C112.793 28.5311 112.793 28.4833 112.793 28.4424C112.793 28.4014 112.807 28.3537 112.813 28.3127C112.834 28.224 112.854 28.1421 112.888 28.0603C112.922 27.9784 112.962 27.9033 113.01 27.8282C113.037 27.7941 113.064 27.7532 113.091 27.7191C113.118 27.685 113.146 27.6508 113.179 27.6167C113.213 27.5826 113.24 27.5553 113.274 27.528C113.308 27.5007 113.342 27.4734 113.383 27.4461C113.457 27.3984 113.532 27.3574 113.613 27.3233C113.695 27.2892 113.776 27.2619 113.864 27.2482C113.905 27.2414 113.952 27.2346 113.993 27.2278C114.081 27.221 114.169 27.221 114.257 27.2278C114.298 27.2278 114.346 27.2414 114.386 27.2482C114.474 27.2687 114.556 27.2892 114.637 27.3233C114.718 27.3574 114.793 27.3984 114.868 27.4461C114.901 27.4734 114.942 27.5007 114.976 27.528C115.01 27.5553 115.044 27.5826 115.078 27.6167C115.105 27.6508 115.139 27.6781 115.166 27.7191C115.193 27.7532 115.22 27.7873 115.247 27.8282C115.295 27.9033 115.335 27.9784 115.369 28.0603C115.403 28.1421 115.43 28.224 115.444 28.3127C115.451 28.3537 115.457 28.4014 115.464 28.4424C115.464 28.4833 115.464 28.5311 115.464 28.572C115.464 28.613 115.464 28.6607 115.464 28.7017C115.464 28.7426 115.451 28.7904 115.444 28.8313C115.423 28.92 115.403 29.0019 115.369 29.0838C115.335 29.1657 115.295 29.2407 115.247 29.3158C115.22 29.3499 115.2 29.3908 115.173 29.425C115.146 29.4591 115.112 29.4932 115.084 29.5273C115.057 29.5614 115.023 29.5887 114.99 29.616C114.956 29.6433 114.922 29.6706 114.881 29.6979C114.807 29.7457 114.732 29.7866 114.651 29.8207C114.569 29.8549 114.488 29.8821 114.4 29.8958C114.359 29.9026 114.312 29.9094 114.271 29.9163C114.23 29.9163 114.183 29.9163 114.142 29.9163H114.122Z" fill="#957DBD"/>
</g>
<path d="M99.221 57.3532C100.055 58.0765 100.923 58.4245 101.865 58.4245C102.807 58.4245 103.675 58.0765 104.509 57.3532C105.404 56.5754 106.672 56.1318 107.987 56.1318C109.302 56.1318 110.57 56.5754 111.465 57.3532C111.994 57.8104 112.536 58.1175 113.099 58.2813C113.702 58.4587 114.109 58.8954 114.109 59.3935C114.109 60.2191 113.052 60.7991 112.048 60.5126C111.045 60.226 110.041 59.6869 109.187 58.9363C108.862 58.6634 108.441 58.5064 107.987 58.5064C107.533 58.5064 107.113 58.6634 106.787 58.9363C105.384 60.1577 103.689 60.7991 101.865 60.7991C100.041 60.7991 98.3464 60.1577 96.943 58.9363C96.6312 58.6634 96.1973 58.5064 95.743 58.5064C95.2888 58.5064 94.8685 58.6634 94.5498 58.9363C93.1397 60.1577 91.4447 60.7991 89.6278 60.7991C87.8108 60.7991 86.1092 60.1577 84.699 58.9363C84.3871 58.6634 83.9532 58.5064 83.5058 58.5064C83.0583 58.5064 82.6244 58.6634 82.3058 58.9363C80.8888 60.1714 79.2075 60.7991 77.3973 60.7991C77.0108 60.7991 76.6312 60.7719 76.238 60.7173C75.4786 60.6081 74.8888 60.0827 74.9363 59.4822C74.9973 58.7384 75.8651 58.2335 76.76 58.37C77.5329 58.486 78.6922 58.5064 80.0346 57.3464C80.9295 56.5685 82.1973 56.125 83.5125 56.125C84.8278 56.125 86.0888 56.5685 86.9905 57.3464C87.8108 58.0697 88.6786 58.4177 89.6346 58.4177C90.5905 58.4177 91.4447 58.0697 92.2786 57.3464C93.1736 56.5685 94.4346 56.125 95.743 56.125C97.0515 56.125 98.3261 56.5685 99.221 57.3464V57.3532Z" fill="#957DBD"/>
<path d="M118.782 64.7768C118.761 64.6619 118.76 64.5429 118.781 64.4199C118.851 64.005 119.173 63.6761 119.588 63.5976L124.002 62.7612C127.56 62.0872 131.004 64.4476 131.682 68.024C132.11 70.2862 130.631 72.4784 128.374 72.906C126.116 73.3337 123.939 71.8417 123.509 69.5723C123.285 68.3874 122.56 67.3717 121.52 66.7652L119.267 65.4587C119.008 65.3068 118.835 65.0569 118.781 64.7696L118.782 64.7768ZM129.703 68.3989C129.232 65.9141 126.842 64.2764 124.371 64.7447L122.628 65.0749C124.123 65.9745 125.162 67.4739 125.488 69.1974C125.71 70.368 126.832 71.1374 127.997 70.9167C129.161 70.6961 129.925 69.5695 129.703 68.3989Z" fill="#957DBD"/>
<path d="M118.604 64.8111C118.577 64.6675 118.573 64.5269 118.598 64.3882C118.683 63.8961 119.06 63.5047 119.546 63.4127L123.96 62.5763C127.618 61.8833 131.157 64.315 131.852 67.9848C132.3 70.3475 130.75 72.6349 128.407 73.0788C126.064 73.5228 123.778 71.9622 123.33 69.5994C123.116 68.4719 122.428 67.4939 121.43 66.9166L119.178 65.6101C118.878 65.4362 118.667 65.1414 118.602 64.7967L118.604 64.8111ZM131.497 68.0597C130.838 64.5838 127.487 62.2875 124.03 62.9425L119.615 63.779C119.279 63.8426 119.013 64.1162 118.958 64.4539C118.903 64.7843 119.066 65.1402 119.364 65.3069L121.617 66.6134C122.698 67.2418 123.456 68.3109 123.69 69.5461C124.099 71.7078 126.184 73.1429 128.342 72.7341C130.499 72.3254 131.909 70.2357 131.498 68.0668L131.497 68.0597ZM122.123 64.9851L124.337 64.5656C126.902 64.0797 129.392 65.7802 129.882 68.3655C130.122 69.6295 129.289 70.8585 128.032 71.0967C126.774 71.3349 125.55 70.4957 125.31 69.2317C124.995 67.5656 123.985 66.1053 122.533 65.2348L122.123 64.9851ZM129.525 68.4332C129.073 66.0489 126.777 64.4753 124.405 64.9247L123.105 65.171C124.439 66.1161 125.361 67.5482 125.667 69.1641C125.87 70.2341 126.899 70.9393 127.964 70.7377C129.028 70.536 129.728 69.5033 129.525 68.4332Z" fill="#957DBD"/>
<path d="M121.977 60.0587C121.923 59.7715 121.993 59.4756 122.178 59.2397L123.796 57.1996C124.544 56.262 124.846 55.0443 124.621 53.8593C124.193 51.5971 125.672 49.405 127.929 48.9773C130.187 48.5496 132.364 50.0416 132.794 52.311C133.471 55.8874 131.129 59.3441 127.572 60.0181L123.157 60.8545C122.743 60.933 122.322 60.7448 122.106 60.3841C122.041 60.2773 121.998 60.1665 121.976 60.0516L121.977 60.0587ZM130.816 52.6931C130.595 51.5225 129.472 50.7532 128.308 50.9738C127.143 51.1944 126.38 52.321 126.602 53.4916C126.928 55.2152 126.51 56.9906 125.447 58.3747L127.19 58.0445C129.662 57.5762 131.287 55.1779 130.816 52.6931Z" fill="#957DBD"/>
<path d="M121.801 60.0943C121.735 59.7496 121.824 59.398 122.039 59.1266L123.66 57.0937C124.371 56.2002 124.661 55.0367 124.446 53.902C123.998 51.5393 125.548 49.2519 127.899 48.8066C130.249 48.3614 132.521 49.9247 132.969 52.2874C133.665 55.9644 131.252 59.5163 127.602 60.2079L123.187 61.0443C122.701 61.1363 122.2 60.9114 121.948 60.4829C121.874 60.3631 121.827 60.2307 121.799 60.0871L121.801 60.0943ZM132.611 52.3551C132.202 50.1934 130.117 48.7583 127.967 49.1657C125.816 49.5731 124.392 51.6655 124.803 53.8344C125.037 55.0696 124.723 56.3417 123.947 57.322L122.327 59.3549C122.11 59.619 122.088 60.0101 122.261 60.2972C122.435 60.5916 122.783 60.7488 123.119 60.6852L127.534 59.8488C130.991 59.1937 133.27 55.831 132.611 52.3551ZM125.012 58.6453L125.302 58.263C126.328 56.9229 126.741 55.1933 126.425 53.5271C126.185 52.2632 127.018 51.0341 128.275 50.7959C129.533 50.5577 130.757 51.397 130.997 52.6609C131.485 55.2391 129.798 57.7385 127.226 58.2258L125.012 58.6453ZM130.64 52.7286C130.437 51.6586 129.408 50.9534 128.343 51.155C127.279 51.3567 126.579 52.3894 126.782 53.4595C127.088 55.0753 126.753 56.7456 125.858 58.113L127.158 57.8667C129.53 57.4173 131.091 55.1129 130.64 52.7286Z" fill="#957DBD"/>
</g>
<path d="M0.5 8C0.5 3.85787 3.85786 0.5 8 0.5H184C188.142 0.5 191.5 3.85786 191.5 8V97.5H0.5V8Z" stroke="#D0CECE"/>
<path d="M0.368243 98.3682H191.632V137.108C191.632 140.159 189.159 142.632 186.108 142.632H5.89189C2.84126 142.632 0.368243 140.159 0.368243 137.108V98.3682Z" fill="white"/>
<path d="M55.3692 124.5H53.0148V117.227H55.4438C56.1564 117.227 56.7684 117.373 57.2797 117.664C57.7911 117.953 58.1829 118.368 58.4552 118.911C58.7298 119.45 58.8671 120.098 58.8671 120.853C58.8671 121.611 58.7286 122.262 58.4516 122.806C58.177 123.351 57.7793 123.77 57.2584 124.063C56.7376 124.354 56.1079 124.5 55.3692 124.5ZM54.1121 123.541H55.3089C55.8628 123.541 56.3233 123.437 56.6903 123.229C57.0572 123.018 57.3318 122.714 57.5141 122.316C57.6964 121.916 57.7876 121.428 57.7876 120.853C57.7876 120.282 57.6964 119.798 57.5141 119.401C57.3342 119.003 57.0655 118.701 56.708 118.495C56.3505 118.289 55.9066 118.186 55.3763 118.186H54.1121V123.541ZM60.1464 124.5V119.045H61.1727V119.912H61.2295C61.3289 119.618 61.5041 119.388 61.7551 119.219C62.0084 119.049 62.2948 118.964 62.6144 118.964C62.6807 118.964 62.7588 118.966 62.8488 118.971C62.9411 118.976 63.0133 118.982 63.0654 118.989V120.004C63.0228 119.992 62.9471 119.979 62.8382 119.965C62.7293 119.949 62.6204 119.94 62.5115 119.94C62.2605 119.94 62.0368 119.994 61.8403 120.1C61.6462 120.204 61.4923 120.35 61.3786 120.537C61.265 120.722 61.2082 120.932 61.2082 121.169V124.5H60.1464ZM65.5228 124.621C65.1772 124.621 64.8647 124.557 64.5853 124.429C64.306 124.299 64.0846 124.111 63.9213 123.864C63.7603 123.618 63.6798 123.316 63.6798 122.959C63.6798 122.651 63.739 122.398 63.8573 122.199C63.9757 122 64.1355 121.843 64.3367 121.727C64.538 121.611 64.7629 121.523 65.0115 121.464C65.26 121.405 65.5133 121.36 65.7714 121.329C66.0981 121.291 66.3633 121.26 66.5669 121.237C66.7704 121.21 66.9184 121.169 67.0107 121.112C67.1031 121.055 67.1492 120.963 67.1492 120.835V120.81C67.1492 120.5 67.0616 120.26 66.8865 120.089C66.7136 119.919 66.4556 119.834 66.1123 119.834C65.7548 119.834 65.4731 119.913 65.2671 120.072C65.0635 120.228 64.9227 120.402 64.8445 120.594L63.8467 120.366C63.9651 120.035 64.1379 119.768 64.3651 119.564C64.5948 119.358 64.8588 119.209 65.157 119.116C65.4553 119.022 65.769 118.974 66.0981 118.974C66.3159 118.974 66.5467 119 66.7906 119.053C67.0368 119.102 67.2664 119.195 67.4795 119.33C67.6949 119.464 67.8713 119.657 68.0086 119.908C68.1459 120.157 68.2146 120.48 68.2146 120.878V124.5H67.1776V123.754H67.135C67.0664 123.892 66.9634 124.027 66.8261 124.159C66.6888 124.292 66.5124 124.402 66.297 124.489C66.0815 124.577 65.8235 124.621 65.5228 124.621ZM65.7536 123.768C66.0472 123.768 66.2981 123.71 66.5065 123.594C66.7172 123.478 66.877 123.327 66.9859 123.14C67.0972 122.951 67.1528 122.748 67.1528 122.533V121.83C67.1149 121.867 67.0415 121.903 66.9326 121.936C66.8261 121.967 66.7042 121.994 66.5669 122.018C66.4295 122.039 66.2958 122.059 66.1656 122.078C66.0354 122.095 65.9265 122.109 65.8389 122.121C65.6329 122.147 65.4447 122.191 65.2742 122.252C65.1061 122.314 64.9712 122.402 64.8694 122.518C64.77 122.632 64.7203 122.784 64.7203 122.973C64.7203 123.236 64.8173 123.435 65.0115 123.57C65.2056 123.702 65.453 123.768 65.7536 123.768ZM69.6288 124.5V119.045H70.6906V124.5H69.6288ZM70.165 118.204C69.9804 118.204 69.8218 118.142 69.6892 118.019C69.559 117.894 69.4939 117.745 69.4939 117.572C69.4939 117.397 69.559 117.247 69.6892 117.124C69.8218 116.999 69.9804 116.936 70.165 116.936C70.3497 116.936 70.5071 116.999 70.6373 117.124C70.7699 117.247 70.8362 117.397 70.8362 117.572C70.8362 117.745 70.7699 117.894 70.6373 118.019C70.5071 118.142 70.3497 118.204 70.165 118.204ZM73.1808 121.261V124.5H72.1191V119.045H73.1382V119.933H73.2057C73.3312 119.644 73.5277 119.412 73.7952 119.237C74.0651 119.062 74.4048 118.974 74.8144 118.974C75.186 118.974 75.5116 119.053 75.7909 119.209C76.0703 119.363 76.2869 119.592 76.4408 119.898C76.5947 120.203 76.6716 120.581 76.6716 121.031V124.5H75.6098V121.158C75.6098 120.763 75.5068 120.454 75.3009 120.232C75.0949 120.007 74.812 119.894 74.4521 119.894C74.2059 119.894 73.9869 119.947 73.7952 120.054C73.6058 120.161 73.4555 120.317 73.3442 120.523C73.2353 120.726 73.1808 120.973 73.1808 121.261ZM79.683 124.621C79.3373 124.621 79.0248 124.557 78.7455 124.429C78.4661 124.299 78.2448 124.111 78.0814 123.864C77.9204 123.618 77.8399 123.316 77.8399 122.959C77.8399 122.651 77.8991 122.398 78.0175 122.199C78.1359 122 78.2957 121.843 78.4969 121.727C78.6981 121.611 78.923 121.523 79.1716 121.464C79.4202 121.405 79.6735 121.36 79.9316 121.329C80.2583 121.291 80.5234 121.26 80.727 121.237C80.9306 121.21 81.0786 121.169 81.1709 121.112C81.2632 121.055 81.3094 120.963 81.3094 120.835V120.81C81.3094 120.5 81.2218 120.26 81.0466 120.089C80.8738 119.919 80.6157 119.834 80.2725 119.834C79.915 119.834 79.6333 119.913 79.4273 120.072C79.2237 120.228 79.0828 120.402 79.0047 120.594L78.0068 120.366C78.1252 120.035 78.298 119.768 78.5253 119.564C78.7549 119.358 79.0189 119.209 79.3172 119.116C79.6155 119.022 79.9292 118.974 80.2583 118.974C80.4761 118.974 80.7069 119 80.9507 119.053C81.1969 119.102 81.4266 119.195 81.6396 119.33C81.8551 119.464 82.0315 119.657 82.1688 119.908C82.3061 120.157 82.3747 120.48 82.3747 120.878V124.5H81.3378V123.754H81.2952C81.2265 123.892 81.1235 124.027 80.9862 124.159C80.8489 124.292 80.6726 124.402 80.4571 124.489C80.2417 124.577 79.9836 124.621 79.683 124.621ZM79.9138 123.768C80.2074 123.768 80.4583 123.71 80.6666 123.594C80.8773 123.478 81.0371 123.327 81.146 123.14C81.2573 122.951 81.3129 122.748 81.3129 122.533V121.83C81.2751 121.867 81.2017 121.903 81.0928 121.936C80.9862 121.967 80.8643 121.994 80.727 122.018C80.5897 122.039 80.4559 122.059 80.3257 122.078C80.1955 122.095 80.0866 122.109 79.999 122.121C79.7931 122.147 79.6048 122.191 79.4344 122.252C79.2663 122.314 79.1314 122.402 79.0296 122.518C78.9301 122.632 78.8804 122.784 78.8804 122.973C78.8804 123.236 78.9775 123.435 79.1716 123.57C79.3657 123.702 79.6131 123.768 79.9138 123.768ZM86.0759 126.659C85.6427 126.659 85.2698 126.602 84.9573 126.489C84.6472 126.375 84.3939 126.225 84.1974 126.038C84.0009 125.851 83.8541 125.646 83.757 125.423L84.6697 125.047C84.7336 125.151 84.8188 125.261 84.9253 125.377C85.0342 125.496 85.181 125.596 85.3657 125.679C85.5527 125.762 85.793 125.803 86.0866 125.803C86.489 125.803 86.8216 125.705 87.0844 125.509C87.3472 125.314 87.4786 125.004 87.4786 124.578V123.506H87.4111C87.3472 123.622 87.2549 123.751 87.1341 123.893C87.0158 124.035 86.8524 124.158 86.6441 124.262C86.4358 124.366 86.1647 124.418 85.8309 124.418C85.4 124.418 85.0117 124.318 84.6661 124.116C84.3228 123.913 84.0506 123.613 83.8493 123.218C83.6505 122.82 83.551 122.331 83.551 121.751C83.551 121.171 83.6493 120.674 83.8458 120.26C84.0447 119.846 84.3169 119.528 84.6626 119.308C85.0082 119.086 85.4 118.974 85.838 118.974C86.1765 118.974 86.45 119.031 86.6583 119.145C86.8666 119.256 87.0288 119.386 87.1448 119.536C87.2632 119.685 87.3543 119.816 87.4182 119.93H87.4964V119.045H88.5368V124.621C88.5368 125.089 88.4279 125.474 88.2101 125.775C87.9923 126.076 87.6976 126.298 87.3259 126.442C86.9566 126.587 86.5399 126.659 86.0759 126.659ZM86.0653 123.538C86.3706 123.538 86.6287 123.467 86.8394 123.325C87.0525 123.18 87.2135 122.974 87.3224 122.707C87.4336 122.437 87.4893 122.114 87.4893 121.737C87.4893 121.37 87.4348 121.047 87.3259 120.768C87.217 120.488 87.0572 120.271 86.8465 120.114C86.6358 119.956 86.3754 119.876 86.0653 119.876C85.7456 119.876 85.4793 119.959 85.2662 120.125C85.0532 120.288 84.8922 120.511 84.7833 120.793C84.6768 121.074 84.6235 121.389 84.6235 121.737C84.6235 122.095 84.6779 122.408 84.7868 122.678C84.8957 122.948 85.0567 123.159 85.2698 123.31C85.4852 123.462 85.7504 123.538 86.0653 123.538ZM92.3117 124.61C91.7743 124.61 91.3115 124.495 90.9232 124.266C90.5373 124.034 90.239 123.708 90.0283 123.289C89.82 122.868 89.7158 122.374 89.7158 121.808C89.7158 121.25 89.82 120.757 90.0283 120.331C90.239 119.905 90.5326 119.572 90.909 119.333C91.2878 119.094 91.7305 118.974 92.2371 118.974C92.5449 118.974 92.8432 119.025 93.132 119.127C93.4208 119.229 93.6801 119.389 93.9097 119.607C94.1394 119.824 94.3205 120.107 94.453 120.455C94.5856 120.801 94.6519 121.221 94.6519 121.716V122.092H90.316V121.297H93.6114C93.6114 121.018 93.5546 120.77 93.441 120.555C93.3273 120.337 93.1675 120.165 92.9616 120.04C92.758 119.914 92.5189 119.852 92.2442 119.852C91.9459 119.852 91.6855 119.925 91.463 120.072C91.2428 120.216 91.0724 120.406 90.9516 120.64C90.8332 120.872 90.7741 121.124 90.7741 121.396V122.018C90.7741 122.382 90.838 122.692 90.9658 122.948C91.096 123.204 91.2771 123.399 91.5091 123.534C91.7412 123.667 92.0122 123.733 92.3224 123.733C92.5236 123.733 92.7071 123.705 92.8728 123.648C93.0385 123.589 93.1817 123.501 93.3025 123.385C93.4232 123.269 93.5155 123.126 93.5795 122.955L94.5844 123.136C94.5039 123.432 94.3595 123.692 94.1512 123.914C93.9452 124.134 93.686 124.306 93.3735 124.429C93.0634 124.55 92.7094 124.61 92.3117 124.61ZM104.602 119.592H103.494C103.452 119.356 103.372 119.147 103.256 118.967C103.14 118.787 102.998 118.635 102.83 118.509C102.662 118.384 102.474 118.289 102.266 118.225C102.06 118.161 101.841 118.129 101.609 118.129C101.19 118.129 100.814 118.235 100.483 118.445C100.154 118.656 99.8934 118.965 99.7016 119.372C99.5122 119.779 99.4175 120.277 99.4175 120.864C99.4175 121.455 99.5122 121.955 99.7016 122.362C99.8934 122.769 100.155 123.077 100.486 123.286C100.818 123.494 101.191 123.598 101.605 123.598C101.835 123.598 102.052 123.567 102.258 123.506C102.467 123.442 102.655 123.348 102.823 123.225C102.991 123.102 103.133 122.952 103.249 122.774C103.368 122.594 103.449 122.388 103.494 122.156L104.602 122.16C104.543 122.517 104.428 122.846 104.258 123.147C104.09 123.445 103.873 123.703 103.608 123.921C103.345 124.137 103.044 124.304 102.706 124.422C102.367 124.54 101.998 124.599 101.598 124.599C100.968 124.599 100.407 124.45 99.9147 124.152C99.4223 123.851 99.034 123.422 98.7499 122.863C98.4682 122.304 98.3273 121.638 98.3273 120.864C98.3273 120.087 98.4694 119.421 98.7535 118.864C99.0376 118.306 99.4258 117.877 99.9182 117.579C100.411 117.278 100.971 117.128 101.598 117.128C101.984 117.128 102.344 117.183 102.677 117.295C103.014 117.404 103.315 117.565 103.583 117.778C103.851 117.988 104.072 118.246 104.247 118.552C104.422 118.855 104.541 119.202 104.602 119.592ZM106.892 117.227V124.5H105.83V117.227H106.892ZM110.671 124.61C110.134 124.61 109.671 124.495 109.283 124.266C108.897 124.034 108.598 123.708 108.388 123.289C108.179 122.868 108.075 122.374 108.075 121.808C108.075 121.25 108.179 120.757 108.388 120.331C108.598 119.905 108.892 119.572 109.268 119.333C109.647 119.094 110.09 118.974 110.597 118.974C110.904 118.974 111.203 119.025 111.491 119.127C111.78 119.229 112.039 119.389 112.269 119.607C112.499 119.824 112.68 120.107 112.812 120.455C112.945 120.801 113.011 121.221 113.011 121.716V122.092H108.675V121.297H111.971C111.971 121.018 111.914 120.77 111.8 120.555C111.687 120.337 111.527 120.165 111.321 120.04C111.117 119.914 110.878 119.852 110.604 119.852C110.305 119.852 110.045 119.925 109.822 120.072C109.602 120.216 109.432 120.406 109.311 120.64C109.193 120.872 109.133 121.124 109.133 121.396V122.018C109.133 122.382 109.197 122.692 109.325 122.948C109.455 123.204 109.637 123.399 109.869 123.534C110.101 123.667 110.372 123.733 110.682 123.733C110.883 123.733 111.066 123.705 111.232 123.648C111.398 123.589 111.541 123.501 111.662 123.385C111.783 123.269 111.875 123.126 111.939 122.955L112.944 123.136C112.863 123.432 112.719 123.692 112.511 123.914C112.305 124.134 112.045 124.306 111.733 124.429C111.423 124.55 111.069 124.61 110.671 124.61ZM115.777 124.621C115.431 124.621 115.119 124.557 114.839 124.429C114.56 124.299 114.339 124.111 114.175 123.864C114.014 123.618 113.934 123.316 113.934 122.959C113.934 122.651 113.993 122.398 114.111 122.199C114.23 122 114.389 121.843 114.591 121.727C114.792 121.611 115.017 121.523 115.265 121.464C115.514 121.405 115.767 121.36 116.025 121.329C116.352 121.291 116.617 121.26 116.821 121.237C117.024 121.21 117.172 121.169 117.265 121.112C117.357 121.055 117.403 120.963 117.403 120.835V120.81C117.403 120.5 117.316 120.26 117.14 120.089C116.968 119.919 116.709 119.834 116.366 119.834C116.009 119.834 115.727 119.913 115.521 120.072C115.317 120.228 115.177 120.402 115.098 120.594L114.101 120.366C114.219 120.035 114.392 119.768 114.619 119.564C114.849 119.358 115.113 119.209 115.411 119.116C115.709 119.022 116.023 118.974 116.352 118.974C116.57 118.974 116.801 119 117.044 119.053C117.291 119.102 117.52 119.195 117.733 119.33C117.949 119.464 118.125 119.657 118.263 119.908C118.4 120.157 118.468 120.48 118.468 120.878V124.5H117.432V123.754H117.389C117.32 123.892 117.217 124.027 117.08 124.159C116.943 124.292 116.766 124.402 116.551 124.489C116.335 124.577 116.077 124.621 115.777 124.621ZM116.008 123.768C116.301 123.768 116.552 123.71 116.76 123.594C116.971 123.478 117.131 123.327 117.24 123.14C117.351 122.951 117.407 122.748 117.407 122.533V121.83C117.369 121.867 117.295 121.903 117.187 121.936C117.08 121.967 116.958 121.994 116.821 122.018C116.683 122.039 116.55 122.059 116.419 122.078C116.289 122.095 116.18 122.109 116.093 122.121C115.887 122.147 115.699 122.191 115.528 122.252C115.36 122.314 115.225 122.402 115.123 122.518C115.024 122.632 114.974 122.784 114.974 122.973C114.974 123.236 115.071 123.435 115.265 123.57C115.459 123.702 115.707 123.768 116.008 123.768ZM120.945 121.261V124.5H119.883V119.045H120.902V119.933H120.969C121.095 119.644 121.291 119.412 121.559 119.237C121.829 119.062 122.168 118.974 122.578 118.974C122.95 118.974 123.275 119.053 123.555 119.209C123.834 119.363 124.051 119.592 124.204 119.898C124.358 120.203 124.435 120.581 124.435 121.031V124.5H123.373V121.158C123.373 120.763 123.271 120.454 123.065 120.232C122.859 120.007 122.576 119.894 122.216 119.894C121.97 119.894 121.751 119.947 121.559 120.054C121.369 120.161 121.219 120.317 121.108 120.523C120.999 120.726 120.945 120.973 120.945 121.261ZM125.859 124.5V119.045H126.921V124.5H125.859ZM126.396 118.204C126.211 118.204 126.052 118.142 125.92 118.019C125.789 117.894 125.724 117.745 125.724 117.572C125.724 117.397 125.789 117.247 125.92 117.124C126.052 116.999 126.211 116.936 126.396 116.936C126.58 116.936 126.738 116.999 126.868 117.124C127 117.247 127.067 117.397 127.067 117.572C127.067 117.745 127 117.894 126.868 118.019C126.738 118.142 126.58 118.204 126.396 118.204ZM129.411 121.261V124.5H128.35V119.045H129.369V119.933H129.436C129.562 119.644 129.758 119.412 130.026 119.237C130.296 119.062 130.635 118.974 131.045 118.974C131.417 118.974 131.742 119.053 132.021 119.209C132.301 119.363 132.517 119.592 132.671 119.898C132.825 120.203 132.902 120.581 132.902 121.031V124.5H131.84V121.158C131.84 120.763 131.737 120.454 131.531 120.232C131.325 120.007 131.042 119.894 130.683 119.894C130.436 119.894 130.217 119.947 130.026 120.054C129.836 120.161 129.686 120.317 129.575 120.523C129.466 120.726 129.411 120.973 129.411 121.261ZM136.613 126.659C136.18 126.659 135.807 126.602 135.494 126.489C135.184 126.375 134.931 126.225 134.734 126.038C134.538 125.851 134.391 125.646 134.294 125.423L135.207 125.047C135.271 125.151 135.356 125.261 135.462 125.377C135.571 125.496 135.718 125.596 135.903 125.679C136.09 125.762 136.33 125.803 136.624 125.803C137.026 125.803 137.359 125.705 137.622 125.509C137.884 125.314 138.016 125.004 138.016 124.578V123.506H137.948C137.884 123.622 137.792 123.751 137.671 123.893C137.553 124.035 137.39 124.158 137.181 124.262C136.973 124.366 136.702 124.418 136.368 124.418C135.937 124.418 135.549 124.318 135.203 124.116C134.86 123.913 134.588 123.613 134.386 123.218C134.188 122.82 134.088 122.331 134.088 121.751C134.088 121.171 134.186 120.674 134.383 120.26C134.582 119.846 134.854 119.528 135.2 119.308C135.545 119.086 135.937 118.974 136.375 118.974C136.714 118.974 136.987 119.031 137.195 119.145C137.404 119.256 137.566 119.386 137.682 119.536C137.8 119.685 137.891 119.816 137.955 119.93H138.033V119.045H139.074V124.621C139.074 125.089 138.965 125.474 138.747 125.775C138.529 126.076 138.235 126.298 137.863 126.442C137.494 126.587 137.077 126.659 136.613 126.659ZM136.602 123.538C136.908 123.538 137.166 123.467 137.377 123.325C137.59 123.18 137.751 122.974 137.859 122.707C137.971 122.437 138.026 122.114 138.026 121.737C138.026 121.37 137.972 121.047 137.863 120.768C137.754 120.488 137.594 120.271 137.384 120.114C137.173 119.956 136.912 119.876 136.602 119.876C136.283 119.876 136.016 119.959 135.803 120.125C135.59 120.288 135.429 120.511 135.32 120.793C135.214 121.074 135.161 121.389 135.161 121.737C135.161 122.095 135.215 122.408 135.324 122.678C135.433 122.948 135.594 123.159 135.807 123.31C136.022 123.462 136.287 123.538 136.602 123.538Z" fill="#787373"/>
<path d="M0.368243 98.3682H191.632V137.108C191.632 140.159 189.159 142.632 186.108 142.632H5.89189C2.84126 142.632 0.368243 140.159 0.368243 137.108V98.3682Z" stroke="#D0CECE" stroke-width="0.736486"/>
<defs>
<clipPath id="clip0_17965_223225">
<rect width="76" height="69" fill="white" transform="translate(58 14.5)"/>
</clipPath>
</defs>
</svg>
