<svg width="192" height="143" viewBox="0 0 192 143" fill="none" xmlns="http://www.w3.org/2000/svg">
<path d="M0.5 8C0.5 3.85787 3.85786 0.5 8 0.5H184C188.142 0.5 191.5 3.85786 191.5 8V97.5H0.5V8Z" fill="#FDF3F7"/>
<path d="M106.419 69.7652C110.209 69.7652 112.765 68.6823 115.104 66.1482C115.255 65.9749 115.429 65.78 115.58 65.6067C116.836 64.1772 117.465 62.6828 117.465 61.2966C117.465 59.6722 116.62 58.1994 114.671 56.8782L108.216 52.3732C106.18 50.9654 103.82 50.8571 102 52.6764L100.397 54.2792C99.8343 54.8423 99.3145 54.8856 98.6431 54.4308C97.4735 53.6511 95.2643 51.7018 93.7482 50.1857C92.2104 48.6479 90.651 46.9152 89.8063 45.594C89.3515 44.9226 89.3948 44.4028 89.9579 43.8397L91.5607 42.2369C93.38 40.4176 93.2717 38.0568 91.8639 36.0208L87.2723 29.4582C85.9727 27.5956 84.435 26.7292 82.8105 26.7076C81.4244 26.6859 79.9516 27.314 78.5221 28.5702C78.3488 28.7218 78.1756 28.8734 78.024 29.0251C75.4466 31.3859 74.3203 33.9199 74.3203 37.8618C74.3203 44.2512 78.024 51.7884 85.2363 58.9575C92.4054 66.0832 99.856 69.7652 106.419 69.7652ZM106.397 66.1482C100.874 66.2348 94.0081 62.3146 87.987 56.3368C81.9225 50.3589 77.894 43.2332 77.9806 37.7102C78.024 35.3927 78.847 33.3568 80.4931 31.9273C80.6447 31.7974 80.7963 31.6891 80.9479 31.5591C81.5543 31.0393 82.2041 30.7578 82.8105 30.7578C83.4387 30.7578 84.0018 31.0177 84.435 31.6674L88.5068 37.7535C89.005 38.4899 89.0266 39.3346 88.2686 40.071L86.5359 41.7821C84.8898 43.3848 85.0414 45.2691 86.081 46.7419C87.2506 48.3663 89.4381 50.8571 91.2791 52.6764C93.2501 54.6257 95.9358 57.0298 97.4952 58.1561C98.9896 59.1957 100.852 59.3473 102.455 57.7013L104.166 55.9686C104.902 55.2105 105.747 55.2322 106.484 55.7303L112.461 59.7155C113.133 60.1487 113.371 60.6902 113.371 61.3183C113.371 61.9247 113.111 62.5745 112.57 63.2026C112.44 63.3542 112.331 63.4841 112.201 63.6574C110.772 65.3035 108.736 66.1265 106.397 66.1482Z" fill="#D81159"/>
<g clip-path="url(#clip0_17976_223083)">
<path d="M101.839 27.7305C102.609 27.7305 103.234 28.3611 103.234 29.1352C103.234 29.9093 102.608 30.5399 101.839 30.5399H99.8759C99.2014 30.5399 98.6541 31.091 98.6541 31.7699C98.6541 32.4489 99.2014 33 99.8759 33H101.839C103.956 33 105.678 31.2664 105.678 29.1352C105.678 27.0039 103.956 25.2704 101.839 25.2704C101.069 25.2704 100.444 24.6398 100.444 23.8656C100.444 23.0915 101.07 22.4609 101.839 22.4609H103.802C104.476 22.4609 105.024 21.9099 105.024 21.2309C105.024 20.5519 104.477 20 103.802 20H101.839C99.7219 20 98 21.7344 98 23.8648C98 25.9953 99.7219 27.7296 101.839 27.7296V27.7305Z" fill="#D81159"/>
<path d="M120.159 25.2695C119.389 25.2695 118.764 24.6389 118.764 23.8648C118.764 23.0907 119.39 22.4601 120.159 22.4601H122.122C122.797 22.4601 123.344 21.909 123.344 21.2301C123.344 20.5511 122.797 20 122.122 20H120.159C118.042 20 116.32 21.7344 116.32 23.8648C116.32 25.9953 118.042 27.7296 120.159 27.7296C120.929 27.7296 121.555 28.3602 121.555 29.1344C121.555 29.9085 120.928 30.5391 120.159 30.5391H118.196C117.522 30.5391 116.974 31.0901 116.974 31.7691C116.974 32.4481 117.522 32.9992 118.196 32.9992H120.159C122.276 32.9992 123.998 31.2656 123.998 29.1344C123.998 27.0031 122.276 25.2695 120.159 25.2695Z" fill="#D81159"/>
<path d="M110.999 33C113.116 33 114.838 31.2664 114.838 29.1352V23.8648C114.838 21.7344 113.116 20 110.999 20C108.882 20 107.16 21.7344 107.16 23.8648V29.1352C107.16 31.2664 108.882 33 110.999 33ZM109.604 23.8648C109.604 23.0899 110.23 22.4601 110.999 22.4601C111.768 22.4601 112.394 23.0907 112.394 23.8648V29.1352C112.394 29.9101 111.768 30.5399 110.999 30.5399C110.23 30.5399 109.604 29.9093 109.604 29.1352V23.8648Z" fill="#D81159"/>
</g>
<path d="M0.5 8C0.5 3.85787 3.85786 0.5 8 0.5H184C188.142 0.5 191.5 3.85786 191.5 8V97.5H0.5V8Z" stroke="#D0CECE"/>
<path d="M0.368243 98.3682H191.632V137.108C191.632 140.159 189.159 142.632 186.108 142.632H5.89189C2.84126 142.632 0.368243 140.159 0.368243 137.108V98.3682Z" fill="white"/>
<path d="M38.967 124.5V117.227H43.5266V118.172H40.0643V120.388H43.2887V121.329H40.0643V123.555H43.5692V124.5H38.967ZM44.9071 124.5V119.045H45.9263V119.933H45.9938C46.1074 119.633 46.2933 119.398 46.5513 119.23C46.8094 119.06 47.1183 118.974 47.4782 118.974C47.8427 118.974 48.1481 119.06 48.3944 119.23C48.6429 119.401 48.8264 119.635 48.9448 119.933H49.0016C49.1318 119.642 49.339 119.41 49.623 119.237C49.9071 119.062 50.2457 118.974 50.6387 118.974C51.1335 118.974 51.5371 119.129 51.8496 119.44C52.1645 119.75 52.3219 120.217 52.3219 120.842V124.5H51.2601V120.942C51.2601 120.572 51.1595 120.305 50.9583 120.139C50.757 119.973 50.5167 119.891 50.2374 119.891C49.8917 119.891 49.623 119.997 49.4313 120.21C49.2395 120.421 49.1436 120.692 49.1436 121.023V124.5H48.0854V120.874C48.0854 120.578 47.9931 120.34 47.8084 120.161C47.6238 119.981 47.3835 119.891 47.0875 119.891C46.8863 119.891 46.7005 119.944 46.53 120.05C46.3619 120.155 46.2258 120.3 46.1216 120.487C46.0198 120.674 45.9689 120.891 45.9689 121.137V124.5H44.9071ZM56.0959 124.61C55.5585 124.61 55.0956 124.495 54.7074 124.266C54.3215 124.034 54.0232 123.708 53.8125 123.289C53.6042 122.868 53.5 122.374 53.5 121.808C53.5 121.25 53.6042 120.757 53.8125 120.331C54.0232 119.905 54.3168 119.572 54.6932 119.333C55.072 119.094 55.5147 118.974 56.0213 118.974C56.3291 118.974 56.6274 119.025 56.9162 119.127C57.205 119.229 57.4643 119.389 57.6939 119.607C57.9235 119.824 58.1046 120.107 58.2372 120.455C58.3698 120.801 58.4361 121.221 58.4361 121.716V122.092H54.1001V121.297H57.3956C57.3956 121.018 57.3388 120.77 57.2251 120.555C57.1115 120.337 56.9517 120.165 56.7457 120.04C56.5421 119.914 56.303 119.852 56.0284 119.852C55.7301 119.852 55.4697 119.925 55.2472 120.072C55.027 120.216 54.8565 120.406 54.7358 120.64C54.6174 120.872 54.5582 121.124 54.5582 121.396V122.018C54.5582 122.382 54.6222 122.692 54.75 122.948C54.8802 123.204 55.0613 123.399 55.2933 123.534C55.5253 123.667 55.7964 123.733 56.1065 123.733C56.3078 123.733 56.4912 123.705 56.657 123.648C56.8227 123.589 56.9659 123.501 57.0866 123.385C57.2074 123.269 57.2997 123.126 57.3636 122.955L58.3686 123.136C58.2881 123.432 58.1437 123.692 57.9354 123.914C57.7294 124.134 57.4702 124.306 57.1577 124.429C56.8475 124.55 56.4936 124.61 56.0959 124.61ZM59.6142 124.5V119.045H60.6404V119.912H60.6973C60.7967 119.618 60.9719 119.388 61.2228 119.219C61.4761 119.049 61.7626 118.964 62.0822 118.964C62.1485 118.964 62.2266 118.966 62.3166 118.971C62.4089 118.976 62.4811 118.982 62.5332 118.989V120.004C62.4906 119.992 62.4148 119.979 62.3059 119.965C62.197 119.949 62.0881 119.94 61.9792 119.94C61.7283 119.94 61.5046 119.994 61.3081 120.1C61.1139 120.204 60.96 120.35 60.8464 120.537C60.7328 120.722 60.676 120.932 60.676 121.169V124.5H59.6142ZM65.5437 126.659C65.1104 126.659 64.7376 126.602 64.4251 126.489C64.1149 126.375 63.8616 126.225 63.6651 126.038C63.4686 125.851 63.3219 125.646 63.2248 125.423L64.1374 125.047C64.2013 125.151 64.2866 125.261 64.3931 125.377C64.502 125.496 64.6488 125.596 64.8335 125.679C65.0205 125.762 65.2608 125.803 65.5543 125.803C65.9568 125.803 66.2894 125.705 66.5522 125.509C66.815 125.314 66.9464 125.004 66.9464 124.578V123.506H66.8789C66.815 123.622 66.7227 123.751 66.6019 123.893C66.4835 124.035 66.3202 124.158 66.1119 124.262C65.9035 124.366 65.6325 124.418 65.2987 124.418C64.8678 124.418 64.4795 124.318 64.1339 124.116C63.7906 123.913 63.5183 123.613 63.3171 123.218C63.1183 122.82 63.0188 122.331 63.0188 121.751C63.0188 121.171 63.1171 120.674 63.3136 120.26C63.5124 119.846 63.7847 119.528 64.1303 119.308C64.476 119.086 64.8678 118.974 65.3058 118.974C65.6443 118.974 65.9177 119.031 66.1261 119.145C66.3344 119.256 66.4966 119.386 66.6126 119.536C66.7309 119.685 66.8221 119.816 66.886 119.93H66.9641V119.045H68.0046V124.621C68.0046 125.089 67.8957 125.474 67.6779 125.775C67.4601 126.076 67.1654 126.298 66.7937 126.442C66.4244 126.587 66.0077 126.659 65.5437 126.659ZM65.533 123.538C65.8384 123.538 66.0965 123.467 66.3072 123.325C66.5202 123.18 66.6812 122.974 66.7901 122.707C66.9014 122.437 66.957 122.114 66.957 121.737C66.957 121.37 66.9026 121.047 66.7937 120.768C66.6848 120.488 66.525 120.271 66.3143 120.114C66.1036 119.956 65.8432 119.876 65.533 119.876C65.2134 119.876 64.9471 119.959 64.734 120.125C64.521 120.288 64.36 120.511 64.2511 120.793C64.1445 121.074 64.0913 121.389 64.0913 121.737C64.0913 122.095 64.1457 122.408 64.2546 122.678C64.3635 122.948 64.5245 123.159 64.7376 123.31C64.953 123.462 65.2182 123.538 65.533 123.538ZM71.7795 124.61C71.2421 124.61 70.7792 124.495 70.391 124.266C70.0051 124.034 69.7068 123.708 69.4961 123.289C69.2878 122.868 69.1836 122.374 69.1836 121.808C69.1836 121.25 69.2878 120.757 69.4961 120.331C69.7068 119.905 70.0004 119.572 70.3768 119.333C70.7556 119.094 71.1983 118.974 71.7049 118.974C72.0127 118.974 72.311 119.025 72.5998 119.127C72.8886 119.229 73.1478 119.389 73.3775 119.607C73.6071 119.824 73.7882 120.107 73.9208 120.455C74.0534 120.801 74.1197 121.221 74.1197 121.716V122.092H69.7837V121.297H73.0792C73.0792 121.018 73.0224 120.77 72.9087 120.555C72.7951 120.337 72.6353 120.165 72.4293 120.04C72.2257 119.914 71.9866 119.852 71.712 119.852C71.4137 119.852 71.1533 119.925 70.9308 120.072C70.7106 120.216 70.5401 120.406 70.4194 120.64C70.301 120.872 70.2418 121.124 70.2418 121.396V122.018C70.2418 122.382 70.3058 122.692 70.4336 122.948C70.5638 123.204 70.7449 123.399 70.9769 123.534C71.2089 123.667 71.48 123.733 71.7901 123.733C71.9914 123.733 72.1748 123.705 72.3406 123.648C72.5063 123.589 72.6495 123.501 72.7702 123.385C72.891 123.269 72.9833 123.126 73.0472 122.955L74.0522 123.136C73.9717 123.432 73.8273 123.692 73.619 123.914C73.413 124.134 73.1538 124.306 72.8413 124.429C72.5311 124.55 72.1772 124.61 71.7795 124.61ZM76.3596 121.261V124.5H75.2978V119.045H76.3169V119.933H76.3844C76.5099 119.644 76.7064 119.412 76.9739 119.237C77.2438 119.062 77.5835 118.974 77.9931 118.974C78.3648 118.974 78.6903 119.053 78.9696 119.209C79.249 119.363 79.4656 119.592 79.6195 119.898C79.7734 120.203 79.8503 120.581 79.8503 121.031V124.5H78.7885V121.158C78.7885 120.763 78.6855 120.454 78.4796 120.232C78.2736 120.007 77.9907 119.894 77.6309 119.894C77.3846 119.894 77.1657 119.947 76.9739 120.054C76.7845 120.161 76.6342 120.317 76.5229 120.523C76.414 120.726 76.3596 120.973 76.3596 121.261ZM83.5719 124.61C83.044 124.61 82.5894 124.491 82.2083 124.251C81.8295 124.01 81.5383 123.677 81.3347 123.254C81.1311 122.83 81.0293 122.344 81.0293 121.798C81.0293 121.244 81.1335 120.755 81.3418 120.331C81.5501 119.905 81.8437 119.572 82.2225 119.333C82.6013 119.094 83.0475 118.974 83.5613 118.974C83.9756 118.974 84.3449 119.051 84.6692 119.205C84.9935 119.357 85.2551 119.57 85.454 119.844C85.6552 120.119 85.7748 120.44 85.8127 120.807H84.7793C84.7225 120.551 84.5923 120.331 84.3887 120.146C84.1874 119.962 83.9176 119.869 83.579 119.869C83.2831 119.869 83.0239 119.947 82.8013 120.104C82.5811 120.258 82.4095 120.478 82.2864 120.764C82.1633 121.048 82.1017 121.384 82.1017 121.773C82.1017 122.17 82.1621 122.514 82.2828 122.803C82.4036 123.091 82.574 123.315 82.7942 123.474C83.0167 123.632 83.2783 123.712 83.579 123.712C83.7802 123.712 83.9625 123.675 84.1259 123.602C84.2916 123.526 84.4301 123.418 84.5414 123.278C84.655 123.139 84.7343 122.971 84.7793 122.774H85.8127C85.7748 123.127 85.66 123.442 85.4682 123.719C85.2765 123.996 85.0196 124.214 84.6976 124.372C84.378 124.531 84.0028 124.61 83.5719 124.61ZM87.6193 126.545C87.4607 126.545 87.3163 126.532 87.1861 126.506C87.0559 126.483 86.9588 126.457 86.8949 126.428L87.1506 125.558C87.3447 125.61 87.5175 125.633 87.669 125.626C87.8205 125.619 87.9543 125.562 88.0703 125.455C88.1887 125.349 88.2929 125.175 88.3828 124.933L88.5142 124.571L86.5185 119.045H87.6548L89.0362 123.278H89.093L90.4744 119.045H91.6143L89.3665 125.228C89.2623 125.512 89.1297 125.752 88.9688 125.949C88.8078 126.148 88.616 126.297 88.3935 126.396C88.1709 126.496 87.9129 126.545 87.6193 126.545ZM99.3461 120.377L98.3837 120.548C98.3435 120.424 98.2795 120.307 98.1919 120.196C98.1067 120.085 97.9907 119.994 97.8439 119.923C97.6971 119.852 97.5137 119.816 97.2935 119.816C96.9928 119.816 96.7419 119.884 96.5407 120.018C96.3394 120.151 96.2388 120.323 96.2388 120.533C96.2388 120.716 96.3063 120.862 96.4412 120.974C96.5762 121.085 96.794 121.176 97.0946 121.247L97.9611 121.446C98.463 121.562 98.8371 121.741 99.0833 121.982C99.3295 122.224 99.4526 122.537 99.4526 122.923C99.4526 123.25 99.3579 123.541 99.1685 123.797C98.9815 124.05 98.7199 124.249 98.3837 124.393C98.0499 124.538 97.6628 124.61 97.2225 124.61C96.6117 124.61 96.1133 124.48 95.7275 124.219C95.3416 123.957 95.1048 123.584 95.0172 123.101L96.0435 122.945C96.1074 123.212 96.2388 123.415 96.4377 123.552C96.6365 123.687 96.8958 123.754 97.2154 123.754C97.5634 123.754 97.8416 123.682 98.0499 123.538C98.2582 123.391 98.3624 123.212 98.3624 123.001C98.3624 122.831 98.2985 122.688 98.1706 122.572C98.0452 122.456 97.8522 122.368 97.5918 122.309L96.6685 122.107C96.1595 121.991 95.7831 121.806 95.5392 121.553C95.2978 121.299 95.177 120.978 95.177 120.59C95.177 120.268 95.267 119.987 95.4469 119.745C95.6268 119.504 95.8754 119.315 96.1926 119.18C96.5099 119.043 96.8733 118.974 97.2828 118.974C97.8723 118.974 98.3364 119.102 98.6749 119.358C99.0134 119.611 99.2372 119.951 99.3461 120.377ZM102.971 124.61C102.433 124.61 101.971 124.495 101.582 124.266C101.196 124.034 100.898 123.708 100.688 123.289C100.479 122.868 100.375 122.374 100.375 121.808C100.375 121.25 100.479 120.757 100.688 120.331C100.898 119.905 101.192 119.572 101.568 119.333C101.947 119.094 102.39 118.974 102.896 118.974C103.204 118.974 103.502 119.025 103.791 119.127C104.08 119.229 104.339 119.389 104.569 119.607C104.799 119.824 104.98 120.107 105.112 120.455C105.245 120.801 105.311 121.221 105.311 121.716V122.092H100.975V121.297H104.271C104.271 121.018 104.214 120.77 104.1 120.555C103.987 120.337 103.827 120.165 103.621 120.04C103.417 119.914 103.178 119.852 102.903 119.852C102.605 119.852 102.345 119.925 102.122 120.072C101.902 120.216 101.732 120.406 101.611 120.64C101.492 120.872 101.433 121.124 101.433 121.396V122.018C101.433 122.382 101.497 122.692 101.625 122.948C101.755 123.204 101.936 123.399 102.168 123.534C102.4 123.667 102.671 123.733 102.982 123.733C103.183 123.733 103.366 123.705 103.532 123.648C103.698 123.589 103.841 123.501 103.962 123.385C104.082 123.269 104.175 123.126 104.239 122.955L105.244 123.136C105.163 123.432 105.019 123.692 104.81 123.914C104.604 124.134 104.345 124.306 104.033 124.429C103.723 124.55 103.369 124.61 102.971 124.61ZM106.489 124.5V119.045H107.515V119.912H107.572C107.672 119.618 107.847 119.388 108.098 119.219C108.351 119.049 108.638 118.964 108.957 118.964C109.023 118.964 109.102 118.966 109.192 118.971C109.284 118.976 109.356 118.982 109.408 118.989V120.004C109.366 119.992 109.29 119.979 109.181 119.965C109.072 119.949 108.963 119.94 108.854 119.94C108.603 119.94 108.38 119.994 108.183 120.1C107.989 120.204 107.835 120.35 107.721 120.537C107.608 120.722 107.551 120.932 107.551 121.169V124.5H106.489ZM115.159 119.045L113.181 124.5H112.045L110.063 119.045H111.203L112.585 123.243H112.642L114.019 119.045H115.159ZM116.157 124.5V119.045H117.219V124.5H116.157ZM116.693 118.204C116.509 118.204 116.35 118.142 116.218 118.019C116.087 117.894 116.022 117.745 116.022 117.572C116.022 117.397 116.087 117.247 116.218 117.124C116.35 116.999 116.509 116.936 116.693 116.936C116.878 116.936 117.035 116.999 117.166 117.124C117.298 117.247 117.365 117.397 117.365 117.572C117.365 117.745 117.298 117.894 117.166 118.019C117.035 118.142 116.878 118.204 116.693 118.204ZM120.945 124.61C120.417 124.61 119.962 124.491 119.581 124.251C119.203 124.01 118.911 123.677 118.708 123.254C118.504 122.83 118.402 122.344 118.402 121.798C118.402 121.244 118.507 120.755 118.715 120.331C118.923 119.905 119.217 119.572 119.596 119.333C119.974 119.094 120.421 118.974 120.934 118.974C121.349 118.974 121.718 119.051 122.042 119.205C122.367 119.357 122.628 119.57 122.827 119.844C123.028 120.119 123.148 120.44 123.186 120.807H122.152C122.096 120.551 121.965 120.331 121.762 120.146C121.56 119.962 121.291 119.869 120.952 119.869C120.656 119.869 120.397 119.947 120.174 120.104C119.954 120.258 119.783 120.478 119.659 120.764C119.536 121.048 119.475 121.384 119.475 121.773C119.475 122.17 119.535 122.514 119.656 122.803C119.777 123.091 119.947 123.315 120.167 123.474C120.39 123.632 120.651 123.712 120.952 123.712C121.153 123.712 121.336 123.675 121.499 123.602C121.665 123.526 121.803 123.418 121.914 123.278C122.028 123.139 122.107 122.971 122.152 122.774H123.186C123.148 123.127 123.033 123.442 122.841 123.719C122.65 123.996 122.393 124.214 122.071 124.372C121.751 124.531 121.376 124.61 120.945 124.61ZM126.672 124.61C126.135 124.61 125.672 124.495 125.284 124.266C124.898 124.034 124.599 123.708 124.389 123.289C124.18 122.868 124.076 122.374 124.076 121.808C124.076 121.25 124.18 120.757 124.389 120.331C124.599 119.905 124.893 119.572 125.269 119.333C125.648 119.094 126.091 118.974 126.597 118.974C126.905 118.974 127.204 119.025 127.492 119.127C127.781 119.229 128.04 119.389 128.27 119.607C128.5 119.824 128.681 120.107 128.813 120.455C128.946 120.801 129.012 121.221 129.012 121.716V122.092H124.676V121.297H127.972C127.972 121.018 127.915 120.77 127.801 120.555C127.688 120.337 127.528 120.165 127.322 120.04C127.118 119.914 126.879 119.852 126.605 119.852C126.306 119.852 126.046 119.925 125.823 120.072C125.603 120.216 125.433 120.406 125.312 120.64C125.194 120.872 125.134 121.124 125.134 121.396V122.018C125.134 122.382 125.198 122.692 125.326 122.948C125.456 123.204 125.637 123.399 125.869 123.534C126.102 123.667 126.373 123.733 126.683 123.733C126.884 123.733 127.067 123.705 127.233 123.648C127.399 123.589 127.542 123.501 127.663 123.385C127.784 123.269 127.876 123.126 127.94 122.955L128.945 123.136C128.864 123.432 128.72 123.692 128.512 123.914C128.306 124.134 128.046 124.306 127.734 124.429C127.424 124.55 127.07 124.61 126.672 124.61ZM135.134 124.61C134.606 124.61 134.152 124.491 133.771 124.251C133.392 124.01 133.101 123.677 132.897 123.254C132.694 122.83 132.592 122.344 132.592 121.798C132.592 121.244 132.696 120.755 132.904 120.331C133.113 119.905 133.406 119.572 133.785 119.333C134.164 119.094 134.61 118.974 135.124 118.974C135.538 118.974 135.907 119.051 136.232 119.205C136.556 119.357 136.818 119.57 137.017 119.844C137.218 120.119 137.337 120.44 137.375 120.807H136.342C136.285 120.551 136.155 120.331 135.951 120.146C135.75 119.962 135.48 119.869 135.142 119.869C134.846 119.869 134.586 119.947 134.364 120.104C134.144 120.258 133.972 120.478 133.849 120.764C133.726 121.048 133.664 121.384 133.664 121.773C133.664 122.17 133.725 122.514 133.845 122.803C133.966 123.091 134.137 123.315 134.357 123.474C134.579 123.632 134.841 123.712 135.142 123.712C135.343 123.712 135.525 123.675 135.688 123.602C135.854 123.526 135.993 123.418 136.104 123.278C136.218 123.139 136.297 122.971 136.342 122.774H137.375C137.337 123.127 137.222 123.442 137.031 123.719C136.839 123.996 136.582 124.214 136.26 124.372C135.941 124.531 135.565 124.61 135.134 124.61ZM140.098 124.621C139.752 124.621 139.44 124.557 139.161 124.429C138.881 124.299 138.66 124.111 138.496 123.864C138.335 123.618 138.255 123.316 138.255 122.959C138.255 122.651 138.314 122.398 138.433 122.199C138.551 122 138.711 121.843 138.912 121.727C139.113 121.611 139.338 121.523 139.587 121.464C139.835 121.405 140.089 121.36 140.347 121.329C140.673 121.291 140.938 121.26 141.142 121.237C141.346 121.21 141.494 121.169 141.586 121.112C141.678 121.055 141.724 120.963 141.724 120.835V120.81C141.724 120.5 141.637 120.26 141.462 120.089C141.289 119.919 141.031 119.834 140.688 119.834C140.33 119.834 140.048 119.913 139.842 120.072C139.639 120.228 139.498 120.402 139.42 120.594L138.422 120.366C138.54 120.035 138.713 119.768 138.94 119.564C139.17 119.358 139.434 119.209 139.732 119.116C140.031 119.022 140.344 118.974 140.673 118.974C140.891 118.974 141.122 119 141.366 119.053C141.612 119.102 141.842 119.195 142.055 119.33C142.27 119.464 142.446 119.657 142.584 119.908C142.721 120.157 142.79 120.48 142.79 120.878V124.5H141.753V123.754H141.71C141.642 123.892 141.539 124.027 141.401 124.159C141.264 124.292 141.088 124.402 140.872 124.489C140.657 124.577 140.399 124.621 140.098 124.621ZM140.329 123.768C140.622 123.768 140.873 123.71 141.082 123.594C141.292 123.478 141.452 123.327 141.561 123.14C141.672 122.951 141.728 122.748 141.728 122.533V121.83C141.69 121.867 141.617 121.903 141.508 121.936C141.401 121.967 141.279 121.994 141.142 122.018C141.005 122.039 140.871 122.059 140.741 122.078C140.611 122.095 140.502 122.109 140.414 122.121C140.208 122.147 140.02 122.191 139.849 122.252C139.681 122.314 139.546 122.402 139.445 122.518C139.345 122.632 139.295 122.784 139.295 122.973C139.295 123.236 139.393 123.435 139.587 123.57C139.781 123.702 140.028 123.768 140.329 123.768ZM145.266 117.227V124.5H144.204V117.227H145.266ZM147.756 117.227V124.5H146.694V117.227H147.756ZM153.272 120.377L152.309 120.548C152.269 120.424 152.205 120.307 152.118 120.196C152.032 120.085 151.916 119.994 151.77 119.923C151.623 119.852 151.439 119.816 151.219 119.816C150.919 119.816 150.668 119.884 150.466 120.018C150.265 120.151 150.165 120.323 150.165 120.533C150.165 120.716 150.232 120.862 150.367 120.974C150.502 121.085 150.72 121.176 151.02 121.247L151.887 121.446C152.389 121.562 152.763 121.741 153.009 121.982C153.255 122.224 153.378 122.537 153.378 122.923C153.378 123.25 153.284 123.541 153.094 123.797C152.907 124.05 152.646 124.249 152.309 124.393C151.976 124.538 151.589 124.61 151.148 124.61C150.537 124.61 150.039 124.48 149.653 124.219C149.267 123.957 149.031 123.584 148.943 123.101L149.969 122.945C150.033 123.212 150.165 123.415 150.363 123.552C150.562 123.687 150.822 123.754 151.141 123.754C151.489 123.754 151.767 123.682 151.976 123.538C152.184 123.391 152.288 123.212 152.288 123.001C152.288 122.831 152.224 122.688 152.096 122.572C151.971 122.456 151.778 122.368 151.518 122.309L150.594 122.107C150.085 121.991 149.709 121.806 149.465 121.553C149.224 121.299 149.103 120.978 149.103 120.59C149.103 120.268 149.193 119.987 149.373 119.745C149.553 119.504 149.801 119.315 150.118 119.18C150.436 119.043 150.799 118.974 151.209 118.974C151.798 118.974 152.262 119.102 152.601 119.358C152.939 119.611 153.163 119.951 153.272 120.377Z" fill="#787373"/>
<path d="M0.368243 98.3682H191.632V137.108C191.632 140.159 189.159 142.632 186.108 142.632H5.89189C2.84126 142.632 0.368243 140.159 0.368243 137.108V98.3682Z" stroke="#D0CECE" stroke-width="0.736486"/>
<defs>
<clipPath id="clip0_17976_223083">
<rect width="26" height="13" fill="white" transform="translate(98 20)"/>
</clipPath>
</defs>
</svg>
