<svg width="192" height="143" viewBox="0 0 192 143" fill="none" xmlns="http://www.w3.org/2000/svg">
<path d="M0.5 8C0.5 3.85787 3.85786 0.5 8 0.5H184C188.142 0.5 191.5 3.85786 191.5 8V97.5H0.5V8Z" fill="#F4F9FF"/>
<g clip-path="url(#clip0_17965_223766)">
<path d="M120.356 52.5679V48.5788C120.356 47.4816 119.473 46.5876 118.39 46.5876H118.337C117.822 36.6047 109.664 28.6332 99.6817 28.6332H98.6988C98.6988 26.9807 97.3749 25.6397 95.7434 25.6397H92.788V22.6462H96.7263C98.8994 22.6462 100.665 20.8582 100.665 18.6571C100.665 16.456 98.8994 14.668 96.7263 14.668H80.9732C78.8001 14.668 77.0349 16.456 77.0349 18.6571C77.0349 20.8582 78.8001 22.6462 80.9732 22.6462H84.9114V25.6397H81.9694C80.3781 25.6397 79.0876 26.9197 79.0274 28.5181C79.0274 28.5587 79.0074 28.5926 79.0074 28.6332H71.1509C70.6093 28.6332 70.168 29.0802 70.168 29.6288C70.168 30.1774 70.6093 30.6244 71.1509 30.6244H79.0074V40.5938H71.1509C70.6093 40.5938 70.168 41.0408 70.168 41.5893C70.168 42.1379 70.6093 42.5849 71.1509 42.5849H79.0074C79.0074 42.6256 79.0274 42.6594 79.0274 42.7001C79.0876 44.2984 80.3781 45.5785 81.9694 45.5785H95.7434C97.3749 45.5785 98.6988 44.2375 98.6988 42.5849H99.6817C102.062 42.5849 104.055 44.3052 104.509 46.5876C103.473 46.6418 102.637 47.5087 102.637 48.572V52.5611C102.637 53.6583 103.52 54.5522 104.603 54.5522H118.383C119.467 54.5522 120.349 53.6583 120.349 52.5611L120.356 52.5679ZM80.9732 20.6482C79.89 20.6482 79.0074 19.7542 79.0074 18.6571C79.0074 17.5599 79.89 16.6659 80.9732 16.6659H96.7263C97.8095 16.6659 98.6921 17.5599 98.6921 18.6571C98.6921 19.7542 97.8095 20.6482 96.7263 20.6482H80.9732ZM90.8155 22.6394V25.6329H86.8772V22.6394H90.8155ZM96.7196 42.5849C96.7196 43.1335 96.2783 43.5805 95.7367 43.5805H81.9627C81.4212 43.5805 80.9798 43.1335 80.9798 42.5849C80.9798 42.5646 80.9665 42.5443 80.9665 42.524V41.6435C80.9665 41.6435 80.9798 41.6029 80.9798 41.5826C80.9798 41.5623 80.9665 41.5419 80.9665 41.5216V29.6762C80.9665 29.6762 80.9798 29.6356 80.9798 29.6153C80.9798 29.5949 80.9665 29.5746 80.9665 29.5543V28.6739C80.9665 28.6739 80.9798 28.6332 80.9798 28.6129C80.9798 28.0643 81.4212 27.6173 81.9627 27.6173H95.7367C96.2783 27.6173 96.7196 28.0643 96.7196 28.6129V42.5782V42.5849ZM99.675 40.5938H98.6921V30.6244H99.675C108.575 30.6244 115.849 37.6951 116.364 46.5808H106.488C106.007 43.2012 103.139 40.5938 99.675 40.5938ZM118.377 52.5679H104.596V48.5788H118.377V52.5679Z" fill="#5B82B6" stroke="#5B82B6" stroke-width="0.5" stroke-miterlimit="10"/>
<path d="M103.898 68.3786C103.624 68.6224 103.477 68.9542 103.477 69.2996C103.477 69.645 103.624 69.9837 103.898 70.2275C105.095 71.3111 105.724 72.6318 105.724 74.0337C105.724 75.4357 105.095 76.7563 103.898 77.84C103.624 78.0906 103.477 78.4157 103.477 78.7678C103.477 79.12 103.624 79.4451 103.898 79.6957C104.627 80.3594 105.149 81.1044 105.443 81.9104C105.737 82.7163 105.155 83.5019 104.339 83.5019C103.851 83.5019 103.423 83.1904 103.25 82.7231C103.089 82.2829 102.782 81.8629 102.334 81.4566C101.578 80.7658 101.137 79.7837 101.137 78.7678C101.137 77.7519 101.578 76.7699 102.334 76.0791C103.042 75.4357 103.39 74.772 103.39 74.0337C103.39 73.2955 103.042 72.6318 102.334 71.9884C101.578 71.2976 101.137 70.3155 101.137 69.2996C101.137 68.2837 101.578 67.3085 102.334 66.6177C103.042 65.9743 103.39 65.3038 103.39 64.5723C103.39 63.8409 103.042 63.1636 102.334 62.527C101.578 61.8294 101.137 60.8541 101.137 59.8382C101.137 58.8223 101.578 57.8403 102.334 57.1495C103.47 56.1132 103.45 55.2125 103.337 54.6165C103.216 53.9798 103.631 53.3568 104.266 53.2281C104.894 53.1062 105.51 53.5261 105.63 54.1695C105.697 54.4878 105.724 54.7993 105.724 55.1109C105.724 56.5128 105.102 57.8132 103.898 58.9104C103.624 59.1542 103.477 59.486 103.477 59.8382C103.477 60.1904 103.624 60.5155 103.898 60.7593C105.095 61.8497 105.724 63.1636 105.724 64.5723C105.724 65.981 105.095 67.2882 103.898 68.3786Z" fill="#5B82B6"/>
<path d="M120.802 71.9884C120.094 72.6318 119.753 73.3023 119.753 74.0337C119.753 74.7652 120.094 75.4357 120.802 76.0791C121.565 76.7699 121.999 77.7519 121.999 78.7678C121.999 79.7837 121.565 80.7658 120.802 81.4566C120.354 81.863 120.054 82.2829 119.893 82.7231C119.719 83.1904 119.291 83.5019 118.803 83.5019C117.994 83.5019 117.426 82.6824 117.707 81.9104C117.987 81.1383 118.516 80.3594 119.251 79.6957C119.519 79.4451 119.672 79.12 119.672 78.7678C119.672 78.4157 119.519 78.0906 119.251 77.84C118.054 76.7564 117.426 75.4425 117.426 74.0337C117.426 72.625 118.054 71.3111 119.251 70.2275C119.519 69.9837 119.672 69.6518 119.672 69.2996C119.672 68.9475 119.519 68.6224 119.251 68.3786C118.054 67.2882 117.426 65.9743 117.426 64.5723C117.426 63.1704 118.054 61.8497 119.251 60.7593C119.519 60.5155 119.672 60.1836 119.672 59.8382C119.672 59.4928 119.519 59.1542 119.251 58.9104C118.041 57.8132 117.426 56.5128 117.426 55.1109C117.426 54.8129 117.453 54.5149 117.506 54.2101C117.613 53.6209 118.128 53.1671 118.716 53.201C119.445 53.2484 119.94 53.9189 119.806 54.6097C119.692 55.2057 119.672 56.1065 120.809 57.1427C121.571 57.8335 122.006 58.8155 122.006 59.8314C122.006 60.8473 121.571 61.8226 120.809 62.5202C120.1 63.1568 119.759 63.8273 119.759 64.5655C119.759 65.3038 120.1 65.9675 120.809 66.6109C121.571 67.3017 122.006 68.277 122.006 69.2929C122.006 70.3088 121.571 71.2908 120.809 71.9816L120.802 71.9884Z" fill="#5B82B6"/>
<path d="M108.701 74.1951C108.059 74.1951 107.531 73.6669 107.531 73.0099V59.7829C107.531 59.1327 108.053 58.5977 108.701 58.5977C109.35 58.5977 109.871 59.1259 109.871 59.7829V73.0099C109.871 73.6601 109.35 74.1951 108.701 74.1951Z" fill="#5B82B6"/>
<path d="M113.643 75.7586C113.001 75.7586 112.473 75.2303 112.473 74.5733V68.4508C112.473 67.8007 112.994 67.2656 113.643 67.2656C114.291 67.2656 114.813 67.7939 114.813 68.4508V74.5733C114.813 75.2235 114.291 75.7586 113.643 75.7586Z" fill="#5B82B6"/>
</g>
<path d="M0.5 8C0.5 3.85787 3.85786 0.5 8 0.5H184C188.142 0.5 191.5 3.85786 191.5 8V97.5H0.5V8Z" stroke="#D0CECE"/>
<path d="M0.368243 98.3682H191.632V137.108C191.632 140.159 189.159 142.632 186.108 142.632H5.89189C2.84126 142.632 0.368243 140.159 0.368243 137.108V98.3682Z" fill="white"/>
<path d="M57.7609 124.5V117.227H58.8582V123.555H62.1537V124.5H57.7609ZM65.6711 124.61C65.1337 124.61 64.6708 124.495 64.2826 124.266C63.8967 124.034 63.5984 123.708 63.3877 123.289C63.1794 122.868 63.0752 122.374 63.0752 121.808C63.0752 121.25 63.1794 120.757 63.3877 120.331C63.5984 119.905 63.892 119.572 64.2684 119.333C64.6472 119.094 65.0899 118.974 65.5965 118.974C65.9043 118.974 66.2026 119.025 66.4914 119.127C66.7802 119.229 67.0394 119.389 67.2691 119.607C67.4987 119.824 67.6798 120.107 67.8124 120.455C67.945 120.801 68.0113 121.221 68.0113 121.716V122.092H63.6753V121.297H66.9708C66.9708 121.018 66.914 120.77 66.8003 120.555C66.6867 120.337 66.5269 120.165 66.3209 120.04C66.1173 119.914 65.8782 119.852 65.6036 119.852C65.3053 119.852 65.0449 119.925 64.8224 120.072C64.6022 120.216 64.4317 120.406 64.311 120.64C64.1926 120.872 64.1334 121.124 64.1334 121.396V122.018C64.1334 122.382 64.1974 122.692 64.3252 122.948C64.4554 123.204 64.6365 123.399 64.8685 123.534C65.1005 123.667 65.3716 123.733 65.6817 123.733C65.883 123.733 66.0664 123.705 66.2322 123.648C66.3979 123.589 66.5411 123.501 66.6618 123.385C66.7826 123.269 66.8749 123.126 66.9388 122.955L67.9438 123.136C67.8633 123.432 67.7189 123.692 67.5106 123.914C67.3046 124.134 67.0454 124.306 66.7329 124.429C66.4227 124.55 66.0688 124.61 65.6711 124.61ZM70.7767 124.621C70.4311 124.621 70.1186 124.557 69.8392 124.429C69.5599 124.299 69.3385 124.111 69.1752 123.864C69.0142 123.618 68.9337 123.316 68.9337 122.959C68.9337 122.651 68.9929 122.398 69.1112 122.199C69.2296 122 69.3894 121.843 69.5906 121.727C69.7919 121.611 70.0168 121.523 70.2654 121.464C70.5139 121.405 70.7673 121.36 71.0253 121.329C71.352 121.291 71.6172 121.26 71.8208 121.237C72.0244 121.21 72.1723 121.169 72.2646 121.112C72.357 121.055 72.4031 120.963 72.4031 120.835V120.81C72.4031 120.5 72.3155 120.26 72.1404 120.089C71.9675 119.919 71.7095 119.834 71.3662 119.834C71.0087 119.834 70.727 119.913 70.521 120.072C70.3174 120.228 70.1766 120.402 70.0985 120.594L69.1006 120.366C69.219 120.035 69.3918 119.768 69.6191 119.564C69.8487 119.358 70.1127 119.209 70.411 119.116C70.7093 119.022 71.0229 118.974 71.352 118.974C71.5698 118.974 71.8006 119 72.0445 119.053C72.2907 119.102 72.5203 119.195 72.7334 119.33C72.9488 119.464 73.1252 119.657 73.2625 119.908C73.3998 120.157 73.4685 120.48 73.4685 120.878V124.5H72.4316V123.754H72.3889C72.3203 123.892 72.2173 124.027 72.08 124.159C71.9427 124.292 71.7663 124.402 71.5509 124.489C71.3354 124.577 71.0774 124.621 70.7767 124.621ZM71.0075 123.768C71.3011 123.768 71.5521 123.71 71.7604 123.594C71.9711 123.478 72.1309 123.327 72.2398 123.14C72.3511 122.951 72.4067 122.748 72.4067 122.533V121.83C72.3688 121.867 72.2954 121.903 72.1865 121.936C72.08 121.967 71.9581 121.994 71.8208 122.018C71.6834 122.039 71.5497 122.059 71.4195 122.078C71.2893 122.095 71.1804 122.109 71.0928 122.121C70.8868 122.147 70.6986 122.191 70.5281 122.252C70.3601 122.314 70.2251 122.402 70.1233 122.518C70.0239 122.632 69.9742 122.784 69.9742 122.973C69.9742 123.236 70.0712 123.435 70.2654 123.57C70.4595 123.702 70.7069 123.768 71.0075 123.768ZM75.8593 122.65L75.8522 121.354H76.0368L78.2101 119.045H79.4814L77.0028 121.673H76.8358L75.8593 122.65ZM74.8827 124.5V117.227H75.9445V124.5H74.8827ZM78.3273 124.5L76.3742 121.908L77.1057 121.165L79.6306 124.5H78.3273ZM80.4491 124.5V119.045H81.5109V124.5H80.4491ZM80.9854 118.204C80.8007 118.204 80.6421 118.142 80.5095 118.019C80.3793 117.894 80.3142 117.745 80.3142 117.572C80.3142 117.397 80.3793 117.247 80.5095 117.124C80.6421 116.999 80.8007 116.936 80.9854 116.936C81.17 116.936 81.3274 116.999 81.4577 117.124C81.5902 117.247 81.6565 117.397 81.6565 117.572C81.6565 117.745 81.5902 117.894 81.4577 118.019C81.3274 118.142 81.17 118.204 80.9854 118.204ZM84.0012 121.261V124.5H82.9394V119.045H83.9585V119.933H84.026C84.1515 119.644 84.348 119.412 84.6155 119.237C84.8854 119.062 85.2251 118.974 85.6347 118.974C86.0064 118.974 86.3319 119.053 86.6112 119.209C86.8906 119.363 87.1072 119.592 87.2611 119.898C87.415 120.203 87.4919 120.581 87.4919 121.031V124.5H86.4301V121.158C86.4301 120.763 86.3271 120.454 86.1212 120.232C85.9152 120.007 85.6323 119.894 85.2725 119.894C85.0262 119.894 84.8073 119.947 84.6155 120.054C84.4261 120.161 84.2758 120.317 84.1645 120.523C84.0556 120.726 84.0012 120.973 84.0012 121.261ZM91.2029 126.659C90.7696 126.659 90.3968 126.602 90.0843 126.489C89.7741 126.375 89.5208 126.225 89.3243 126.038C89.1278 125.851 88.981 125.646 88.884 125.423L89.7966 125.047C89.8605 125.151 89.9458 125.261 90.0523 125.377C90.1612 125.496 90.308 125.596 90.4926 125.679C90.6797 125.762 90.92 125.803 91.2135 125.803C91.616 125.803 91.9486 125.705 92.2114 125.509C92.4742 125.314 92.6056 125.004 92.6056 124.578V123.506H92.5381C92.4742 123.622 92.3818 123.751 92.2611 123.893C92.1427 124.035 91.9794 124.158 91.771 124.262C91.5627 124.366 91.2916 124.418 90.9578 124.418C90.527 124.418 90.1387 124.318 89.7931 124.116C89.4498 123.913 89.1775 123.613 88.9763 123.218C88.7774 122.82 88.678 122.331 88.678 121.751C88.678 121.171 88.7762 120.674 88.9727 120.26C89.1716 119.846 89.4439 119.528 89.7895 119.308C90.1352 119.086 90.527 118.974 90.9649 118.974C91.3035 118.974 91.5769 119.031 91.7852 119.145C91.9936 119.256 92.1557 119.386 92.2718 119.536C92.3901 119.685 92.4813 119.816 92.5452 119.93H92.6233V119.045H93.6638V124.621C93.6638 125.089 93.5549 125.474 93.3371 125.775C93.1193 126.076 92.8245 126.298 92.4529 126.442C92.0835 126.587 91.6669 126.659 91.2029 126.659ZM91.1922 123.538C91.4976 123.538 91.7557 123.467 91.9664 123.325C92.1794 123.18 92.3404 122.974 92.4493 122.707C92.5606 122.437 92.6162 122.114 92.6162 121.737C92.6162 121.37 92.5618 121.047 92.4529 120.768C92.344 120.488 92.1842 120.271 91.9735 120.114C91.7628 119.956 91.5023 119.876 91.1922 119.876C90.8726 119.876 90.6063 119.959 90.3932 120.125C90.1801 120.288 90.0191 120.511 89.9102 120.793C89.8037 121.074 89.7504 121.389 89.7504 121.737C89.7504 122.095 89.8049 122.408 89.9138 122.678C90.0227 122.948 90.1837 123.159 90.3968 123.31C90.6122 123.462 90.8773 123.538 91.1922 123.538ZM97.8195 124.5V117.227H102.329V118.172H98.9168V120.388H102.006V121.329H98.9168V124.5H97.8195ZM105.161 124.621C104.816 124.621 104.503 124.557 104.224 124.429C103.945 124.299 103.723 124.111 103.56 123.864C103.399 123.618 103.318 123.316 103.318 122.959C103.318 122.651 103.378 122.398 103.496 122.199C103.614 122 103.774 121.843 103.975 121.727C104.177 121.611 104.402 121.523 104.65 121.464C104.899 121.405 105.152 121.36 105.41 121.329C105.737 121.291 106.002 121.26 106.206 121.237C106.409 121.21 106.557 121.169 106.649 121.112C106.742 121.055 106.788 120.963 106.788 120.835V120.81C106.788 120.5 106.7 120.26 106.525 120.089C106.352 119.919 106.094 119.834 105.751 119.834C105.393 119.834 105.112 119.913 104.906 120.072C104.702 120.228 104.561 120.402 104.483 120.594L103.485 120.366C103.604 120.035 103.777 119.768 104.004 119.564C104.233 119.358 104.497 119.209 104.796 119.116C105.094 119.022 105.408 118.974 105.737 118.974C105.955 118.974 106.185 119 106.429 119.053C106.675 119.102 106.905 119.195 107.118 119.33C107.334 119.464 107.51 119.657 107.647 119.908C107.785 120.157 107.853 120.48 107.853 120.878V124.5H106.816V123.754H106.774C106.705 123.892 106.602 124.027 106.465 124.159C106.327 124.292 106.151 124.402 105.936 124.489C105.72 124.577 105.462 124.621 105.161 124.621ZM105.392 123.768C105.686 123.768 105.937 123.71 106.145 123.594C106.356 123.478 106.516 123.327 106.625 123.14C106.736 122.951 106.791 122.748 106.791 122.533V121.83C106.754 121.867 106.68 121.903 106.571 121.936C106.465 121.967 106.343 121.994 106.206 122.018C106.068 122.039 105.934 122.059 105.804 122.078C105.674 122.095 105.565 122.109 105.478 122.121C105.272 122.147 105.083 122.191 104.913 122.252C104.745 122.314 104.61 122.402 104.508 122.518C104.409 122.632 104.359 122.784 104.359 122.973C104.359 123.236 104.456 123.435 104.65 123.57C104.844 123.702 105.092 123.768 105.392 123.768ZM112.723 122.238V119.045H113.788V124.5H112.744V123.555H112.687C112.562 123.847 112.361 124.089 112.084 124.283C111.809 124.475 111.467 124.571 111.057 124.571C110.707 124.571 110.397 124.494 110.127 124.34C109.859 124.184 109.649 123.953 109.495 123.648C109.343 123.342 109.267 122.965 109.267 122.515V119.045H110.329V122.387C110.329 122.759 110.432 123.055 110.638 123.275C110.844 123.495 111.112 123.605 111.441 123.605C111.64 123.605 111.837 123.555 112.034 123.456C112.233 123.357 112.397 123.206 112.527 123.005C112.66 122.804 112.725 122.548 112.723 122.238ZM117.512 124.61C116.984 124.61 116.53 124.491 116.149 124.251C115.77 124.01 115.479 123.677 115.275 123.254C115.072 122.83 114.97 122.344 114.97 121.798C114.97 121.244 115.074 120.755 115.282 120.331C115.491 119.905 115.784 119.572 116.163 119.333C116.542 119.094 116.988 118.974 117.502 118.974C117.916 118.974 118.285 119.051 118.61 119.205C118.934 119.357 119.196 119.57 119.394 119.844C119.596 120.119 119.715 120.44 119.753 120.807H118.72C118.663 120.551 118.533 120.331 118.329 120.146C118.128 119.962 117.858 119.869 117.519 119.869C117.224 119.869 116.964 119.947 116.742 120.104C116.522 120.258 116.35 120.478 116.227 120.764C116.104 121.048 116.042 121.384 116.042 121.773C116.042 122.17 116.103 122.514 116.223 122.803C116.344 123.091 116.514 123.315 116.735 123.474C116.957 123.632 117.219 123.712 117.519 123.712C117.721 123.712 117.903 123.675 118.066 123.602C118.232 123.526 118.371 123.418 118.482 123.278C118.595 123.139 118.675 122.971 118.72 122.774H119.753C119.715 123.127 119.6 123.442 119.409 123.719C119.217 123.996 118.96 124.214 118.638 124.372C118.318 124.531 117.943 124.61 117.512 124.61ZM123.239 124.61C122.702 124.61 122.239 124.495 121.851 124.266C121.465 124.034 121.167 123.708 120.956 123.289C120.748 122.868 120.644 122.374 120.644 121.808C120.644 121.25 120.748 120.757 120.956 120.331C121.167 119.905 121.46 119.572 121.837 119.333C122.216 119.094 122.658 118.974 123.165 118.974C123.473 118.974 123.771 119.025 124.06 119.127C124.349 119.229 124.608 119.389 124.837 119.607C125.067 119.824 125.248 120.107 125.381 120.455C125.513 120.801 125.58 121.221 125.58 121.716V122.092H121.244V121.297H124.539C124.539 121.018 124.482 120.77 124.369 120.555C124.255 120.337 124.095 120.165 123.889 120.04C123.686 119.914 123.447 119.852 123.172 119.852C122.874 119.852 122.613 119.925 122.391 120.072C122.171 120.216 122 120.406 121.879 120.64C121.761 120.872 121.702 121.124 121.702 121.396V122.018C121.702 122.382 121.766 122.692 121.894 122.948C122.024 123.204 122.205 123.399 122.437 123.534C122.669 123.667 122.94 123.733 123.25 123.733C123.451 123.733 123.635 123.705 123.801 123.648C123.966 123.589 124.109 123.501 124.23 123.385C124.351 123.269 124.443 123.126 124.507 122.955L125.512 123.136C125.432 123.432 125.287 123.692 125.079 123.914C124.873 124.134 124.614 124.306 124.301 124.429C123.991 124.55 123.637 124.61 123.239 124.61ZM129.304 119.045V119.898H126.324V119.045H129.304ZM127.123 117.739H128.185V122.898C128.185 123.104 128.216 123.259 128.278 123.364C128.339 123.465 128.418 123.535 128.516 123.573C128.615 123.609 128.723 123.626 128.839 123.626C128.924 123.626 128.998 123.621 129.062 123.609C129.126 123.597 129.176 123.587 129.212 123.58L129.403 124.457C129.342 124.481 129.254 124.505 129.141 124.528C129.027 124.554 128.885 124.569 128.714 124.571C128.435 124.576 128.175 124.526 127.933 124.422C127.692 124.318 127.496 124.157 127.347 123.939C127.198 123.721 127.123 123.448 127.123 123.119V117.739ZM134.478 120.377L133.516 120.548C133.475 120.424 133.411 120.307 133.324 120.196C133.239 120.085 133.123 119.994 132.976 119.923C132.829 119.852 132.646 119.816 132.425 119.816C132.125 119.816 131.874 119.884 131.672 120.018C131.471 120.151 131.371 120.323 131.371 120.533C131.371 120.716 131.438 120.862 131.573 120.974C131.708 121.085 131.926 121.176 132.226 121.247L133.093 121.446C133.595 121.562 133.969 121.741 134.215 121.982C134.461 122.224 134.584 122.537 134.584 122.923C134.584 123.25 134.49 123.541 134.3 123.797C134.113 124.05 133.852 124.249 133.516 124.393C133.182 124.538 132.795 124.61 132.354 124.61C131.744 124.61 131.245 124.48 130.859 124.219C130.473 123.957 130.237 123.584 130.149 123.101L131.175 122.945C131.239 123.212 131.371 123.415 131.57 123.552C131.768 123.687 132.028 123.754 132.347 123.754C132.695 123.754 132.973 123.682 133.182 123.538C133.39 123.391 133.494 123.212 133.494 123.001C133.494 122.831 133.43 122.688 133.302 122.572C133.177 122.456 132.984 122.368 132.724 122.309L131.8 122.107C131.291 121.991 130.915 121.806 130.671 121.553C130.43 121.299 130.309 120.978 130.309 120.59C130.309 120.268 130.399 119.987 130.579 119.745C130.759 119.504 131.007 119.315 131.324 119.18C131.642 119.043 132.005 118.974 132.415 118.974C133.004 118.974 133.468 119.102 133.807 119.358C134.145 119.611 134.369 119.951 134.478 120.377Z" fill="#787373"/>
<path d="M0.368243 98.3682H191.632V137.108C191.632 140.159 189.159 142.632 186.108 142.632H5.89189C2.84126 142.632 0.368243 140.159 0.368243 137.108V98.3682Z" stroke="#D0CECE" stroke-width="0.736486"/>
<defs>
<clipPath id="clip0_17965_223766">
<rect width="52" height="69" fill="white" transform="translate(70 14.5)"/>
</clipPath>
</defs>
</svg>
