<svg width="192" height="143" viewBox="0 0 192 143" fill="none" xmlns="http://www.w3.org/2000/svg">
<path d="M0.5 8C0.5 3.85787 3.85786 0.5 8 0.5H184C188.142 0.5 191.5 3.85786 191.5 8V97.5H0.5V8Z" fill="#F4F9FF"/>
<g clip-path="url(#clip0_17965_223167)">
<path d="M90.9182 57.9482C90.3279 57.9482 89.8507 57.4715 89.8507 56.8816V52.2514C89.8507 48.6636 86.9314 45.7466 83.3409 45.7466C82.7506 45.7466 82.2734 45.2698 82.2734 44.6799C82.2734 44.09 82.7506 43.6133 83.3409 43.6133C88.1121 43.6133 91.9856 47.492 91.9856 52.2514V56.8816C91.9856 57.4715 91.5085 57.9482 90.9182 57.9482Z" fill="#5B82B6" stroke="#5B82B6" stroke-width="0.5" stroke-miterlimit="10"/>
<path d="M112.146 59.7666C111.556 59.7666 111.078 59.2899 111.078 58.7V52.2598C111.078 36.9794 98.633 24.5434 83.3409 24.5434C82.7506 24.5434 82.2734 24.0667 82.2734 23.4768C82.2734 22.8869 82.7506 22.4102 83.3409 22.4102C99.8136 22.4102 113.213 35.7997 113.213 52.2598V58.7C113.213 59.2899 112.736 59.7666 112.146 59.7666Z" fill="#5B82B6" stroke="#5B82B6" stroke-width="0.5" stroke-miterlimit="10"/>
<path d="M105.205 45.8686C104.761 45.8686 104.348 45.5857 104.194 45.1494C102.286 39.5738 98.1294 34.9194 92.7921 32.374C92.2584 32.1235 92.032 31.4851 92.2908 30.9518C92.5414 30.4185 93.1803 30.1922 93.714 30.4508C99.5688 33.2386 104.122 38.3455 106.216 44.4625C106.41 45.0201 106.111 45.6261 105.553 45.8201C105.44 45.8605 105.319 45.8766 105.205 45.8766V45.8686Z" fill="#5B82B6" stroke="#5B82B6" stroke-width="0.5" stroke-miterlimit="10"/>
<path d="M122.214 83.2972H58.1751C55.7086 83.2972 53.7031 81.2932 53.7031 78.8286V60.7201C53.7031 59.9201 54.0751 59.1848 54.714 58.708C55.3609 58.2313 56.2019 58.0939 56.9783 58.3282C58.2155 58.708 59.5418 58.3686 60.4394 57.4394C61.4907 56.3566 62.9059 55.7505 64.4262 55.7505C65.9465 55.7505 67.3617 56.3485 68.413 57.4394C68.413 57.4394 68.413 57.4394 68.421 57.4475C69.068 58.1101 69.9333 58.4737 70.8632 58.4737C71.7932 58.4737 72.6585 58.1101 73.3054 57.4394C74.3567 56.3485 75.78 55.7505 77.2922 55.7505C78.8044 55.7505 80.2196 56.3485 81.2709 57.4313C81.9179 58.102 82.7912 58.4656 83.7212 58.4656C84.6512 58.4656 85.5246 58.0939 86.1715 57.4313C87.2228 56.3404 88.646 55.7425 90.1583 55.7425C91.6705 55.7425 93.0857 56.3404 94.145 57.4313C94.792 58.102 95.6654 58.4656 96.5953 58.4656C97.5253 58.4656 98.3987 58.0939 99.0456 57.4313C99.0456 57.4313 99.0456 57.4313 99.0537 57.4232C100.105 56.3404 101.52 55.7425 103.032 55.7425C104.545 55.7425 105.96 56.3404 107.019 57.4232C107.666 58.0939 108.539 58.4575 109.469 58.4575C110.399 58.4575 111.265 58.0939 111.912 57.4232C112.963 56.3323 114.386 55.7344 115.898 55.7344C117.419 55.7344 118.834 56.3323 119.885 57.4232C120.783 58.3444 122.109 58.6838 123.346 58.304C124.123 58.0697 124.964 58.207 125.611 58.6838C126.258 59.1605 126.621 59.8878 126.621 60.6958V78.8044C126.621 81.269 124.616 83.273 122.15 83.273L122.214 83.2972ZM56.2181 60.3484C56.113 60.3484 56.0321 60.3969 55.9836 60.4292C55.9189 60.4777 55.838 60.5666 55.838 60.7201V78.8286C55.838 80.1135 56.8893 81.1639 58.1751 81.1639H122.214C123.5 81.1639 124.551 80.1135 124.551 78.8286V60.7201C124.551 60.5666 124.47 60.4777 124.406 60.4292C124.349 60.3807 124.22 60.3161 124.042 60.3726C122.028 60.9948 119.877 60.4373 118.413 58.9343C117.766 58.2717 116.893 57.9 115.963 57.9C115.033 57.9 114.168 58.2636 113.521 58.9343C112.47 60.0252 111.046 60.6231 109.534 60.6231C108.022 60.6231 106.607 60.0252 105.547 58.9424C104.9 58.2717 104.027 57.9081 103.097 57.9081C102.167 57.9081 101.294 58.2798 100.647 58.9424C100.647 58.9424 100.647 58.9424 100.639 58.9504C99.5874 60.0332 98.1722 60.6312 96.66 60.6312C95.1478 60.6312 93.7326 60.0332 92.6732 58.9504C92.0263 58.2798 91.1529 57.9161 90.223 57.9161C89.293 57.9161 88.4196 58.2878 87.7727 58.9504C86.7214 60.0413 85.2981 60.6393 83.7859 60.6393C82.2737 60.6393 80.8585 60.0413 79.8072 58.9585C79.8072 58.9585 79.8072 58.9585 79.7991 58.9504C79.1522 58.2798 78.2788 57.9161 77.3488 57.9161C76.4188 57.9161 75.5536 58.2798 74.9066 58.9504C74.9066 58.9504 74.9066 58.9504 74.9066 58.9585C73.8553 60.0494 72.4321 60.6474 70.9199 60.6474C69.3995 60.6474 67.9844 60.0494 66.9331 58.9585C66.9331 58.9585 66.9331 58.9585 66.925 58.9504C66.278 58.2878 65.4128 57.9242 64.4828 57.9242C63.5528 57.9242 62.6794 58.2959 62.0325 58.9585C60.5688 60.4615 58.4177 61.0191 56.4041 60.3969C56.3556 60.3807 56.3152 60.3807 56.2747 60.3807L56.2181 60.3484Z" fill="#5B82B6" stroke="#5B82B6" stroke-width="0.5" stroke-miterlimit="10"/>
<path d="M103.078 71.9859C102.391 71.9859 101.703 71.8566 101.04 71.598C100.32 71.3152 99.6735 70.895 99.1155 70.3293C99.0994 70.3213 99.0913 70.3051 99.0751 70.2889C98.4282 69.6183 97.5548 69.2546 96.6248 69.2546C95.6948 69.2546 94.8538 69.6102 94.215 70.2566C94.1988 70.2728 94.1907 70.2889 94.1745 70.297C93.8591 70.6203 93.5114 70.9031 93.1475 71.1293C92.6461 71.4445 91.983 71.2909 91.6757 70.7899C91.3603 70.2889 91.514 69.6344 92.0154 69.3193C92.2175 69.19 92.4197 69.0365 92.6057 68.8506C92.6138 68.8344 92.6299 68.8264 92.638 68.8102C93.6893 67.7193 95.1126 67.1214 96.6248 67.1214C98.137 67.1214 99.528 67.7112 100.579 68.7698C100.595 68.7779 100.603 68.794 100.612 68.8021C100.959 69.1577 101.364 69.4243 101.817 69.6021C103.102 70.1112 104.558 69.796 105.52 68.8021C105.528 68.786 105.545 68.7779 105.561 68.7698C106.612 67.7032 108.011 67.1133 109.515 67.1133C111.019 67.1133 112.451 67.7112 113.502 68.8021C114.149 69.4728 115.022 69.8364 115.952 69.8364C116.882 69.8364 117.756 69.4647 118.402 68.8021C119.454 67.7112 120.877 67.1133 122.389 67.1133C122.98 67.1133 123.457 67.59 123.457 68.1799C123.457 68.7698 122.98 69.2466 122.389 69.2466C121.459 69.2466 120.586 69.6183 119.939 70.2809C118.88 71.3717 117.464 71.9697 115.952 71.9697C114.44 71.9697 113.017 71.3717 111.965 70.2809C111.318 69.6102 110.445 69.2466 109.515 69.2466C108.585 69.2466 107.712 69.6183 107.065 70.2809C107.057 70.297 107.041 70.3051 107.032 70.3132C105.965 71.396 104.542 71.9697 103.086 71.9697L103.078 71.9859Z" fill="#5B82B6"/>
<path d="M126.653 24.4317C127.024 23.858 127.51 23.3489 128.092 22.9368C128.723 22.4843 129.434 22.1773 130.203 22.0237C130.219 22.0237 130.235 22.0237 130.251 22.0156C131.165 21.8379 131.949 21.3126 132.459 20.5288C132.968 19.745 133.13 18.8561 132.936 17.9673C132.936 17.9511 132.928 17.9269 132.92 17.9107C132.823 17.4663 132.774 17.0299 132.782 16.5936C132.798 16.0037 133.284 15.535 133.874 15.5512C134.464 15.5593 134.933 16.0522 134.917 16.6421C134.917 16.8845 134.933 17.135 134.99 17.3936C134.99 17.4097 134.998 17.4259 135.006 17.442C135.346 18.9208 135.071 20.4319 134.246 21.7005C133.421 22.9692 132.168 23.8095 130.704 24.1085C130.688 24.1085 130.672 24.1085 130.655 24.1166C130.17 24.2136 129.725 24.3994 129.329 24.6822C128.197 25.4822 127.671 26.8721 127.979 28.2215C127.979 28.2377 127.979 28.2538 127.987 28.27C128.31 29.7326 128.035 31.2275 127.21 32.48C126.386 33.7325 125.108 34.6052 123.62 34.8961C122.706 35.0738 121.922 35.5991 121.412 36.3829C120.903 37.1667 120.733 38.096 120.943 39.001C121.283 40.4797 121.008 41.9908 120.183 43.2595C119.86 43.7524 119.197 43.8897 118.703 43.5746C118.21 43.2595 118.072 42.5888 118.388 42.0959C118.897 41.312 119.067 40.3828 118.857 39.4778C118.517 37.999 118.792 36.4879 119.617 35.2193C120.442 33.9506 121.72 33.0941 123.208 32.8032C124.121 32.6254 124.906 32.1002 125.415 31.3164C125.925 30.5326 126.095 29.6033 125.884 28.6983C125.884 28.6821 125.884 28.666 125.876 28.6498C125.553 27.171 125.852 25.66 126.644 24.4398L126.653 24.4317Z" fill="#5B82B6" stroke="#5B82B6" stroke-width="0.5" stroke-miterlimit="10"/>
<path d="M136.131 40.5132C134.982 41.5071 133.527 42 132.015 41.8626C131.085 41.7899 130.187 42.0889 129.483 42.6949C128.78 43.3091 128.376 44.1656 128.319 45.0868C128.246 46.6059 127.567 47.9796 126.427 48.9816C125.982 49.3776 125.303 49.3291 124.914 48.8847C124.526 48.4402 124.567 47.7615 125.011 47.3736C125.715 46.7595 126.127 45.911 126.176 44.9817C126.257 43.4707 126.928 42.0889 128.068 41.095C129.176 40.1253 130.599 39.6324 132.071 39.7375C133.017 39.8021 133.988 39.5435 134.699 38.9213C135.411 38.2991 135.832 37.4507 135.872 36.5214C135.872 36.5052 135.88 36.4891 135.872 36.4648C135.92 35.6325 136.155 34.8406 136.543 34.1457C136.842 33.5962 137.635 33.5639 137.975 34.0972C138.282 34.574 138.363 35.1719 138.177 35.7052C138.072 35.9962 138.015 36.3113 137.999 36.6264C137.999 36.6426 137.999 36.6588 137.999 36.6749C137.902 38.1698 137.231 39.5354 136.106 40.5132H136.131Z" fill="#5B82B6" stroke="#5B82B6" stroke-width="0.5" stroke-miterlimit="10"/>
<path d="M112.556 20.6652C112.459 22.1763 112.952 23.6308 113.971 24.7621C114.594 25.457 114.901 26.3539 114.836 27.2751C114.772 28.2044 114.343 29.0448 113.631 29.6508C112.467 30.6286 111.78 32.0023 111.674 33.5052C111.634 34.1032 112.079 34.6123 112.669 34.6446C113.259 34.685 113.777 34.2406 113.809 33.6507C113.874 32.7214 114.303 31.873 115.014 31.275C116.171 30.2973 116.866 28.9236 116.971 27.4125C117.076 25.9418 116.599 24.5116 115.637 23.4045C115.014 22.6934 114.634 21.7642 114.699 20.8187C114.764 19.8733 115.184 19.0329 115.904 18.435C115.912 18.4188 115.92 18.4107 115.944 18.3946C116.575 17.8532 117.06 17.1906 117.392 16.4633C117.651 15.8896 117.19 15.2431 116.567 15.2916C116.001 15.332 115.475 15.631 115.16 16.0997C114.99 16.3583 114.78 16.5926 114.529 16.8027C114.513 16.8027 114.505 16.8269 114.489 16.835C113.356 17.8128 112.677 19.1703 112.572 20.6652H112.556Z" fill="#5B82B6" stroke="#5B82B6" stroke-width="0.5" stroke-miterlimit="10"/>
<path d="M77.3164 71.9837C75.8042 71.9837 74.389 71.3857 73.3296 70.3029C73.2003 70.1736 73.0709 70.0524 72.9415 69.9554C72.9415 69.9554 72.9253 69.9474 72.9172 69.9393C71.5586 68.9211 69.6502 69.0666 68.4452 70.2706C68.4372 70.2787 68.4291 70.2867 68.421 70.3029C67.3616 71.3938 65.9464 71.9917 64.4342 71.9917C62.9139 71.9917 61.4987 71.3938 60.4474 70.3029C59.8005 69.6322 58.9271 69.2686 57.9971 69.2686C57.4068 69.2686 56.9297 68.7918 56.9297 68.202C56.9297 67.6121 57.4068 67.1353 57.9971 67.1353C59.5175 67.1353 60.9326 67.7333 61.9839 68.8242C62.6309 69.4949 63.5042 69.8585 64.4342 69.8585C65.3561 69.8585 66.2133 69.5029 66.8602 68.8484C66.8683 68.8403 66.8764 68.8322 66.8845 68.8161C68.8334 66.804 71.9872 66.5616 74.2192 68.2504C74.2192 68.2504 74.2273 68.2585 74.2354 68.2666C74.4456 68.4282 74.6559 68.6141 74.858 68.8161C75.5131 69.4868 76.3784 69.8585 77.3164 69.8585C78.2545 69.8585 79.1198 69.4868 79.7667 68.8242C79.7667 68.8242 79.7667 68.8242 79.7748 68.8161C79.8395 68.7514 79.9042 68.6868 79.9689 68.6221C82.1604 66.5778 85.6458 66.6667 87.7403 68.8242C87.7484 68.8322 87.7564 68.8403 87.7645 68.8484C87.9505 69.0343 88.1527 69.1959 88.3629 69.3332C88.8643 69.6484 89.0099 70.311 88.6945 70.8039C88.3791 71.3049 87.716 71.4503 87.2227 71.1352C86.8588 70.9009 86.5111 70.6261 86.2038 70.311C86.1957 70.3029 86.1876 70.2948 86.1795 70.2787C84.8937 68.9777 82.7669 68.9292 81.4245 70.1817C81.376 70.2221 81.3355 70.2625 81.3032 70.3029C81.3032 70.3029 81.3032 70.3029 81.2951 70.311C80.2438 71.3938 78.8287 71.9917 77.3164 71.9917V71.9837Z" fill="#5B82B6"/>
<path d="M73.8149 49.3368H54.7706C54.1802 49.3368 53.7031 48.86 53.7031 48.2702C53.7031 47.6803 54.1802 47.2035 54.7706 47.2035H72.7475V20.5942H54.7706C54.1802 20.5942 53.7031 20.1175 53.7031 19.5276C53.7031 18.9377 54.1802 18.4609 54.7706 18.4609H73.8149C74.4053 18.4609 74.8824 18.9377 74.8824 19.5276V48.2621C74.8824 48.852 74.4053 49.3287 73.8149 49.3287V49.3368Z" fill="#5B82B6" stroke="#5B82B6" stroke-width="0.5" stroke-miterlimit="10"/>
<path d="M80.8167 53.0939H76.3366C74.3554 53.0939 72.7461 51.4859 72.7461 49.5061V18.2909C72.7461 16.3112 74.3554 14.7031 76.3366 14.7031H80.8167C82.7979 14.7031 84.4072 16.3112 84.4072 18.2909V35.3732C84.4072 35.9631 83.9301 36.4399 83.3398 36.4399C82.7494 36.4399 82.2723 35.9631 82.2723 35.3732V18.2909C82.2723 17.4909 81.6173 16.8445 80.8248 16.8445H76.3447C75.5441 16.8445 74.8972 17.4909 74.8972 18.2909V49.5061C74.8972 50.3061 75.5441 50.9526 76.3447 50.9526H80.8248C81.6254 50.9526 82.2723 50.298 82.2723 49.5061V33.9026C82.2723 33.3127 82.7494 32.8359 83.3398 32.8359C83.9301 32.8359 84.4072 33.3127 84.4072 33.9026V49.5061C84.4072 51.4859 82.7979 53.0939 80.8167 53.0939Z" fill="#5B82B6" stroke="#5B82B6" stroke-width="0.5" stroke-miterlimit="10"/>
</g>
<path d="M0.5 8C0.5 3.85787 3.85786 0.5 8 0.5H184C188.142 0.5 191.5 3.85786 191.5 8V97.5H0.5V8Z" stroke="#D0CECE"/>
<path d="M0.368243 98.3682H191.632V137.108C191.632 140.159 189.159 142.632 186.108 142.632H5.89189C2.84126 142.632 0.368243 140.159 0.368243 137.108V98.3682Z" fill="white"/>
<path d="M68.7637 119.138C68.7258 118.802 68.5695 118.541 68.2949 118.357C68.0203 118.17 67.6747 118.076 67.258 118.076C66.9597 118.076 66.7016 118.123 66.4838 118.218C66.266 118.31 66.0968 118.438 65.976 118.602C65.8577 118.763 65.7985 118.946 65.7985 119.152C65.7985 119.325 65.8387 119.474 65.9192 119.599C66.0021 119.725 66.1098 119.83 66.2424 119.915C66.3773 119.998 66.5217 120.068 66.6756 120.125C66.8295 120.179 66.9775 120.224 67.1195 120.26L67.8297 120.445C68.0617 120.501 68.2997 120.578 68.5435 120.675C68.7873 120.772 69.0134 120.9 69.2218 121.059C69.4301 121.218 69.5982 121.414 69.726 121.648C69.8562 121.883 69.9213 122.163 69.9213 122.49C69.9213 122.902 69.8148 123.268 69.6017 123.587C69.391 123.907 69.0845 124.159 68.682 124.344C68.2819 124.528 67.7978 124.621 67.2296 124.621C66.6851 124.621 66.214 124.534 65.8162 124.362C65.4185 124.189 65.1072 123.944 64.8823 123.626C64.6574 123.307 64.5331 122.928 64.5094 122.49H65.6103C65.6316 122.753 65.7168 122.972 65.8659 123.147C66.0175 123.32 66.2104 123.449 66.4448 123.534C66.6815 123.617 66.9408 123.658 67.2225 123.658C67.5326 123.658 67.8084 123.61 68.0499 123.513C68.2937 123.413 68.4855 123.276 68.6252 123.101C68.7649 122.923 68.8347 122.716 68.8347 122.479C68.8347 122.264 68.7731 122.088 68.65 121.95C68.5293 121.813 68.3648 121.699 68.1564 121.609C67.9505 121.519 67.7173 121.44 67.4569 121.371L66.5975 121.137C66.0151 120.978 65.5534 120.745 65.2125 120.438C64.874 120.13 64.7047 119.723 64.7047 119.216C64.7047 118.797 64.8184 118.431 65.0456 118.119C65.2729 117.806 65.5807 117.563 65.9689 117.391C66.3572 117.215 66.7952 117.128 67.2828 117.128C67.7753 117.128 68.2097 117.214 68.5861 117.387C68.9649 117.56 69.2632 117.798 69.481 118.101C69.6988 118.402 69.8124 118.747 69.8219 119.138H68.7637ZM71.1474 124.5V119.045H72.1665V119.933H72.234C72.3477 119.633 72.5335 119.398 72.7915 119.23C73.0496 119.06 73.3585 118.974 73.7184 118.974C74.083 118.974 74.3884 119.06 74.6346 119.23C74.8832 119.401 75.0666 119.635 75.185 119.933H75.2418C75.372 119.642 75.5792 119.41 75.8633 119.237C76.1474 119.062 76.4859 118.974 76.8789 118.974C77.3737 118.974 77.7773 119.129 78.0898 119.44C78.4047 119.75 78.5621 120.217 78.5621 120.842V124.5H77.5004V120.942C77.5004 120.572 77.3997 120.305 77.1985 120.139C76.9973 119.973 76.757 119.891 76.4776 119.891C76.132 119.891 75.8633 119.997 75.6715 120.21C75.4798 120.421 75.3839 120.692 75.3839 121.023V124.5H74.3256V120.874C74.3256 120.578 74.2333 120.34 74.0487 120.161C73.864 119.981 73.6237 119.891 73.3278 119.891C73.1265 119.891 72.9407 119.944 72.7702 120.05C72.6022 120.155 72.466 120.3 72.3619 120.487C72.2601 120.674 72.2092 120.891 72.2092 121.137V124.5H71.1474ZM82.3361 124.61C81.7987 124.61 81.3359 124.495 80.9476 124.266C80.5617 124.034 80.2634 123.708 80.0527 123.289C79.8444 122.868 79.7402 122.374 79.7402 121.808C79.7402 121.25 79.8444 120.757 80.0527 120.331C80.2634 119.905 80.557 119.572 80.9334 119.333C81.3122 119.094 81.7549 118.974 82.2615 118.974C82.5693 118.974 82.8676 119.025 83.1564 119.127C83.4453 119.229 83.7045 119.389 83.9341 119.607C84.1638 119.824 84.3449 120.107 84.4775 120.455C84.61 120.801 84.6763 121.221 84.6763 121.716V122.092H80.3404V121.297H83.6358C83.6358 121.018 83.579 120.77 83.4654 120.555C83.3517 120.337 83.1919 120.165 82.986 120.04C82.7824 119.914 82.5433 119.852 82.2686 119.852C81.9703 119.852 81.7099 119.925 81.4874 120.072C81.2672 120.216 81.0968 120.406 80.976 120.64C80.8577 120.872 80.7985 121.124 80.7985 121.396V122.018C80.7985 122.382 80.8624 122.692 80.9902 122.948C81.1204 123.204 81.3016 123.399 81.5336 123.534C81.7656 123.667 82.0366 123.733 82.3468 123.733C82.548 123.733 82.7315 123.705 82.8972 123.648C83.0629 123.589 83.2061 123.501 83.3269 123.385C83.4476 123.269 83.54 123.126 83.6039 122.955L84.6088 123.136C84.5283 123.432 84.3839 123.692 84.1756 123.914C83.9696 124.134 83.7104 124.306 83.3979 124.429C83.0878 124.55 82.7338 124.61 82.3361 124.61ZM86.9162 117.227V124.5H85.8544V117.227H86.9162ZM89.4064 117.227V124.5H88.3446V117.227H89.4064ZM91.506 126.545C91.3474 126.545 91.203 126.532 91.0728 126.506C90.9426 126.483 90.8455 126.457 90.7816 126.428L91.0373 125.558C91.2314 125.61 91.4042 125.633 91.5558 125.626C91.7073 125.619 91.841 125.562 91.957 125.455C92.0754 125.349 92.1796 125.175 92.2695 124.933L92.4009 124.571L90.4052 119.045H91.5415L92.9229 123.278H92.9798L94.3612 119.045H95.5011L93.2532 125.228C93.149 125.512 93.0165 125.752 92.8555 125.949C92.6945 126.148 92.5027 126.297 92.2802 126.396C92.0576 126.496 91.7996 126.545 91.506 126.545ZM101.187 124.607C100.747 124.607 100.354 124.494 100.008 124.269C99.6651 124.042 99.3952 123.719 99.1987 123.3C99.0046 122.878 98.9075 122.373 98.9075 121.783C98.9075 121.194 99.0057 120.69 99.2022 120.271C99.4011 119.852 99.6734 119.531 100.019 119.308C100.365 119.086 100.756 118.974 101.194 118.974C101.533 118.974 101.805 119.031 102.011 119.145C102.22 119.256 102.381 119.386 102.494 119.536C102.61 119.685 102.7 119.816 102.764 119.93H102.828V117.227H103.89V124.5H102.853V123.651H102.764C102.7 123.767 102.608 123.9 102.487 124.049C102.369 124.198 102.205 124.328 101.997 124.44C101.789 124.551 101.519 124.607 101.187 124.607ZM101.422 123.701C101.727 123.701 101.985 123.621 102.196 123.46C102.409 123.296 102.57 123.07 102.679 122.781C102.79 122.492 102.846 122.156 102.846 121.773C102.846 121.394 102.791 121.062 102.682 120.778C102.573 120.494 102.414 120.273 102.203 120.114C101.992 119.956 101.732 119.876 101.422 119.876C101.102 119.876 100.836 119.959 100.623 120.125C100.41 120.291 100.249 120.517 100.14 120.803C100.033 121.09 99.9799 121.413 99.9799 121.773C99.9799 122.137 100.034 122.465 100.143 122.756C100.252 123.048 100.413 123.278 100.626 123.449C100.842 123.617 101.107 123.701 101.422 123.701ZM105.405 124.5V119.045H106.431V119.912H106.488C106.588 119.618 106.763 119.388 107.014 119.219C107.267 119.049 107.554 118.964 107.873 118.964C107.94 118.964 108.018 118.966 108.108 118.971C108.2 118.976 108.272 118.982 108.324 118.989V120.004C108.282 119.992 108.206 119.979 108.097 119.965C107.988 119.949 107.879 119.94 107.77 119.94C107.519 119.94 107.296 119.994 107.099 120.1C106.905 120.204 106.751 120.35 106.637 120.537C106.524 120.722 106.467 120.932 106.467 121.169V124.5H105.405ZM110.782 124.621C110.436 124.621 110.123 124.557 109.844 124.429C109.565 124.299 109.343 124.111 109.18 123.864C109.019 123.618 108.939 123.316 108.939 122.959C108.939 122.651 108.998 122.398 109.116 122.199C109.234 122 109.394 121.843 109.596 121.727C109.797 121.611 110.022 121.523 110.27 121.464C110.519 121.405 110.772 121.36 111.03 121.329C111.357 121.291 111.622 121.26 111.826 121.237C112.029 121.21 112.177 121.169 112.27 121.112C112.362 121.055 112.408 120.963 112.408 120.835V120.81C112.408 120.5 112.32 120.26 112.145 120.089C111.972 119.919 111.714 119.834 111.371 119.834C111.014 119.834 110.732 119.913 110.526 120.072C110.322 120.228 110.181 120.402 110.103 120.594L109.105 120.366C109.224 120.035 109.397 119.768 109.624 119.564C109.854 119.358 110.118 119.209 110.416 119.116C110.714 119.022 111.028 118.974 111.357 118.974C111.575 118.974 111.806 119 112.049 119.053C112.296 119.102 112.525 119.195 112.738 119.33C112.954 119.464 113.13 119.657 113.267 119.908C113.405 120.157 113.473 120.48 113.473 120.878V124.5H112.436V123.754H112.394C112.325 123.892 112.222 124.027 112.085 124.159C111.948 124.292 111.771 124.402 111.556 124.489C111.34 124.577 111.082 124.621 110.782 124.621ZM111.012 123.768C111.306 123.768 111.557 123.71 111.765 123.594C111.976 123.478 112.136 123.327 112.245 123.14C112.356 122.951 112.412 122.748 112.412 122.533V121.83C112.374 121.867 112.3 121.903 112.191 121.936C112.085 121.967 111.963 121.994 111.826 122.018C111.688 122.039 111.555 122.059 111.424 122.078C111.294 122.095 111.185 122.109 111.098 122.121C110.892 122.147 110.703 122.191 110.533 122.252C110.365 122.314 110.23 122.402 110.128 122.518C110.029 122.632 109.979 122.784 109.979 122.973C109.979 123.236 110.076 123.435 110.27 123.57C110.464 123.702 110.712 123.768 111.012 123.768ZM114.888 124.5V119.045H115.949V124.5H114.888ZM115.424 118.204C115.239 118.204 115.081 118.142 114.948 118.019C114.818 117.894 114.753 117.745 114.753 117.572C114.753 117.397 114.818 117.247 114.948 117.124C115.081 116.999 115.239 116.936 115.424 116.936C115.608 116.936 115.766 116.999 115.896 117.124C116.029 117.247 116.095 117.397 116.095 117.572C116.095 117.745 116.029 117.894 115.896 118.019C115.766 118.142 115.608 118.204 115.424 118.204ZM118.44 121.261V124.5H117.378V119.045H118.397V119.933H118.464C118.59 119.644 118.786 119.412 119.054 119.237C119.324 119.062 119.664 118.974 120.073 118.974C120.445 118.974 120.77 119.053 121.05 119.209C121.329 119.363 121.546 119.592 121.7 119.898C121.853 120.203 121.93 120.581 121.93 121.031V124.5H120.869V121.158C120.869 120.763 120.766 120.454 120.56 120.232C120.354 120.007 120.071 119.894 119.711 119.894C119.465 119.894 119.246 119.947 119.054 120.054C118.865 120.161 118.714 120.317 118.603 120.523C118.494 120.726 118.44 120.973 118.44 121.261ZM127.442 120.377L126.479 120.548C126.439 120.424 126.375 120.307 126.288 120.196C126.202 120.085 126.086 119.994 125.94 119.923C125.793 119.852 125.609 119.816 125.389 119.816C125.089 119.816 124.838 119.884 124.636 120.018C124.435 120.151 124.335 120.323 124.335 120.533C124.335 120.716 124.402 120.862 124.537 120.974C124.672 121.085 124.89 121.176 125.19 121.247L126.057 121.446C126.559 121.562 126.933 121.741 127.179 121.982C127.425 122.224 127.548 122.537 127.548 122.923C127.548 123.25 127.454 123.541 127.264 123.797C127.077 124.05 126.816 124.249 126.479 124.393C126.146 124.538 125.759 124.61 125.318 124.61C124.707 124.61 124.209 124.48 123.823 124.219C123.437 123.957 123.201 123.584 123.113 123.101L124.139 122.945C124.203 123.212 124.335 123.415 124.533 123.552C124.732 123.687 124.991 123.754 125.311 123.754C125.659 123.754 125.937 123.682 126.146 123.538C126.354 123.391 126.458 123.212 126.458 123.001C126.458 122.831 126.394 122.688 126.266 122.572C126.141 122.456 125.948 122.368 125.688 122.309L124.764 122.107C124.255 121.991 123.879 121.806 123.635 121.553C123.393 121.299 123.273 120.978 123.273 120.59C123.273 120.268 123.363 119.987 123.543 119.745C123.723 119.504 123.971 119.315 124.288 119.18C124.606 119.043 124.969 118.974 125.379 118.974C125.968 118.974 126.432 119.102 126.771 119.358C127.109 119.611 127.333 119.951 127.442 120.377Z" fill="#787373"/>
<path d="M0.368243 98.3682H191.632V137.108C191.632 140.159 189.159 142.632 186.108 142.632H5.89189C2.84126 142.632 0.368243 140.159 0.368243 137.108V98.3682Z" stroke="#D0CECE" stroke-width="0.736486"/>
<defs>
<clipPath id="clip0_17965_223167">
<rect width="85" height="69" fill="white" transform="translate(53.5 14.5)"/>
</clipPath>
</defs>
</svg>
