<svg width="412" height="297" viewBox="0 0 412 297" fill="none" xmlns="http://www.w3.org/2000/svg">
<g clip-path="url(#clip0_17856_226687)">
<path opacity="0.74" d="M363.189 107.496V131.463H302.399V107.496C302.399 97.3549 294.134 89.0729 283.947 89.0729H278.988C268.834 89.0729 260.535 97.3549 260.535 107.496V157.965C260.535 201.606 225.012 237.1 181.326 237.1H176.367C132.681 237.1 97.125 201.606 97.125 157.965V13.082H157.915V157.965C157.915 168.14 166.18 176.422 176.367 176.422H181.326C191.48 176.422 199.779 168.14 199.779 157.965V107.496C199.779 63.8891 235.302 28.3613 278.988 28.3613H283.947C327.633 28.3613 363.189 63.8891 363.189 107.496Z" fill="#86A3C9"/>
<path fill-rule="evenodd" clip-rule="evenodd" d="M96.2812 12.2383H158.758V157.966C158.758 167.674 166.644 175.578 176.367 175.578H181.326C191.016 175.578 198.935 167.673 198.935 157.966V107.497C198.935 63.4216 234.837 27.5176 278.987 27.5176H283.946C328.096 27.5176 364.032 63.4211 364.032 107.497V132.309H301.556V107.497C301.556 97.8249 293.67 89.9194 283.946 89.9194H278.987C269.296 89.9194 261.378 97.826 261.378 107.497V157.966C261.378 202.076 225.476 237.946 181.326 237.946H176.367C132.218 237.946 96.2812 202.077 96.2812 157.966V12.2383ZM97.968 13.9285V157.966C97.968 201.138 133.144 236.256 176.367 236.256H181.326C224.549 236.256 259.691 201.138 259.691 157.966V107.497C259.691 96.8865 268.37 88.2292 278.987 88.2292H283.946C294.598 88.2292 303.242 96.8875 303.242 107.497V130.619H362.345V107.497C362.345 64.3598 327.169 29.2078 283.946 29.2078H278.987C235.765 29.2078 200.622 64.3593 200.622 107.497V157.966C200.622 168.61 191.944 177.268 181.326 177.268H176.367C165.714 177.268 157.071 168.609 157.071 157.966V13.9285H97.968Z" fill="#190F0F"/>
<path d="M369.157 133.119V138.663C369.157 141.435 366.897 143.699 364.131 143.699H301.452C298.686 143.699 296.426 141.435 296.426 138.663V133.119C296.426 130.347 298.686 128.082 301.452 128.082H302.397H363.186H364.131C366.897 128.082 369.157 130.347 369.157 133.119Z" fill="white"/>
<path fill-rule="evenodd" clip-rule="evenodd" d="M301.452 128.928C299.151 128.928 297.269 130.815 297.269 133.12V138.664C297.269 140.969 299.151 142.856 301.452 142.856H364.131C366.431 142.856 368.314 140.969 368.314 138.664V133.12C368.314 130.815 366.431 128.928 364.131 128.928H301.452ZM295.582 133.12C295.582 129.882 298.22 127.238 301.452 127.238H364.131C367.363 127.238 370 129.882 370 133.12V138.664C370 141.903 367.363 144.546 364.131 144.546H301.452C298.22 144.546 295.582 141.903 295.582 138.664V133.12Z" fill="#190F0F"/>
<path d="M158.857 0.84375H96.1788C93.4028 0.84375 91.1523 3.09879 91.1523 5.88051V11.4243C91.1523 14.2061 93.4028 16.4611 96.1788 16.4611H158.857C161.634 16.4611 163.884 14.2061 163.884 11.4243V5.88051C163.884 3.09879 161.634 0.84375 158.857 0.84375Z" fill="white"/>
<path fill-rule="evenodd" clip-rule="evenodd" d="M96.1784 1.69019C93.8681 1.69019 91.9953 3.56686 91.9953 5.88186V11.4257C91.9953 13.7407 93.8681 15.6173 96.1784 15.6173H158.857C161.167 15.6173 163.04 13.7407 163.04 11.4257V5.88186C163.04 3.56686 161.167 1.69019 158.857 1.69019H96.1784ZM90.3086 5.88186C90.3086 2.6334 92.9366 0 96.1784 0H158.857C162.099 0 164.727 2.6334 164.727 5.88186V11.4257C164.727 14.6741 162.099 17.3075 158.857 17.3075H96.1784C92.9366 17.3075 90.3086 14.6741 90.3086 11.4257V5.88186Z" fill="#190F0F"/>
<path fill-rule="evenodd" clip-rule="evenodd" d="M51.1399 79.573C46.8807 79.573 43.4484 83.0166 43.4484 87.2465V228.817H58.7976V87.2465C58.7976 83.0123 55.3948 79.573 51.1399 79.573ZM41.7617 87.2465C41.7617 82.0788 45.9535 77.8828 51.1399 77.8828C56.3307 77.8828 60.4844 82.0832 60.4844 87.2465V231.079L59.3088 230.574C59.2085 230.531 59.0937 230.507 58.8988 230.507H43.3472C43.1524 230.507 43.0376 230.531 42.9373 230.574L41.7617 231.079V87.2465Z" fill="#190F0F"/>
<path d="M61.8007 232.533V248.117C61.8007 249.74 60.485 251.024 58.8995 251.024H57.9887C56.4706 253.154 53.9743 254.54 51.1406 254.54C48.3069 254.54 45.7768 253.154 44.2587 251.024H43.3479C41.7624 251.024 40.4805 249.74 40.4805 248.117V232.533C40.4805 231.215 41.3913 230.1 42.6057 229.795C42.8419 229.694 43.078 229.66 43.3479 229.66H58.8995C59.1694 229.66 59.4055 229.694 59.6417 229.795C60.8898 230.1 61.8007 231.215 61.8007 232.533Z" fill="#190F0F"/>
<path opacity="0.74" d="M101.406 291.116C101.406 293.888 99.1798 296.152 96.4136 296.152H5.83646C3.07023 296.152 0.84375 293.888 0.84375 291.116C0.84375 288.344 3.07023 286.113 5.83646 286.113H7.21957C7.82679 266.067 21.7591 249.368 40.4818 244.703V248.117C40.4818 249.74 41.7637 251.024 43.3492 251.024H44.2601C45.7781 253.154 48.3082 254.54 51.1419 254.54C53.9756 254.54 56.4719 253.154 57.99 251.024H58.9008C60.4863 251.024 61.802 249.74 61.802 248.117V244.703C80.4909 249.368 94.457 266.067 95.0305 286.113H96.4136C99.1798 286.113 101.406 288.378 101.406 291.116Z" fill="white"/>
<path fill-rule="evenodd" clip-rule="evenodd" d="M60.9582 243.621L62.0055 243.882C80.7982 248.573 94.9056 265.201 95.8422 285.267H96.4132C99.6489 285.267 102.249 287.914 102.249 291.115C102.249 294.346 99.6526 296.997 96.4132 296.997H5.83607C2.59669 296.997 0 294.346 0 291.115C0 287.876 2.60406 285.267 5.83607 285.267H6.40838C7.37651 265.202 21.4503 248.573 40.2779 243.882L41.3248 243.622V248.117C41.3248 249.279 42.2355 250.179 43.3488 250.179H44.6937L44.9459 250.533C46.3087 252.444 48.5852 253.694 51.1415 253.694C53.6941 253.694 55.9384 252.447 57.3033 250.533L57.5556 250.179H58.9004C60.0266 250.179 60.9582 249.266 60.9582 248.117V243.621ZM39.638 245.798C21.8057 250.725 8.64635 266.852 8.06216 286.138L8.03734 286.957H5.83607C3.53562 286.957 1.68673 288.81 1.68673 291.115C1.68673 293.428 3.54299 295.307 5.83607 295.307H96.4132C98.7063 295.307 100.563 293.428 100.563 291.115C100.563 288.84 98.71 286.957 96.4132 286.957H94.2106L94.1871 286.136C93.6354 266.854 80.4466 250.726 62.645 245.798V248.117C62.645 250.212 60.9453 251.869 58.9004 251.869H58.4106C56.722 254.012 54.0967 255.385 51.1415 255.385C48.1896 255.385 45.5326 254.014 43.839 251.869H43.3488C41.2911 251.869 39.638 250.2 39.638 248.117V245.798Z" fill="#190F0F"/>
<g clip-path="url(#clip1_17856_226687)">
<path d="M166.4 227.842L176.13 232.539C177.175 233.031 178.35 233.13 179.428 232.769L189.582 229.517C191.182 228.991 192.39 227.612 192.652 225.936L195.035 211.32C195.296 209.612 194.611 207.904 193.239 206.918L180.767 197.853C179.003 196.572 176.587 196.736 175.02 198.247L164.833 208.002C163.919 208.889 163.396 210.137 163.429 211.418L163.821 223.9C163.886 225.575 164.866 227.119 166.367 227.842H166.4Z" fill="#190F0F"/>
<path d="M157.091 228.14L160.422 225.677C161.336 224.987 161.989 223.969 162.185 222.852L162.903 218.845C163.197 217.169 162.544 215.461 161.205 214.443L156.504 210.83C155.132 209.779 153.304 209.615 151.802 210.37L146.545 212.998C144.619 213.95 143.606 216.184 144.194 218.286L145.663 223.574C146.023 224.823 146.872 225.841 148.014 226.399L152.455 228.6C153.957 229.355 155.753 229.191 157.124 228.173L157.091 228.14Z" fill="#190F0F"/>
<path d="M205.383 226.134L209.53 222.291C211.13 220.813 211.456 218.415 210.314 216.543L208.028 212.864C207.734 212.371 207.342 211.977 206.918 211.649L203.62 209.185C201.367 207.477 198.135 208.265 196.894 210.827L194.772 215.196C194.445 215.886 194.282 216.609 194.315 217.364L194.608 224.295C194.739 227.415 197.906 229.484 200.779 228.302L204.045 226.988C204.534 226.791 204.991 226.495 205.383 226.134Z" fill="#190F0F"/>
</g>
<rect width="115" height="79" rx="10" transform="matrix(-1 0 0 1 412 198)" fill="white"/>
<path d="M307.979 277H401.021C403.93 276.992 406.717 275.833 408.774 273.775C410.831 271.718 411.991 268.93 412 266.02V208.984C411.992 206.073 410.833 203.284 408.776 201.226C406.718 199.168 403.931 198.008 401.021 198H307.979C305.069 198.008 302.282 199.168 300.224 201.226C298.167 203.284 297.008 206.073 297 208.984V266.02C297.009 268.93 298.169 271.718 300.226 273.775C302.283 275.833 305.07 276.992 307.979 277ZM401.021 199.523C403.528 199.531 405.929 200.531 407.702 202.304C409.474 204.077 410.473 206.48 410.481 208.987V266.02C410.478 268.529 409.481 270.934 407.707 272.708C405.933 274.482 403.529 275.479 401.021 275.481H307.979C305.471 275.479 303.067 274.482 301.293 272.708C299.519 270.934 298.522 268.529 298.519 266.02V208.984C298.527 206.476 299.526 204.073 301.298 202.3C303.071 200.527 305.472 199.527 307.979 199.519L401.021 199.523Z" fill="#190F0F"/>
<path d="M358.179 250.735H397.854C398.05 250.735 398.239 250.657 398.377 250.518C398.516 250.379 398.594 250.191 398.594 249.994C398.594 249.798 398.516 249.61 398.377 249.471C398.239 249.332 398.05 249.254 397.854 249.254H358.179C357.983 249.254 357.795 249.332 357.657 249.471C357.518 249.61 357.44 249.798 357.44 249.994C357.44 250.191 357.518 250.379 357.657 250.518C357.795 250.657 357.983 250.735 358.179 250.735Z" fill="#190F0F"/>
<path d="M371.974 258.215H397.854C398.05 258.215 398.238 258.137 398.377 257.998C398.516 257.859 398.594 257.671 398.594 257.475C398.594 257.278 398.516 257.09 398.377 256.951C398.238 256.812 398.05 256.734 397.854 256.734H371.974C371.778 256.734 371.59 256.812 371.451 256.951C371.312 257.09 371.234 257.278 371.234 257.475C371.234 257.671 371.312 257.859 371.451 257.998C371.59 258.137 371.778 258.215 371.974 258.215Z" fill="#190F0F"/>
<path d="M315.689 214.148H344.136C347.066 214.148 349.441 216.527 349.441 219.46V252.902C349.441 255.836 347.066 258.214 344.136 258.214H315.689C312.759 258.214 310.384 255.836 310.384 252.902V219.46C310.384 216.527 312.759 214.148 315.689 214.148Z" fill="#190F0F"/>
<g clip-path="url(#clip2_17856_226687)">
<path d="M338.868 252.189C337.94 252.725 336.748 252.406 336.212 251.478L324.346 230.926C324.021 230.362 323.459 229.971 322.812 229.876L319.434 229.368C318.825 229.278 318.276 228.941 317.924 228.437L317.22 227.447C316.623 226.598 316.439 225.529 316.708 224.525L317.069 223.159L317.385 221.977L319.399 225.19C319.664 225.603 320.211 225.738 320.635 225.493L322.969 224.145C323.406 223.893 323.557 223.328 323.305 222.891L321.429 219.642L322.803 219.724L323.642 219.77C324.713 219.833 325.674 220.426 326.21 221.355L327.033 222.78C327.263 223.178 327.366 223.631 327.325 224.097L327.081 227.119C327.049 227.553 327.14 227.987 327.358 228.365L339.58 249.533C339.848 249.997 339.903 250.522 339.774 251.003C339.645 251.484 339.339 251.918 338.868 252.189Z" fill="white"/>
</g>
<path d="M98 17H157V64L129 69L98 74V17Z" fill="white"/>
</g>
<defs>
<clipPath id="clip0_17856_226687">
<rect width="412" height="296.999" fill="white"/>
</clipPath>
<clipPath id="clip1_17856_226687">
<rect width="67" height="36" fill="white" transform="matrix(-1 0 0 1 211 197)"/>
</clipPath>
<clipPath id="clip2_17856_226687">
<rect width="36.9062" height="10.8476" fill="white" transform="translate(324.273 218) rotate(60)"/>
</clipPath>
</defs>
</svg>
