<svg width="192" height="143" viewBox="0 0 192 143" fill="none" xmlns="http://www.w3.org/2000/svg">
<path d="M0.5 8C0.5 3.85787 3.85786 0.5 8 0.5H184C188.142 0.5 191.5 3.85786 191.5 8V97.5H0.5V8Z" fill="#F4F9FF"/>
<g clip-path="url(#clip0_17965_223109)">
<mask id="mask0_17965_223109" style="mask-type:luminance" maskUnits="userSpaceOnUse" x="61" y="14" width="70" height="70">
<path d="M130.5 14.6836H61.5V83.3201H130.5V14.6836Z" fill="white"/>
</mask>
<g mask="url(#mask0_17965_223109)">
<path d="M119.111 51.9525H101.188C100.633 51.9525 100.18 51.5018 100.18 50.9492V19.7065C100.18 19.1539 100.633 18.7031 101.188 18.7031H119.111C122.641 18.7031 125.514 21.5606 125.514 25.0724V26.9482C125.514 27.5008 125.061 27.9516 124.505 27.9516C123.95 27.9516 123.496 27.5008 123.496 26.9482V25.0724C123.496 22.673 121.53 20.7171 119.118 20.7171H102.204V49.9385H119.118C121.53 49.9385 123.496 47.9827 123.496 45.5833V25.0942C123.496 24.5416 123.95 24.0908 124.505 24.0908C125.061 24.0908 125.514 24.5416 125.514 25.0942V45.576C125.514 49.0878 122.641 51.9453 119.111 51.9453V51.9525Z" fill="#5B82B6"/>
<path d="M119.11 52.133H101.188C100.53 52.133 99.9961 51.6023 99.9961 50.9479V19.7125C99.9961 19.0581 100.53 18.5273 101.188 18.5273H119.11C122.743 18.5273 125.696 21.4648 125.696 25.0783V45.5893C125.696 49.2029 122.743 52.1403 119.11 52.1403V52.133ZM101.188 18.8836C100.734 18.8836 100.362 19.2544 100.362 19.7052V50.9406C100.362 51.3914 100.734 51.7622 101.188 51.7622H119.11C122.538 51.7622 125.33 48.9848 125.33 45.5748V27.7976C125.118 28.0012 124.826 28.1321 124.504 28.1321C124.183 28.1321 123.89 28.0085 123.678 27.7976V45.5748C123.678 48.0759 121.632 50.1117 119.117 50.1117H102.021V20.5341H119.117C121.369 20.5341 123.247 22.17 123.613 24.3076C123.832 24.0604 124.153 23.9077 124.504 23.9077C124.797 23.9077 125.06 24.0095 125.272 24.184C124.84 21.1885 122.246 18.8836 119.117 18.8836H101.195H101.188ZM102.379 49.7555H119.11C121.427 49.7555 123.306 47.8796 123.306 45.582V25.0711C123.306 22.7662 121.42 20.8976 119.11 20.8976H102.379V49.7555ZM123.671 25.0929V26.9469C123.671 27.3977 124.044 27.7685 124.497 27.7685C124.95 27.7685 125.323 27.3977 125.323 26.9469V25.0929C125.323 24.6421 124.95 24.2713 124.497 24.2713C124.044 24.2713 123.671 24.6421 123.671 25.0929Z" fill="#5B82B6"/>
<path d="M101.189 51.9537H69.854C67.9974 51.9537 66.4844 50.4486 66.4844 48.6018C66.4844 46.7551 67.9974 45.25 69.854 45.25H101.189C101.745 45.25 102.198 45.7008 102.198 46.2534V50.943C102.198 51.4956 101.745 51.9464 101.189 51.9464V51.9537ZM69.854 47.264C69.1084 47.264 68.5091 47.8675 68.5091 48.6018C68.5091 49.3362 69.1157 49.9397 69.854 49.9397H100.173V47.2567H69.854V47.264Z" fill="#5B82B6"/>
<path d="M101.188 52.1336H69.8531C67.8942 52.1336 66.3008 50.5486 66.3008 48.6C66.3008 46.6514 67.8942 45.0664 69.8531 45.0664H101.188C101.846 45.0664 102.38 45.5972 102.38 46.2515V50.9412C102.38 51.5956 101.846 52.1264 101.188 52.1264V52.1336ZM69.8531 45.4299C68.0989 45.4299 66.6662 46.855 66.6662 48.6C66.6662 50.345 68.0989 51.7701 69.8531 51.7701H101.188C101.641 51.7701 102.014 51.3993 102.014 50.9485V46.2588C102.014 45.808 101.641 45.4372 101.188 45.4372H69.8531V45.4299ZM100.355 50.1196H69.8531C69.0125 50.1196 68.3255 49.4362 68.3255 48.6C68.3255 47.7639 69.0125 47.0804 69.8531 47.0804H100.355V50.1269V50.1196ZM69.8531 47.4367C69.2099 47.4367 68.6909 47.9529 68.6909 48.5927C68.6909 49.2326 69.2099 49.7488 69.8531 49.7488H99.9894V47.4294H69.8531V47.4367Z" fill="#5B82B6"/>
<path d="M96.4657 47.2568C95.9102 47.2568 95.457 46.806 95.457 46.2535V18.0354C95.457 16.1887 96.9701 14.6836 98.8266 14.6836C100.683 14.6836 102.196 16.1887 102.196 18.0354V21.0746C102.196 21.6272 101.743 22.078 101.188 22.078C100.632 22.078 100.179 21.6272 100.179 21.0746V18.0354C100.179 17.2938 99.5722 16.6976 98.8339 16.6976C98.0957 16.6976 97.489 17.3011 97.489 18.0354V46.2535C97.489 46.806 97.0358 47.2568 96.4803 47.2568H96.4657Z" fill="#5B82B6"/>
<path d="M96.4649 47.4368C95.807 47.4368 95.2734 46.906 95.2734 46.2516V18.0336C95.2734 16.085 96.8669 14.5 98.8258 14.5C100.785 14.5 102.378 16.085 102.378 18.0336V21.0728C102.378 21.7272 101.845 22.258 101.187 22.258C100.529 22.258 99.9953 21.7272 99.9953 21.0728V18.0336C99.9953 17.3938 99.4763 16.8776 98.8331 16.8776C98.1899 16.8776 97.6709 17.3938 97.6709 18.0336V46.2516C97.6709 46.906 97.1373 47.4368 96.4795 47.4368H96.4649ZM98.8258 14.8635C97.0715 14.8635 95.6389 16.2886 95.6389 18.0336V46.2516C95.6389 46.7024 96.0117 47.0732 96.4649 47.0732C96.918 47.0732 97.2908 46.7024 97.2908 46.2516V18.0336C97.2908 17.1975 97.9779 16.514 98.8185 16.514C99.659 16.514 100.346 17.1975 100.346 18.0336V21.0728C100.346 21.5236 100.719 21.8944 101.172 21.8944C101.625 21.8944 101.998 21.5236 101.998 21.0728V18.0336C101.998 16.2886 100.565 14.8635 98.8111 14.8635H98.8258Z" fill="#5B82B6"/>
<path d="M116.144 20.7184C115.589 20.7184 115.135 20.2676 115.135 19.715V17.0321C115.135 16.8503 114.982 16.6976 114.799 16.6976H110.889C110.706 16.6976 110.553 16.8503 110.553 17.0321V19.715C110.553 20.2676 110.099 20.7184 109.544 20.7184C108.988 20.7184 108.535 20.2676 108.535 19.715V17.0321C108.535 15.7379 109.595 14.6836 110.896 14.6836H114.807C116.108 14.6836 117.167 15.7379 117.167 17.0321V19.715C117.167 20.2676 116.714 20.7184 116.159 20.7184H116.144Z" fill="#5B82B6"/>
<path d="M116.143 20.8983C115.485 20.8983 114.952 20.3675 114.952 19.7132V17.0302C114.952 16.943 114.886 16.8776 114.798 16.8776H110.888C110.8 16.8776 110.734 16.943 110.734 17.0302V19.7132C110.734 20.3675 110.201 20.8983 109.543 20.8983C108.885 20.8983 108.352 20.3675 108.352 19.7132V17.0302C108.352 15.6342 109.492 14.5 110.895 14.5H114.806C116.209 14.5 117.349 15.6342 117.349 17.0302V19.7132C117.349 20.3675 116.816 20.8983 116.158 20.8983H116.143ZM110.888 16.514H114.798C115.083 16.514 115.317 16.7467 115.317 17.0302V19.7132C115.317 20.164 115.69 20.5348 116.143 20.5348C116.596 20.5348 116.969 20.164 116.969 19.7132V17.0302C116.969 15.8378 115.99 14.8635 114.791 14.8635H110.881C109.682 14.8635 108.702 15.8306 108.702 17.0302V19.7132C108.702 20.164 109.075 20.5348 109.528 20.5348C109.982 20.5348 110.354 20.164 110.354 19.7132V17.0302C110.354 16.7467 110.588 16.514 110.873 16.514H110.888Z" fill="#5B82B6"/>
<path d="M88.7179 68.7074H86.0866C76.6137 68.7074 68.9023 61.0367 68.9023 51.6137V50.9448C68.9023 50.3922 69.3555 49.9414 69.911 49.9414C70.4665 49.9414 70.9197 50.3922 70.9197 50.9448V51.6137C70.9197 59.9315 77.7174 66.6934 86.0793 66.6934H88.7106C89.2661 66.6934 89.7193 67.1441 89.7193 67.6967C89.7193 68.2493 89.2661 68.7001 88.7106 68.7001L88.7179 68.7074Z" fill="#5B82B6"/>
<path d="M88.7171 68.8873H86.0857C76.5105 68.8873 68.7188 61.1366 68.7188 51.6119V50.943C68.7188 50.2886 69.2523 49.7578 69.9102 49.7578C70.568 49.7578 71.1016 50.2886 71.1016 50.943V51.6119C71.1016 59.8279 77.8189 66.5098 86.0784 66.5098H88.7097C89.3676 66.5098 89.9012 67.0405 89.9012 67.6949C89.9012 68.3493 89.3676 68.88 88.7097 68.88L88.7171 68.8873ZM69.9175 50.1214C69.4643 50.1214 69.0915 50.4922 69.0915 50.943V51.6119C69.0915 60.933 76.7151 68.5238 86.093 68.5238H88.7244C89.1775 68.5238 89.5503 68.153 89.5503 67.7022C89.5503 67.2514 89.1775 66.8806 88.7244 66.8806H86.093C77.6361 66.8806 70.7507 60.0315 70.7507 51.6191V50.9502C70.7507 50.4994 70.378 50.1286 69.9248 50.1286L69.9175 50.1214Z" fill="#5B82B6"/>
<path d="M99.1648 68.704H87.5868C87.0313 68.704 86.5781 68.2532 86.5781 67.7006C86.5781 67.1481 87.0313 66.6973 87.5868 66.6973H99.1648C107.527 66.6973 114.324 59.9354 114.324 51.6176V50.9487C114.324 50.3961 114.777 49.9453 115.333 49.9453C115.889 49.9453 116.342 50.3961 116.342 50.9487V51.6176C116.342 61.0406 108.63 68.7113 99.1575 68.7113L99.1648 68.704Z" fill="#5B82B6"/>
<path d="M99.1639 68.884H87.5859C86.9281 68.884 86.3945 68.3532 86.3945 67.6988C86.3945 67.0444 86.9281 66.5137 87.5859 66.5137H99.1639C107.423 66.5137 114.141 59.8318 114.141 51.6158V50.9469C114.141 50.2925 114.674 49.7617 115.332 49.7617C115.99 49.7617 116.524 50.2925 116.524 50.9469V51.6158C116.524 61.1405 108.732 68.8912 99.1566 68.8912L99.1639 68.884ZM87.5859 66.8699C87.1328 66.8699 86.76 67.2408 86.76 67.6915C86.76 68.1423 87.1328 68.5131 87.5859 68.5131H99.1639C108.534 68.5131 116.165 60.9297 116.165 51.6012V50.9323C116.165 50.4815 115.793 50.1107 115.339 50.1107C114.886 50.1107 114.513 50.4815 114.513 50.9323V51.6012C114.513 60.0208 107.628 66.8627 99.1712 66.8627H87.5933L87.5859 66.8699Z" fill="#5B82B6"/>
<path d="M106.716 83.3199H78.275C76.9739 83.3199 75.9141 82.2657 75.9141 80.9715V79.6336C75.9141 78.3394 76.9739 77.2852 78.275 77.2852H106.708C108.009 77.2852 109.069 78.3394 109.069 79.6336V80.9715C109.069 82.2657 108.009 83.3199 106.708 83.3199H106.716ZM78.2823 79.2992C78.0995 79.2992 77.9461 79.4519 77.9461 79.6336V80.9715C77.9461 81.1532 78.0995 81.3059 78.2823 81.3059H106.716C106.898 81.3059 107.052 81.1532 107.052 80.9715V79.6336C107.052 79.4519 106.898 79.2992 106.716 79.2992H78.275H78.2823Z" fill="#5B82B6"/>
<path d="M106.715 83.4999H78.2741C76.8707 83.4999 75.7305 82.3656 75.7305 80.9696V79.6318C75.7305 78.2358 76.8707 77.1016 78.2741 77.1016H106.707C108.111 77.1016 109.251 78.2358 109.251 79.6318V80.9696C109.251 82.3656 108.111 83.4999 106.707 83.4999H106.715ZM78.2814 77.4651C77.0827 77.4651 76.1032 78.4321 76.1032 79.6318V80.9696C76.1032 82.162 77.0827 83.1363 78.2814 83.1363H106.715C107.913 83.1363 108.893 82.1693 108.893 80.9696V79.6318C108.893 78.4394 107.913 77.4651 106.715 77.4651H78.2741H78.2814ZM106.715 81.4859H78.2741C77.9891 81.4859 77.7552 81.2532 77.7552 80.9696V79.6318C77.7552 79.3482 77.9891 79.1156 78.2741 79.1156H106.707C106.992 79.1156 107.226 79.3482 107.226 79.6318V80.9696C107.226 81.2532 106.992 81.4859 106.707 81.4859H106.715ZM78.2814 79.4718C78.1937 79.4718 78.1279 79.5373 78.1279 79.6245V80.9624C78.1279 81.0496 78.1937 81.1151 78.2814 81.1151H106.715C106.802 81.1151 106.868 81.0496 106.868 80.9624V79.6245C106.868 79.5373 106.802 79.4718 106.715 79.4718H78.2741H78.2814Z" fill="#5B82B6"/>
<path d="M105.361 79.2967C104.996 79.2967 104.638 79.0931 104.462 78.7441L99.0753 68.1505C98.8195 67.6561 99.0242 67.0526 99.5212 66.7981C100.018 66.5509 100.625 66.7472 100.881 67.2417L106.268 77.8352C106.524 78.3296 106.319 78.9331 105.822 79.1876C105.676 79.2603 105.522 79.2967 105.369 79.2967H105.361Z" fill="#5B82B6"/>
<path d="M105.36 79.4804C104.907 79.4804 104.497 79.2332 104.293 78.8333L98.8985 68.2397C98.7523 67.9561 98.7304 67.6362 98.8327 67.3308C98.9351 67.0327 99.1397 66.7855 99.4248 66.6401C100.01 66.342 100.733 66.582 101.026 67.1636L106.42 77.7572C106.566 78.0408 106.588 78.3607 106.486 78.666C106.383 78.9641 106.171 79.2114 105.894 79.3568C105.725 79.444 105.543 79.4876 105.353 79.4876L105.36 79.4804ZM99.9657 66.8801C99.8414 66.8801 99.7099 66.9091 99.5929 66.9673C99.3956 67.0691 99.2494 67.2363 99.1836 67.4472C99.1178 67.658 99.1324 67.8762 99.2347 68.0725L104.629 78.666C104.826 79.0587 105.345 79.2259 105.74 79.0296C105.937 78.9278 106.084 78.7606 106.157 78.5497C106.222 78.3389 106.208 78.1207 106.106 77.9244L100.711 67.3308C100.565 67.0473 100.273 66.8801 99.973 66.8801H99.9657Z" fill="#5B82B6"/>
<path d="M79.6274 79.2967C79.4739 79.2967 79.3204 79.2603 79.1743 79.1876C78.6772 78.9331 78.4799 78.3296 78.7284 77.8352L84.1154 67.2417C84.3639 66.7472 84.9779 66.5509 85.4749 66.7981C85.9719 67.0526 86.1693 67.6561 85.9208 68.1505L80.5338 78.7441C80.3584 79.0931 80.0002 79.2967 79.6347 79.2967H79.6274Z" fill="#5B82B6"/>
<path d="M79.6276 79.4798C79.4449 79.4798 79.2548 79.4362 79.0867 79.349C78.8016 79.2035 78.5897 78.9636 78.4946 78.6582C78.3923 78.3529 78.4216 78.0329 78.5604 77.7494L83.9547 67.1558C84.2544 66.5741 84.9707 66.3342 85.5554 66.6323C86.1402 66.9304 86.3814 67.643 86.0817 68.2246L80.6874 78.8182C80.4828 79.2181 80.0735 79.4653 79.6203 79.4653L79.6276 79.4798ZM85.0219 66.8795C84.7222 66.8795 84.4298 67.0467 84.2836 67.3303L78.8893 77.9239C78.787 78.1202 78.7724 78.3456 78.8382 78.5492C78.904 78.76 79.0502 78.9273 79.2475 79.029C79.6495 79.2326 80.1612 79.0581 80.3585 78.6655L85.7528 68.0719C85.9575 67.6648 85.7967 67.1704 85.3873 66.9668C85.2704 66.9086 85.1388 66.8795 85.0146 66.8795H85.0219Z" fill="#5B82B6"/>
<path d="M116.413 83.32H113.716C113.16 83.32 112.707 82.8692 112.707 82.3166V72.3993C112.707 71.105 113.767 70.0508 115.068 70.0508H116.413C117.714 70.0508 118.774 71.105 118.774 72.3993V80.9788C118.774 82.273 117.714 83.3273 116.413 83.3273V83.32ZM114.732 81.306H116.413C116.596 81.306 116.749 81.1533 116.749 80.9715V72.392C116.749 72.2102 116.596 72.0575 116.413 72.0575H115.068C114.885 72.0575 114.732 72.2102 114.732 72.392V81.306Z" fill="#5B82B6"/>
<path d="M116.412 83.5H113.715C113.057 83.5 112.523 82.9692 112.523 82.3148V72.3974C112.523 71.0014 113.664 69.8672 115.067 69.8672H116.412C117.815 69.8672 118.956 71.0014 118.956 72.3974V80.977C118.956 82.373 117.815 83.5072 116.412 83.5072V83.5ZM115.067 70.2307C113.868 70.2307 112.889 71.1977 112.889 72.3974V82.3148C112.889 82.7656 113.262 83.1364 113.715 83.1364H116.412C117.611 83.1364 118.59 82.1694 118.59 80.9697V72.3902C118.59 71.1977 117.611 70.2235 116.412 70.2235H115.067V70.2307ZM116.412 81.4932H114.548V72.3974C114.548 72.1139 114.782 71.8812 115.067 71.8812H116.412C116.697 71.8812 116.931 72.1139 116.931 72.3974V80.977C116.931 81.2605 116.697 81.4932 116.412 81.4932ZM114.914 81.1297H116.412C116.5 81.1297 116.565 81.0642 116.565 80.977V72.3974C116.565 72.3102 116.5 72.2447 116.412 72.2447H115.067C114.979 72.2447 114.914 72.3102 114.914 72.3974V81.1297Z" fill="#5B82B6"/>
<path d="M113.717 83.3192H102.665C102.109 83.3192 101.656 82.8685 101.656 82.3159C101.656 81.7633 102.109 81.3125 102.665 81.3125H113.717C114.272 81.3125 114.725 81.7633 114.725 82.3159C114.725 82.8685 114.272 83.3192 113.717 83.3192Z" fill="#5B82B6"/>
<path d="M113.716 83.4992H102.664C102.006 83.4992 101.473 82.9684 101.473 82.314C101.473 81.6597 102.006 81.1289 102.664 81.1289H113.716C114.374 81.1289 114.907 81.6597 114.907 82.314C114.907 82.9684 114.374 83.4992 113.716 83.4992ZM102.664 81.4852C102.211 81.4852 101.838 81.856 101.838 82.3068C101.838 82.7576 102.211 83.1284 102.664 83.1284H113.716C114.169 83.1284 114.542 82.7576 114.542 82.3068C114.542 81.856 114.169 81.4852 113.716 81.4852H102.664Z" fill="#5B82B6"/>
<path d="M113.717 74.0732H102.665C102.109 74.0732 101.656 73.6224 101.656 73.0698C101.656 72.5172 102.109 72.0664 102.665 72.0664H113.717C114.272 72.0664 114.725 72.5172 114.725 73.0698C114.725 73.6224 114.272 74.0732 113.717 74.0732Z" fill="#5B82B6"/>
<path d="M113.716 74.2531H102.664C102.006 74.2531 101.473 73.7223 101.473 73.068C101.473 72.4136 102.006 71.8828 102.664 71.8828H113.716C114.374 71.8828 114.907 72.4136 114.907 73.068C114.907 73.7223 114.374 74.2531 113.716 74.2531ZM102.664 72.2391C102.211 72.2391 101.838 72.6099 101.838 73.0607C101.838 73.5115 102.211 73.8823 102.664 73.8823H113.716C114.169 73.8823 114.542 73.5115 114.542 73.0607C114.542 72.6099 114.169 72.2391 113.716 72.2391H102.664Z" fill="#5B82B6"/>
<path d="M83.2665 42.5656C83.1496 42.5656 83.0326 42.5438 82.9157 42.5002C82.5209 42.3548 82.2578 41.9767 82.2578 41.555V37.0616C82.2578 33.4408 85.2181 30.4961 88.8581 30.4961C91.1606 30.4961 93.0391 32.3574 93.0391 34.655C93.0391 36.9526 91.1679 38.8139 88.8581 38.8139C87.6521 38.8139 86.5191 39.3374 85.7297 40.2463L84.0267 42.2166C83.8293 42.442 83.5516 42.5656 83.2592 42.5656H83.2665ZM88.8581 32.5101C86.3291 32.5101 84.2752 34.5532 84.2752 37.0689V38.843C85.4374 37.5415 87.1039 36.7999 88.8581 36.7999C90.0496 36.7999 91.0144 35.8401 91.0144 34.655C91.0144 33.4699 90.0496 32.5101 88.8581 32.5101Z" fill="#5B82B6"/>
<path d="M83.2651 42.7461C83.1189 42.7461 82.9801 42.7243 82.8485 42.6734C82.3807 42.4989 82.0664 42.0554 82.0664 41.561V37.0676C82.0664 33.345 85.1144 30.3203 88.8495 30.3203C91.2542 30.3203 93.2131 32.2689 93.2131 34.6537C93.2131 37.0385 91.2542 38.9944 88.8495 38.9944C87.7019 38.9944 86.6128 39.4888 85.8599 40.3613L84.1569 42.3317C83.9303 42.5934 83.6014 42.7461 83.2505 42.7461H83.2651ZM88.8568 30.6839C85.3191 30.6839 82.4392 33.5486 82.4392 37.0676V41.561C82.4392 41.9027 82.6585 42.2154 82.9801 42.3317C83.2944 42.448 83.6745 42.3535 83.8937 42.0918L85.5968 40.1214C86.4155 39.1762 87.6069 38.6308 88.8641 38.6308C91.0642 38.6308 92.8623 36.8495 92.8623 34.6537C92.8623 32.4579 91.0715 30.6839 88.8641 30.6839H88.8568ZM84.0911 39.3216V37.0676C84.0911 34.4574 86.2254 32.3271 88.8568 32.3271C90.1432 32.3271 91.1958 33.3741 91.1958 34.6537C91.1958 35.9334 90.1432 36.9804 88.8568 36.9804C87.161 36.9804 85.5383 37.7002 84.4127 38.9653L84.0911 39.3216ZM88.8568 32.6906C86.4301 32.6906 84.4566 34.6537 84.4566 37.0676V38.3909C85.6334 37.2567 87.2122 36.6168 88.8568 36.6168C89.9459 36.6168 90.8303 35.7371 90.8303 34.6537C90.8303 33.5704 89.9459 32.6906 88.8568 32.6906Z" fill="#5B82B6"/>
<path d="M79.2252 38.5461C78.9328 38.5461 78.6551 38.4225 78.4577 38.1971L76.7546 36.2267C75.9725 35.3179 74.8323 34.7944 73.6262 34.7944C71.3238 34.7944 69.4453 32.933 69.4453 30.6355C69.4453 28.3379 71.3165 26.4766 73.6262 26.4766C77.2663 26.4766 80.2266 29.4212 80.2266 33.0421V37.5355C80.2266 37.9572 79.9634 38.3353 79.5687 38.4807C79.4518 38.5243 79.3348 38.5461 79.2179 38.5461H79.2252ZM73.6336 28.4906C72.4421 28.4906 71.4773 29.4503 71.4773 30.6355C71.4773 31.8206 72.4421 32.7804 73.6336 32.7804C75.3878 32.7804 77.0543 33.522 78.2165 34.8235V33.0494C78.2165 30.5337 76.1626 28.4906 73.6336 28.4906Z" fill="#5B82B6"/>
<path d="M79.2248 38.7266C78.874 38.7266 78.5451 38.5739 78.3185 38.3122L76.6227 36.3418C75.8772 35.4765 74.7881 34.9749 73.6332 34.9749C71.2284 34.9749 69.2695 33.0263 69.2695 30.6342C69.2695 28.2421 71.2284 26.3008 73.6332 26.3008C77.3756 26.3008 80.4162 29.3327 80.4162 33.0481V37.5415C80.4162 38.0359 80.1019 38.4867 79.6341 38.6539C79.5026 38.7048 79.3637 38.7266 79.2175 38.7266H79.2248ZM73.6332 26.6643C71.4331 26.6643 69.635 28.4457 69.635 30.6342C69.635 32.8227 71.4258 34.6113 73.6332 34.6113C74.8904 34.6113 76.0818 35.1566 76.9005 36.1018L78.5962 38.0722C78.8155 38.334 79.1956 38.4285 79.5099 38.3122C79.8315 38.1958 80.0508 37.8832 80.0508 37.5415V33.0481C80.0508 29.529 77.1709 26.6643 73.6332 26.6643ZM78.3989 35.302L78.0773 34.9458C76.9516 33.6879 75.329 32.9608 73.6332 32.9608C72.3468 32.9608 71.2942 31.9138 71.2942 30.6342C71.2942 29.3545 72.3468 28.3075 73.6332 28.3075C76.2572 28.3075 78.3989 30.4306 78.3989 33.0481V35.302ZM73.6332 28.6711C72.5441 28.6711 71.6597 29.5508 71.6597 30.6342C71.6597 31.7175 72.5441 32.5973 73.6332 32.5973C75.2778 32.5973 76.8566 33.2371 78.0334 34.3714V33.0481C78.0334 30.6342 76.0599 28.6711 73.6332 28.6711Z" fill="#5B82B6"/>
</g>
</g>
<path d="M0.5 8C0.5 3.85787 3.85786 0.5 8 0.5H184C188.142 0.5 191.5 3.85786 191.5 8V97.5H0.5V8Z" stroke="#D0CECE"/>
<path d="M0.368243 98.3682H191.632V137.108C191.632 140.159 189.159 142.632 186.108 142.632H5.89189C2.84126 142.632 0.368243 140.159 0.368243 137.108V98.3682Z" fill="white"/>
<path d="M63.8547 124.5V117.227H66.447C67.0104 117.227 67.478 117.324 67.8497 117.518C68.2238 117.713 68.5031 117.981 68.6878 118.325C68.8724 118.665 68.9648 119.06 68.9648 119.507C68.9648 119.952 68.8712 120.344 68.6842 120.683C68.4996 121.019 68.2202 121.28 67.8461 121.467C67.4745 121.654 67.0069 121.748 66.4434 121.748H64.4797V120.803H66.344C66.6991 120.803 66.988 120.752 67.2105 120.651C67.4354 120.549 67.5999 120.401 67.7041 120.207C67.8083 120.013 67.8604 119.779 67.8604 119.507C67.8604 119.232 67.8071 118.995 67.7006 118.793C67.5964 118.592 67.4318 118.438 67.2069 118.332C66.9844 118.223 66.692 118.168 66.3298 118.168H64.952V124.5H63.8547ZM67.4449 121.219L69.2417 124.5H67.9917L66.2304 121.219H67.4449ZM73.67 122.238V119.045H74.7354V124.5H73.6913V123.555H73.6345C73.509 123.847 73.3078 124.089 73.0308 124.283C72.7562 124.475 72.4141 124.571 72.0045 124.571C71.6541 124.571 71.344 124.494 71.0741 124.34C70.8066 124.184 70.5959 123.953 70.442 123.648C70.2905 123.342 70.2148 122.965 70.2148 122.515V119.045H71.2765V122.387C71.2765 122.759 71.3795 123.055 71.5855 123.275C71.7915 123.495 72.059 123.605 72.3881 123.605C72.5869 123.605 72.7846 123.555 72.9811 123.456C73.18 123.357 73.3445 123.206 73.4747 123.005C73.6073 122.804 73.6724 122.548 73.67 122.238ZM77.2238 121.261V124.5H76.162V119.045H77.1812V119.933H77.2487C77.3741 119.644 77.5706 119.412 77.8382 119.237C78.108 119.062 78.4478 118.974 78.8573 118.974C79.229 118.974 79.5545 119.053 79.8339 119.209C80.1133 119.363 80.3299 119.592 80.4838 119.898C80.6376 120.203 80.7146 120.581 80.7146 121.031V124.5H79.6528V121.158C79.6528 120.763 79.5498 120.454 79.3438 120.232C79.1379 120.007 78.855 119.894 78.4951 119.894C78.2489 119.894 78.0299 119.947 77.8382 120.054C77.6488 120.161 77.4984 120.317 77.3872 120.523C77.2783 120.726 77.2238 120.973 77.2238 121.261ZM83.2004 121.261V124.5H82.1386V119.045H83.1578V119.933H83.2252C83.3507 119.644 83.5472 119.412 83.8147 119.237C84.0846 119.062 84.4243 118.974 84.8339 118.974C85.2056 118.974 85.5311 119.053 85.8105 119.209C86.0898 119.363 86.3064 119.592 86.4603 119.898C86.6142 120.203 86.6911 120.581 86.6911 121.031V124.5H85.6294V121.158C85.6294 120.763 85.5264 120.454 85.3204 120.232C85.1144 120.007 84.8315 119.894 84.4717 119.894C84.2255 119.894 84.0065 119.947 83.8147 120.054C83.6253 120.161 83.475 120.317 83.3637 120.523C83.2548 120.726 83.2004 120.973 83.2004 121.261ZM88.1151 124.5V119.045H89.1769V124.5H88.1151ZM88.6514 118.204C88.4667 118.204 88.3081 118.142 88.1755 118.019C88.0453 117.894 87.9802 117.745 87.9802 117.572C87.9802 117.397 88.0453 117.247 88.1755 117.124C88.3081 116.999 88.4667 116.936 88.6514 116.936C88.836 116.936 88.9935 116.999 89.1237 117.124C89.2562 117.247 89.3225 117.397 89.3225 117.572C89.3225 117.745 89.2562 117.894 89.1237 118.019C88.9935 118.142 88.836 118.204 88.6514 118.204ZM91.6672 121.261V124.5H90.6054V119.045H91.6246V119.933H91.692C91.8175 119.644 92.014 119.412 92.2815 119.237C92.5514 119.062 92.8911 118.974 93.3007 118.974C93.6724 118.974 93.9979 119.053 94.2773 119.209C94.5566 119.363 94.7732 119.592 94.9271 119.898C95.081 120.203 95.1579 120.581 95.1579 121.031V124.5H94.0961V121.158C94.0961 120.763 93.9932 120.454 93.7872 120.232C93.5812 120.007 93.2983 119.894 92.9385 119.894C92.6923 119.894 92.4733 119.947 92.2815 120.054C92.0921 120.161 91.9418 120.317 91.8305 120.523C91.7216 120.726 91.6672 120.973 91.6672 121.261ZM98.8689 126.659C98.4356 126.659 98.0628 126.602 97.7503 126.489C97.4401 126.375 97.1868 126.225 96.9903 126.038C96.7938 125.851 96.647 125.646 96.55 125.423L97.4626 125.047C97.5265 125.151 97.6118 125.261 97.7183 125.377C97.8272 125.496 97.974 125.596 98.1586 125.679C98.3457 125.762 98.586 125.803 98.8795 125.803C99.282 125.803 99.6146 125.705 99.8774 125.509C100.14 125.314 100.272 125.004 100.272 124.578V123.506H100.204C100.14 123.622 100.048 123.751 99.9271 123.893C99.8087 124.035 99.6454 124.158 99.4371 124.262C99.2287 124.366 98.9577 124.418 98.6238 124.418C98.193 124.418 97.8047 124.318 97.4591 124.116C97.1158 123.913 96.8435 123.613 96.6423 123.218C96.4434 122.82 96.344 122.331 96.344 121.751C96.344 121.171 96.4423 120.674 96.6388 120.26C96.8376 119.846 97.1099 119.528 97.4555 119.308C97.8012 119.086 98.193 118.974 98.6309 118.974C98.9695 118.974 99.2429 119.031 99.4513 119.145C99.6596 119.256 99.8218 119.386 99.9378 119.536C100.056 119.685 100.147 119.816 100.211 119.93H100.289V119.045H101.33V124.621C101.33 125.089 101.221 125.474 101.003 125.775C100.785 126.076 100.491 126.298 100.119 126.442C99.7496 126.587 99.3329 126.659 98.8689 126.659ZM98.8582 123.538C99.1636 123.538 99.4217 123.467 99.6324 123.325C99.8454 123.18 100.006 122.974 100.115 122.707C100.227 122.437 100.282 122.114 100.282 121.737C100.282 121.37 100.228 121.047 100.119 120.768C100.01 120.488 99.8502 120.271 99.6395 120.114C99.4288 119.956 99.1684 119.876 98.8582 119.876C98.5386 119.876 98.2723 119.959 98.0592 120.125C97.8461 120.288 97.6852 120.511 97.5763 120.793C97.4697 121.074 97.4165 121.389 97.4165 121.737C97.4165 122.095 97.4709 122.408 97.5798 122.678C97.6887 122.948 97.8497 123.159 98.0628 123.31C98.2782 123.462 98.5434 123.538 98.8582 123.538ZM107.946 119.045V119.898H104.967V119.045H107.946ZM105.766 117.739H106.828V122.898C106.828 123.104 106.859 123.259 106.92 123.364C106.982 123.465 107.061 123.535 107.158 123.573C107.258 123.609 107.365 123.626 107.481 123.626C107.566 123.626 107.641 123.621 107.705 123.609C107.769 123.597 107.819 123.587 107.854 123.58L108.046 124.457C107.984 124.481 107.897 124.505 107.783 124.528C107.669 124.554 107.527 124.569 107.357 124.571C107.078 124.576 106.817 124.526 106.576 124.422C106.334 124.318 106.139 124.157 105.99 123.939C105.841 123.721 105.766 123.448 105.766 123.119V117.739ZM111.36 124.61C110.849 124.61 110.402 124.493 110.021 124.259C109.64 124.024 109.344 123.696 109.133 123.275C108.923 122.853 108.817 122.361 108.817 121.798C108.817 121.232 108.923 120.737 109.133 120.313C109.344 119.889 109.64 119.56 110.021 119.326C110.402 119.092 110.849 118.974 111.36 118.974C111.871 118.974 112.318 119.092 112.699 119.326C113.08 119.56 113.376 119.889 113.587 120.313C113.797 120.737 113.903 121.232 113.903 121.798C113.903 122.361 113.797 122.853 113.587 123.275C113.376 123.696 113.08 124.024 112.699 124.259C112.318 124.493 111.871 124.61 111.36 124.61ZM111.364 123.719C111.695 123.719 111.97 123.631 112.187 123.456C112.405 123.281 112.566 123.048 112.67 122.756C112.777 122.465 112.83 122.144 112.83 121.794C112.83 121.446 112.777 121.126 112.67 120.835C112.566 120.542 112.405 120.306 112.187 120.129C111.97 119.951 111.695 119.862 111.364 119.862C111.03 119.862 110.753 119.951 110.533 120.129C110.315 120.306 110.153 120.542 110.046 120.835C109.942 121.126 109.89 121.446 109.89 121.794C109.89 122.144 109.942 122.465 110.046 122.756C110.153 123.048 110.315 123.281 110.533 123.456C110.753 123.631 111.03 123.719 111.364 123.719ZM115.088 124.5V119.045H116.15V124.5H115.088ZM115.624 118.204C115.439 118.204 115.281 118.142 115.148 118.019C115.018 117.894 114.953 117.745 114.953 117.572C114.953 117.397 115.018 117.247 115.148 117.124C115.281 116.999 115.439 116.936 115.624 116.936C115.809 116.936 115.966 116.999 116.096 117.124C116.229 117.247 116.295 117.397 116.295 117.572C116.295 117.745 116.229 117.894 116.096 118.019C115.966 118.142 115.809 118.204 115.624 118.204ZM118.64 117.227V124.5H117.578V117.227H118.64ZM122.419 124.61C121.882 124.61 121.419 124.495 121.031 124.266C120.645 124.034 120.346 123.708 120.136 123.289C119.927 122.868 119.823 122.374 119.823 121.808C119.823 121.25 119.927 120.757 120.136 120.331C120.346 119.905 120.64 119.572 121.016 119.333C121.395 119.094 121.838 118.974 122.345 118.974C122.652 118.974 122.951 119.025 123.239 119.127C123.528 119.229 123.787 119.389 124.017 119.607C124.247 119.824 124.428 120.107 124.56 120.455C124.693 120.801 124.759 121.221 124.759 121.716V122.092H120.423V121.297H123.719C123.719 121.018 123.662 120.77 123.548 120.555C123.435 120.337 123.275 120.165 123.069 120.04C122.865 119.914 122.626 119.852 122.352 119.852C122.053 119.852 121.793 119.925 121.57 120.072C121.35 120.216 121.18 120.406 121.059 120.64C120.941 120.872 120.881 121.124 120.881 121.396V122.018C120.881 122.382 120.945 122.692 121.073 122.948C121.203 123.204 121.385 123.399 121.617 123.534C121.849 123.667 122.12 123.733 122.43 123.733C122.631 123.733 122.814 123.705 122.98 123.648C123.146 123.589 123.289 123.501 123.41 123.385C123.531 123.269 123.623 123.126 123.687 122.955L124.692 123.136C124.611 123.432 124.467 123.692 124.259 123.914C124.053 124.134 123.793 124.306 123.481 124.429C123.171 124.55 122.817 124.61 122.419 124.61ZM128.484 119.045V119.898H125.504V119.045H128.484ZM126.303 117.739H127.365V122.898C127.365 123.104 127.396 123.259 127.457 123.364C127.519 123.465 127.598 123.535 127.695 123.573C127.795 123.609 127.902 123.626 128.018 123.626C128.104 123.626 128.178 123.621 128.242 123.609C128.306 123.597 128.356 123.587 128.391 123.58L128.583 124.457C128.521 124.481 128.434 124.505 128.32 124.528C128.207 124.554 128.065 124.569 127.894 124.571C127.615 124.576 127.354 124.526 127.113 124.422C126.871 124.318 126.676 124.157 126.527 123.939C126.378 123.721 126.303 123.448 126.303 123.119V117.739Z" fill="#787373"/>
<path d="M0.368243 98.3682H191.632V137.108C191.632 140.159 189.159 142.632 186.108 142.632H5.89189C2.84126 142.632 0.368243 140.159 0.368243 137.108V98.3682Z" stroke="#D0CECE" stroke-width="0.736486"/>
<defs>
<clipPath id="clip0_17965_223109">
<rect width="69" height="69" fill="white" transform="translate(61.5 14.5)"/>
</clipPath>
</defs>
</svg>
