<svg width="192" height="143" viewBox="0 0 192 143" fill="none" xmlns="http://www.w3.org/2000/svg">
<path d="M0.5 8C0.5 3.85787 3.85786 0.5 8 0.5H184C188.142 0.5 191.5 3.85786 191.5 8V97.5H0.5V8Z" fill="#F5F9F3"/>
<g clip-path="url(#clip0_17965_223274)">
<path d="M114.144 63.5089L107.738 61.3742L105.439 56.7746C107.51 54.6655 108.95 51.8759 109.434 48.9663L109.721 47.248H112.174C114.403 47.248 116.217 45.4341 116.217 43.2051V34.7148C116.217 23.5684 107.148 14.5 96 14.5C84.8521 14.5 75.7826 23.5428 75.7826 34.7148V43.2051C75.7826 44.9624 76.9094 46.4597 78.4783 47.0163V48.5957C78.4783 50.8247 80.2924 52.6387 82.5217 52.6387H83.7051C84.2901 53.9082 85.0462 55.0833 85.9654 56.1385C86.1568 56.3582 86.355 56.5711 86.5598 56.7773L84.2618 61.3742L77.8556 63.5089C70.4061 65.9926 65 73.8333 65 82.1523C65 82.8962 65.6038 83.5 66.3478 83.5H125.652C126.396 83.5 127 82.8962 127 82.1523C127 73.8333 121.594 65.9926 114.144 63.5089ZM113.522 43.2051C113.522 43.9476 112.917 44.5527 112.174 44.5527H110.117C110.459 41.8992 110.689 39.0759 110.78 36.2943C110.783 36.2161 110.786 36.1393 110.787 36.0625H113.522V43.2051ZM79.8261 44.5527C79.0834 44.5527 78.4783 43.9476 78.4783 43.2051V36.0625H81.2143C81.2184 36.2027 81.2238 36.3442 81.2292 36.487C81.2292 36.4924 81.2292 36.4964 81.2292 36.5018C81.3235 39.2079 81.5486 41.9585 81.8842 44.5541H79.8274L79.8261 44.5527ZM82.5217 49.9434C81.7791 49.9434 81.1739 49.3383 81.1739 48.5957V47.248H82.2791L82.5662 48.9677C82.6215 49.2938 82.6875 49.6199 82.7657 49.9434H82.5217ZM81.1766 33.3672H78.5295C79.2128 24.3352 86.7512 17.1953 96 17.1953C105.249 17.1953 112.78 24.3338 113.471 33.3672H110.823C110.726 25.9241 104.665 19.8906 97.2063 19.8906H94.7937C87.3348 19.8906 81.2723 25.9241 81.1766 33.3672ZM94.7937 22.5859H97.2063C103.246 22.5859 108.134 27.5251 108.13 33.5572C108.13 33.9817 108.128 34.351 108.12 34.6865C108.12 34.6906 108.12 34.696 108.12 34.7L106.434 34.4588C101.854 33.8052 97.5298 31.6435 94.2573 28.3714C94.0039 28.1181 93.6615 27.9766 93.3043 27.9766C89.6841 27.9766 86.2202 29.6261 83.9289 32.4117C84.4936 26.924 89.1328 22.5859 94.7937 22.5859ZM85.5597 49.9434C84.8845 47.6995 84.1135 41.096 83.9423 36.8644L85.7565 34.4453C87.4224 32.2244 90.0143 30.8457 92.772 30.6867C96.4003 34.1394 101.093 36.4183 106.053 37.1271L108.037 37.4102C107.905 40.2241 107.634 43.0487 107.245 45.647C107.245 45.647 107.245 45.6484 107.245 45.6497C107.121 46.4853 107.024 47.0216 106.776 48.5229C106.062 52.8031 102.867 56.6749 98.6498 57.7288C96.9138 58.1614 95.0862 58.1614 93.3515 57.7288C90.7179 57.0711 88.3039 55.2491 86.7458 52.6373H89.494C90.0507 54.206 91.5481 55.3326 93.3057 55.3326H96.0013C98.236 55.3326 100.045 53.5241 100.045 51.2897C100.045 49.0553 98.2307 47.2467 96.0013 47.2467H93.3057C91.509 47.2467 90.0332 48.407 89.4914 49.942H85.5611L85.5597 49.9434ZM93.1911 60.4578C94.1157 60.6532 95.0579 60.7516 96 60.7516C96.7373 60.7516 97.4745 60.6896 98.2037 60.5696L95.8221 63.0884L93.1911 60.4578ZM93.9702 65.0479L89.6949 69.5679C88.5182 67.316 87.506 64.9711 86.6771 62.5709L88.2823 59.3608L93.9702 65.0479ZM103.49 58.9039L105.323 62.5709C104.493 64.9751 103.48 67.32 102.305 69.5693L97.7293 64.994L103.49 58.9039ZM91.9565 51.291C91.9565 50.5471 92.5603 49.9434 93.3043 49.9434H96C96.7427 49.9434 97.3478 50.5485 97.3478 51.291C97.3478 52.0336 96.744 52.6387 96 52.6387H93.3043C92.5617 52.6387 91.9565 52.0336 91.9565 51.291ZM67.7496 80.8047C68.2833 74.1284 72.7271 68.0599 78.7074 66.0667L84.3804 64.176C85.4196 67.0505 86.7081 69.8429 88.2163 72.4964C88.219 72.5004 88.2217 72.5058 88.2244 72.5099C89.3269 74.4491 90.5683 76.3439 91.9134 78.1431L93.5712 80.8047H67.7496ZM96 79.6039L94.1723 76.6701C94.1521 76.6377 94.1306 76.6054 94.1063 76.5744C93.0146 75.1189 91.997 73.5961 91.0697 72.0382L95.876 66.9562L100.941 72.0207C100.007 73.5907 98.9854 75.1189 97.8937 76.5757C97.8277 76.6633 97.9207 76.5245 96 79.6066V79.6039ZM98.4274 80.8047L100.085 78.1431C101.437 76.3372 102.687 74.4276 103.8 72.4654C103.807 72.4533 103.813 72.4411 103.82 72.429C103.82 72.4277 103.821 72.4263 103.823 72.425C105.312 69.797 106.587 67.0276 107.618 64.176L113.291 66.0667C119.272 68.0613 123.715 74.1284 124.249 80.8047H98.4261H98.4274Z" fill="#7DB164"/>
</g>
<path d="M0.5 8C0.5 3.85787 3.85786 0.5 8 0.5H184C188.142 0.5 191.5 3.85786 191.5 8V97.5H0.5V8Z" stroke="#D0CECE"/>
<path d="M0.368243 98.3682H191.632V137.108C191.632 140.159 189.159 142.632 186.108 142.632H5.89189C2.84126 142.632 0.368243 140.159 0.368243 137.108V98.3682Z" fill="white"/>
<path d="M72.4258 119.138C72.3879 118.802 72.2317 118.541 71.957 118.357C71.6824 118.17 71.3368 118.076 70.9201 118.076C70.6218 118.076 70.3638 118.123 70.146 118.218C69.9281 118.31 69.7589 118.438 69.6381 118.602C69.5198 118.763 69.4606 118.946 69.4606 119.152C69.4606 119.325 69.5008 119.474 69.5813 119.599C69.6642 119.725 69.7719 119.83 69.9045 119.915C70.0394 119.998 70.1838 120.068 70.3377 120.125C70.4916 120.179 70.6396 120.224 70.7816 120.26L71.4918 120.445C71.7238 120.501 71.9618 120.578 72.2056 120.675C72.4495 120.772 72.6755 120.9 72.8839 121.059C73.0922 121.218 73.2603 121.414 73.3881 121.648C73.5183 121.883 73.5835 122.163 73.5835 122.49C73.5835 122.902 73.4769 123.268 73.2638 123.587C73.0531 123.907 72.7466 124.159 72.3441 124.344C71.944 124.528 71.4599 124.621 70.8917 124.621C70.3472 124.621 69.8761 124.534 69.4783 124.362C69.0806 124.189 68.7693 123.944 68.5444 123.626C68.3195 123.307 68.1952 122.928 68.1715 122.49H69.2724C69.2937 122.753 69.3789 122.972 69.5281 123.147C69.6796 123.32 69.8725 123.449 70.1069 123.534C70.3436 123.617 70.6029 123.658 70.8846 123.658C71.1947 123.658 71.4705 123.61 71.712 123.513C71.9558 123.413 72.1476 123.276 72.2873 123.101C72.427 122.923 72.4968 122.716 72.4968 122.479C72.4968 122.264 72.4353 122.088 72.3121 121.95C72.1914 121.813 72.0269 121.699 71.8185 121.609C71.6126 121.519 71.3794 121.44 71.119 121.371L70.2596 121.137C69.6772 120.978 69.2156 120.745 68.8746 120.438C68.5361 120.13 68.3668 119.723 68.3668 119.216C68.3668 118.797 68.4805 118.431 68.7077 118.119C68.935 117.806 69.2428 117.563 69.631 117.391C70.0193 117.215 70.4573 117.128 70.945 117.128C71.4374 117.128 71.8718 117.214 72.2482 117.387C72.627 117.56 72.9253 117.798 73.1431 118.101C73.3609 118.402 73.4746 118.747 73.484 119.138H72.4258ZM77.1603 124.61C76.6229 124.61 76.1601 124.495 75.7718 124.266C75.3859 124.034 75.0877 123.708 74.877 123.289C74.6686 122.868 74.5645 122.374 74.5645 121.808C74.5645 121.25 74.6686 120.757 74.877 120.331C75.0877 119.905 75.3812 119.572 75.7576 119.333C76.1364 119.094 76.5791 118.974 77.0858 118.974C77.3935 118.974 77.6918 119.025 77.9806 119.127C78.2695 119.229 78.5287 119.389 78.7583 119.607C78.988 119.824 79.1691 120.107 79.3017 120.455C79.4342 120.801 79.5005 121.221 79.5005 121.716V122.092H75.1646V121.297H78.46C78.46 121.018 78.4032 120.77 78.2896 120.555C78.176 120.337 78.0162 120.165 77.8102 120.04C77.6066 119.914 77.3675 119.852 77.0929 119.852C76.7946 119.852 76.5342 119.925 76.3116 120.072C76.0914 120.216 75.921 120.406 75.8002 120.64C75.6819 120.872 75.6227 121.124 75.6227 121.396V122.018C75.6227 122.382 75.6866 122.692 75.8145 122.948C75.9447 123.204 76.1258 123.399 76.3578 123.534C76.5898 123.667 76.8609 123.733 77.171 123.733C77.3722 123.733 77.5557 123.705 77.7214 123.648C77.8871 123.589 78.0304 123.501 78.1511 123.385C78.2718 123.269 78.3642 123.126 78.4281 122.955L79.4331 123.136C79.3526 123.432 79.2082 123.692 78.9998 123.914C78.7939 124.134 78.5346 124.306 78.2221 124.429C77.912 124.55 77.5581 124.61 77.1603 124.61ZM80.6786 124.5V119.045H81.7049V119.912H81.7617C81.8612 119.618 82.0363 119.388 82.2873 119.219C82.5406 119.049 82.8271 118.964 83.1467 118.964C83.2129 118.964 83.2911 118.966 83.381 118.971C83.4734 118.976 83.5456 118.982 83.5977 118.989V120.004C83.555 119.992 83.4793 119.979 83.3704 119.965C83.2615 119.949 83.1526 119.94 83.0437 119.94C82.7927 119.94 82.569 119.994 82.3725 120.1C82.1784 120.204 82.0245 120.35 81.9109 120.537C81.7972 120.722 81.7404 120.932 81.7404 121.169V124.5H80.6786ZM89.3487 119.045L87.3707 124.5H86.2344L84.2528 119.045H85.3928L86.7741 123.243H86.831L88.2088 119.045H89.3487ZM90.3466 124.5V119.045H91.4084V124.5H90.3466ZM90.8828 118.204C90.6982 118.204 90.5395 118.142 90.407 118.019C90.2768 117.894 90.2116 117.745 90.2116 117.572C90.2116 117.397 90.2768 117.247 90.407 117.124C90.5395 116.999 90.6982 116.936 90.8828 116.936C91.0675 116.936 91.2249 116.999 91.3551 117.124C91.4877 117.247 91.554 117.397 91.554 117.572C91.554 117.745 91.4877 117.894 91.3551 118.019C91.2249 118.142 91.0675 118.204 90.8828 118.204ZM95.1344 124.61C94.6065 124.61 94.1519 124.491 93.7708 124.251C93.392 124.01 93.1008 123.677 92.8972 123.254C92.6936 122.83 92.5918 122.344 92.5918 121.798C92.5918 121.244 92.696 120.755 92.9043 120.331C93.1126 119.905 93.4062 119.572 93.785 119.333C94.1638 119.094 94.61 118.974 95.1238 118.974C95.5381 118.974 95.9074 119.051 96.2317 119.205C96.556 119.357 96.8176 119.57 97.0165 119.844C97.2177 120.119 97.3373 120.44 97.3752 120.807H96.3418C96.285 120.551 96.1548 120.331 95.9512 120.146C95.7499 119.962 95.4801 119.869 95.1415 119.869C94.8456 119.869 94.5864 119.947 94.3638 120.104C94.1436 120.258 93.972 120.478 93.8489 120.764C93.7258 121.048 93.6642 121.384 93.6642 121.773C93.6642 122.17 93.7246 122.514 93.8453 122.803C93.9661 123.091 94.1365 123.315 94.3567 123.474C94.5792 123.632 94.8408 123.712 95.1415 123.712C95.3427 123.712 95.525 123.675 95.6884 123.602C95.8541 123.526 95.9926 123.418 96.1039 123.278C96.2175 123.139 96.2968 122.971 96.3418 122.774H97.3752C97.3373 123.127 97.2225 123.442 97.0307 123.719C96.839 123.996 96.5821 124.214 96.2601 124.372C95.9405 124.531 95.5653 124.61 95.1344 124.61ZM100.862 124.61C100.324 124.61 99.8613 124.495 99.473 124.266C99.0871 124.034 98.7888 123.708 98.5781 123.289C98.3698 122.868 98.2656 122.374 98.2656 121.808C98.2656 121.25 98.3698 120.757 98.5781 120.331C98.7888 119.905 99.0824 119.572 99.4588 119.333C99.8376 119.094 100.28 118.974 100.787 118.974C101.095 118.974 101.393 119.025 101.682 119.127C101.971 119.229 102.23 119.389 102.46 119.607C102.689 119.824 102.87 120.107 103.003 120.455C103.135 120.801 103.202 121.221 103.202 121.716V122.092H98.8658V121.297H102.161C102.161 121.018 102.104 120.77 101.991 120.555C101.877 120.337 101.717 120.165 101.511 120.04C101.308 119.914 101.069 119.852 100.794 119.852C100.496 119.852 100.235 119.925 100.013 120.072C99.7926 120.216 99.6222 120.406 99.5014 120.64C99.383 120.872 99.3239 121.124 99.3239 121.396V122.018C99.3239 122.382 99.3878 122.692 99.5156 122.948C99.6458 123.204 99.8269 123.399 100.059 123.534C100.291 123.667 100.562 123.733 100.872 123.733C101.073 123.733 101.257 123.705 101.423 123.648C101.588 123.589 101.732 123.501 101.852 123.385C101.973 123.269 102.065 123.126 102.129 122.955L103.134 123.136C103.054 123.432 102.909 123.692 102.701 123.914C102.495 124.134 102.236 124.306 101.923 124.429C101.613 124.55 101.259 124.61 100.862 124.61ZM113.152 119.592H112.044C112.001 119.356 111.922 119.147 111.806 118.967C111.69 118.787 111.548 118.635 111.38 118.509C111.212 118.384 111.024 118.289 110.815 118.225C110.609 118.161 110.39 118.129 110.158 118.129C109.739 118.129 109.364 118.235 109.033 118.445C108.704 118.656 108.443 118.965 108.251 119.372C108.062 119.779 107.967 120.277 107.967 120.864C107.967 121.455 108.062 121.955 108.251 122.362C108.443 122.769 108.705 123.077 109.036 123.286C109.368 123.494 109.741 123.598 110.155 123.598C110.384 123.598 110.602 123.567 110.808 123.506C111.017 123.442 111.205 123.348 111.373 123.225C111.541 123.102 111.683 122.952 111.799 122.774C111.917 122.594 111.999 122.388 112.044 122.156L113.152 122.16C113.093 122.517 112.978 122.846 112.808 123.147C112.639 123.445 112.423 123.703 112.158 123.921C111.895 124.137 111.594 124.304 111.256 124.422C110.917 124.54 110.548 124.599 110.148 124.599C109.518 124.599 108.957 124.45 108.464 124.152C107.972 123.851 107.584 123.422 107.3 122.863C107.018 122.304 106.877 121.638 106.877 120.864C106.877 120.087 107.019 119.421 107.303 118.864C107.587 118.306 107.976 117.877 108.468 117.579C108.96 117.278 109.52 117.128 110.148 117.128C110.534 117.128 110.893 117.183 111.227 117.295C111.563 117.404 111.865 117.565 112.133 117.778C112.4 117.988 112.622 118.246 112.797 118.552C112.972 118.855 113.09 119.202 113.152 119.592ZM115.967 124.621C115.622 124.621 115.309 124.557 115.03 124.429C114.75 124.299 114.529 124.111 114.366 123.864C114.205 123.618 114.124 123.316 114.124 122.959C114.124 122.651 114.183 122.398 114.302 122.199C114.42 122 114.58 121.843 114.781 121.727C114.982 121.611 115.207 121.523 115.456 121.464C115.704 121.405 115.958 121.36 116.216 121.329C116.542 121.291 116.808 121.26 117.011 121.237C117.215 121.21 117.363 121.169 117.455 121.112C117.547 121.055 117.594 120.963 117.594 120.835V120.81C117.594 120.5 117.506 120.26 117.331 120.089C117.158 119.919 116.9 119.834 116.557 119.834C116.199 119.834 115.917 119.913 115.711 120.072C115.508 120.228 115.367 120.402 115.289 120.594L114.291 120.366C114.409 120.035 114.582 119.768 114.809 119.564C115.039 119.358 115.303 119.209 115.601 119.116C115.9 119.022 116.213 118.974 116.542 118.974C116.76 118.974 116.991 119 117.235 119.053C117.481 119.102 117.711 119.195 117.924 119.33C118.139 119.464 118.316 119.657 118.453 119.908C118.59 120.157 118.659 120.48 118.659 120.878V124.5H117.622V123.754H117.579C117.511 123.892 117.408 124.027 117.27 124.159C117.133 124.292 116.957 124.402 116.741 124.489C116.526 124.577 116.268 124.621 115.967 124.621ZM116.198 123.768C116.492 123.768 116.742 123.71 116.951 123.594C117.162 123.478 117.321 123.327 117.43 123.14C117.541 122.951 117.597 122.748 117.597 122.533V121.83C117.559 121.867 117.486 121.903 117.377 121.936C117.27 121.967 117.148 121.994 117.011 122.018C116.874 122.039 116.74 122.059 116.61 122.078C116.48 122.095 116.371 122.109 116.283 122.121C116.077 122.147 115.889 122.191 115.719 122.252C115.55 122.314 115.416 122.402 115.314 122.518C115.214 122.632 115.165 122.784 115.165 122.973C115.165 123.236 115.262 123.435 115.456 123.57C115.65 123.702 115.897 123.768 116.198 123.768ZM121.135 117.227V124.5H120.073V117.227H121.135ZM123.625 117.227V124.5H122.563V117.227H123.625Z" fill="#787373"/>
<path d="M0.368243 98.3682H191.632V137.108C191.632 140.159 189.159 142.632 186.108 142.632H5.89189C2.84126 142.632 0.368243 140.159 0.368243 137.108V98.3682Z" stroke="#D0CECE" stroke-width="0.736486"/>
<defs>
<clipPath id="clip0_17965_223274">
<rect width="62" height="69" fill="white" transform="translate(65 14.5)"/>
</clipPath>
</defs>
</svg>
