<svg width="192" height="143" viewBox="0 0 192 143" fill="none" xmlns="http://www.w3.org/2000/svg">
<path d="M0.5 8C0.5 3.85787 3.85786 0.5 8 0.5H184C188.142 0.5 191.5 3.85786 191.5 8V97.5H0.5V8Z" fill="#F5F9F3"/>
<g clip-path="url(#clip0_17965_223091)">
<path d="M108.764 30.1088V56.4475C108.764 61.8855 104.334 66.3158 98.8869 66.3158C93.4402 66.3158 89.0099 61.8855 89.0099 56.4475V43.7646C89.0099 40.8632 87.3247 36.9193 85.4657 34.4436C85.3093 34.3046 85.0921 34.0527 84.901 33.8268C84.4232 33.2448 83.8673 32.7323 83.2244 32.3327C80.8964 30.8906 77.9081 30.491 75.8232 30.491H68.2656C67.701 30.491 67.2492 30.0306 67.2579 29.466C67.2666 28.9013 67.7531 28.4844 68.309 28.4844H75.8319C78.6899 28.4844 83.9976 29.6832 85.9 31.7941C86.0043 31.9157 86.4647 32.3935 86.5689 32.5498C86.6471 32.6715 86.7948 32.8539 86.8903 32.9755C89.0794 35.764 91.0253 40.3333 91.0253 43.7733V56.4562C91.0253 60.7909 94.5522 64.3178 98.8956 64.3178C103.239 64.3178 106.757 60.7909 106.757 56.4562V30.1609C106.757 29.605 107.183 29.1272 107.73 29.1098C108.277 29.0925 108.764 29.5529 108.764 30.1175V30.1088Z" fill="#7DB164" stroke="#7DB164" stroke-width="0.5" stroke-miterlimit="10"/>
<path d="M125.842 30.1593V56.4979C125.842 64.3335 122.593 71.283 116.608 76.3909C116.504 76.4778 114.688 77.859 114.558 77.9024L113.107 78.8319C109.051 81.1774 103.752 83.2796 99.0433 83.2796C84.2669 83.2796 72.2442 71.2657 72.2442 56.5066V47.4114H68.2656C67.701 47.4114 67.2492 46.951 67.2579 46.3777C67.2666 45.8044 67.7531 45.4048 68.3004 45.4048C69.3775 45.4048 71.8533 45.4048 73.2432 45.4048C73.7992 45.4048 74.2509 45.8565 74.2509 46.4125V56.5066C74.2509 70.1624 85.3701 81.273 99.0433 81.273C102.171 81.273 107.687 79.6572 111.544 77.4942C115.401 75.3311 118.589 72.3776 120.752 68.4511C122.75 64.8287 123.836 60.7371 123.836 56.5066V30.2027C123.836 29.6554 124.261 29.169 124.809 29.1603C125.356 29.1516 125.842 29.6033 125.842 30.168V30.1593Z" fill="#7DB164" stroke="#7DB164" stroke-width="0.5" stroke-miterlimit="10"/>
<path d="M127.955 25.4905H113.848C113.292 25.4905 112.84 25.0388 112.84 24.4828C112.84 23.9269 113.292 23.4751 113.848 23.4751H127.955C128.129 23.4751 128.268 23.3361 128.268 23.1624V17.0468C128.268 16.8731 128.129 16.7341 127.955 16.7341H104.805C104.631 16.7341 104.492 16.8731 104.492 17.0468V23.1711C104.492 23.3448 104.631 23.4838 104.805 23.4838H115.854C116.41 23.4838 116.862 23.9355 116.862 24.4915C116.862 25.0475 116.41 25.4992 115.854 25.4992H104.805C103.519 25.4992 102.477 24.4568 102.477 23.1711V17.0468C102.477 15.7612 103.519 14.7188 104.805 14.7188H127.955C129.241 14.7188 130.283 15.7612 130.283 17.0468V23.1711C130.283 24.4568 129.241 25.4992 127.955 25.4992V25.4905Z" fill="#7DB164" stroke="#7DB164" stroke-width="0.5" stroke-miterlimit="10"/>
<path d="M108.453 21.6759C107.897 21.6759 107.445 21.2242 107.445 20.6682V19.5389C107.445 18.983 107.897 18.5312 108.453 18.5312C109.009 18.5312 109.461 18.983 109.461 19.5389V20.6682C109.461 21.2242 109.009 21.6759 108.453 21.6759Z" fill="#7DB164" stroke="#7DB164" stroke-width="0.5" stroke-miterlimit="10"/>
<path d="M113.734 21.6759C113.178 21.6759 112.727 21.2242 112.727 20.6682V19.5389C112.727 18.983 113.178 18.5312 113.734 18.5312C114.29 18.5312 114.742 18.983 114.742 19.5389V20.6682C114.742 21.2242 114.29 21.6759 113.734 21.6759Z" fill="#7DB164" stroke="#7DB164" stroke-width="0.5" stroke-miterlimit="10"/>
<path d="M119.015 21.6759C118.46 21.6759 118.008 21.2242 118.008 20.6682V19.5389C118.008 18.983 118.46 18.5312 119.015 18.5312C119.571 18.5312 120.023 18.983 120.023 19.5389V20.6682C120.023 21.2242 119.571 21.6759 119.015 21.6759Z" fill="#7DB164" stroke="#7DB164" stroke-width="0.5" stroke-miterlimit="10"/>
<path d="M124.297 21.6759C123.741 21.6759 123.289 21.2242 123.289 20.6682V19.5389C123.289 18.983 123.741 18.5312 124.297 18.5312C124.853 18.5312 125.304 18.983 125.304 19.5389V20.6682C125.304 21.2242 124.853 21.6759 124.297 21.6759Z" fill="#7DB164" stroke="#7DB164" stroke-width="0.5" stroke-miterlimit="10"/>
<path d="M125.974 30.9016H106.785C105.864 30.9016 105.117 30.1545 105.117 29.2337V24.621C105.117 24.065 105.569 23.6133 106.125 23.6133C106.681 23.6133 107.133 24.065 107.133 24.621V28.8862H125.636V24.621C125.636 24.065 126.087 23.6133 126.643 23.6133C127.199 23.6133 127.651 24.065 127.651 24.621V29.2337C127.651 30.1545 126.904 30.9016 125.983 30.9016H125.974Z" fill="#7DB164" stroke="#7DB164" stroke-width="0.5" stroke-miterlimit="10"/>
<path d="M67.4608 49.2031H63.3953C62.4745 49.2031 61.7188 48.4473 61.7188 47.5265V43.7998C61.7188 43.2438 62.1705 42.7921 62.7264 42.7921C63.2824 42.7921 63.7341 43.2438 63.7341 43.7998V47.1877H67.1394V28.702H63.7341V44.8683C63.7341 45.4243 63.2824 45.876 62.7264 45.876C62.1705 45.876 61.7188 45.4243 61.7188 44.8683V28.3719C61.7188 27.4511 62.4658 26.6953 63.3953 26.6953H67.4695C68.3903 26.6953 69.146 27.4511 69.146 28.3719V47.5265C69.146 48.4473 68.399 49.2031 67.4695 49.2031H67.4608Z" fill="#7DB164" stroke="#7DB164" stroke-width="0.5" stroke-miterlimit="10"/>
<path d="M113.647 46.6068C111.988 46.6068 110.633 45.2517 110.633 43.5925C110.633 41.9333 111.988 40.5781 113.647 40.5781C115.306 40.5781 116.662 41.9333 116.662 43.5925C116.662 45.2517 115.306 46.6068 113.647 46.6068ZM113.647 42.5935C113.091 42.5935 112.639 43.0452 112.639 43.6012C112.639 44.1571 113.091 44.6088 113.647 44.6088C114.203 44.6088 114.655 44.1571 114.655 43.6012C114.655 43.0452 114.203 42.5935 113.647 42.5935Z" fill="#7DB164" stroke="#7DB164" stroke-width="0.5" stroke-miterlimit="10"/>
<path d="M118.6 38.8685C116.941 38.8685 115.586 37.5134 115.586 35.8542C115.586 34.195 116.941 32.8398 118.6 32.8398C120.259 32.8398 121.615 34.195 121.615 35.8542C121.615 37.5134 120.259 38.8685 118.6 38.8685ZM118.6 34.8552C118.044 34.8552 117.593 35.3069 117.593 35.8629C117.593 36.4188 118.044 36.8706 118.6 36.8706C119.156 36.8706 119.608 36.4188 119.608 35.8629C119.608 35.3069 119.156 34.8552 118.6 34.8552Z" fill="#7DB164" stroke="#7DB164" stroke-width="0.5" stroke-miterlimit="10"/>
<path d="M118.893 54.3021C117.234 54.3021 115.879 52.947 115.879 51.2878C115.879 49.6286 117.234 48.2734 118.893 48.2734C120.552 48.2734 121.908 49.6286 121.908 51.2878C121.908 52.947 120.552 54.3021 118.893 54.3021ZM118.893 50.2888C118.337 50.2888 117.886 50.7405 117.886 51.2965C117.886 51.8524 118.337 52.3042 118.893 52.3042C119.449 52.3042 119.901 51.8524 119.901 51.2965C119.901 50.7405 119.449 50.2888 118.893 50.2888Z" fill="#7DB164" stroke="#7DB164" stroke-width="0.5" stroke-miterlimit="10"/>
<path d="M105.126 78.1148C102.919 78.1148 101.121 76.3166 101.121 74.1101C101.121 71.9037 102.919 70.1055 105.126 70.1055C107.332 70.1055 109.13 71.9037 109.13 74.1101C109.13 76.3166 107.332 78.1148 105.126 78.1148ZM105.126 72.1208C104.023 72.1208 103.128 73.0156 103.128 74.1101C103.128 75.2047 104.023 76.0994 105.126 76.0994C106.229 76.0994 107.124 75.2047 107.124 74.1101C107.124 73.0156 106.229 72.1208 105.126 72.1208Z" fill="#7DB164" stroke="#7DB164" stroke-width="0.5" stroke-miterlimit="10"/>
<path d="M83.0626 66.7601C81.3773 66.7601 79.9961 65.3876 79.9961 63.7023C79.9961 62.0171 81.3686 60.6445 83.0626 60.6445C84.7565 60.6445 86.129 62.0171 86.129 63.7023C86.129 65.3876 84.7565 66.7601 83.0626 66.7601ZM83.0626 62.6425C82.4805 62.6425 82.0115 63.1116 82.0115 63.6936C82.0115 64.2757 82.4805 64.7447 83.0626 64.7447C83.6446 64.7447 84.1137 64.2757 84.1137 63.6936C84.1137 63.1116 83.6446 62.6425 83.0626 62.6425Z" fill="#7DB164" stroke="#7DB164" stroke-width="0.5" stroke-miterlimit="10"/>
<path d="M115.652 67.1585C113.967 67.1585 112.586 65.786 112.586 64.1008C112.586 62.4155 113.958 61.043 115.652 61.043C117.346 61.043 118.719 62.4155 118.719 64.1008C118.719 65.786 117.346 67.1585 115.652 67.1585ZM115.652 63.041C115.07 63.041 114.601 63.51 114.601 64.0921C114.601 64.6741 115.07 65.1432 115.652 65.1432C116.234 65.1432 116.704 64.6741 116.704 64.0921C116.704 63.51 116.234 63.041 115.652 63.041Z" fill="#7DB164" stroke="#7DB164" stroke-width="0.5" stroke-miterlimit="10"/>
<path d="M90.1585 56.8483C89.7415 56.8483 89.3419 56.579 89.2029 56.1621C88.8902 55.2152 88.065 54.5116 87.0486 54.3465C86.7098 54.2857 86.371 54.2944 86.0409 54.3552C85.2938 54.5029 84.5381 54.2336 84.0603 53.6602C83.4956 52.974 82.6878 52.5136 81.793 52.3572C80.2989 52.1053 78.77 52.7742 78.0055 54.0425C77.6233 54.6592 76.937 55.0328 76.1987 55.0154C75.3821 54.9893 74.5742 55.3889 74.0877 56.0491C73.7576 56.4922 73.1322 56.5964 72.6805 56.2663C72.2374 55.9362 72.1332 55.3108 72.4633 54.859C73.332 53.6689 74.7914 52.9566 76.2595 53.0087C76.2768 53.0087 76.2855 53.0087 76.2855 53.0087C77.5017 51.0194 79.795 49.9944 82.1231 50.394C83.487 50.6285 84.7205 51.3408 85.5979 52.392C85.5979 52.392 85.6152 52.392 85.65 52.392C86.2146 52.279 86.7967 52.279 87.37 52.3746C89.1161 52.6699 90.5407 53.8861 91.088 55.5366C91.2617 56.0665 90.9751 56.6312 90.4539 56.8049C90.3496 56.8396 90.2454 56.857 90.1324 56.857L90.1585 56.8483Z" fill="#7DB164" stroke="#7DB164" stroke-width="0.5" stroke-miterlimit="10"/>
<path d="M124.148 62.2606C123.975 62.2606 123.801 62.2171 123.645 62.1216C123.245 61.887 122.793 61.7394 122.324 61.6786C121.56 61.583 120.882 61.0965 120.517 60.3668C119.831 59.003 118.207 58.1169 116.382 58.1169C115.27 58.1169 114.202 58.447 113.377 59.0551C112.769 59.4981 111.969 59.6284 111.24 59.3852C110.84 59.2549 110.414 59.1854 109.98 59.1854C109.381 59.1854 108.79 59.3157 108.277 59.5589C107.774 59.8022 107.174 59.585 106.94 59.0812C106.696 58.5773 106.914 57.9779 107.417 57.7434C108.199 57.3698 109.085 57.1701 109.989 57.1701C110.64 57.1701 111.274 57.2656 111.874 57.4654C111.987 57.5002 112.108 57.4915 112.195 57.4307C113.359 56.5707 114.853 56.1016 116.391 56.1016C118.962 56.1016 121.29 57.422 122.315 59.4547C122.376 59.5763 122.481 59.6632 122.576 59.6719C123.314 59.7587 124.027 60.002 124.661 60.3668C125.139 60.6448 125.304 61.2616 125.026 61.7394C124.843 62.0608 124.505 62.2345 124.157 62.2345L124.148 62.2606Z" fill="#7DB164" stroke="#7DB164" stroke-width="0.5" stroke-miterlimit="10"/>
<path d="M79.0134 59.2299C78.6486 59.2299 78.2924 59.0301 78.1187 58.6826C77.8668 58.1874 78.0579 57.588 78.553 57.3274L80.8551 56.146C81.3502 55.8941 81.9496 56.0852 82.2102 56.5804C82.4621 57.0755 82.271 57.6749 81.7759 57.9355L79.4738 59.1169C79.3262 59.1951 79.1698 59.2299 79.0134 59.2299Z" fill="#7DB164" stroke="#7DB164" stroke-width="0.5" stroke-miterlimit="10"/>
<path d="M89.3853 73.9344C89.2724 73.9344 89.1508 73.9171 89.0379 73.8736L86.6142 72.9789C86.093 72.7878 85.8324 72.2058 86.0235 71.6845C86.2146 71.1633 86.7967 70.9027 87.3179 71.0938L89.7415 71.9886C90.2627 72.1797 90.5233 72.7617 90.3322 73.2829C90.1845 73.6912 89.8023 73.9431 89.394 73.9431L89.3853 73.9344Z" fill="#7DB164" stroke="#7DB164" stroke-width="0.5" stroke-miterlimit="10"/>
<path d="M112.753 69.9657C112.64 69.9657 112.518 69.9483 112.405 69.9049L109.981 69.0101C109.46 68.819 109.2 68.237 109.391 67.7158C109.582 67.1946 110.164 66.934 110.685 67.1251L113.109 68.0198C113.63 68.2109 113.891 68.793 113.699 69.3142C113.552 69.7225 113.17 69.9744 112.761 69.9744L112.753 69.9657Z" fill="#7DB164" stroke="#7DB164" stroke-width="0.5" stroke-miterlimit="10"/>
<path d="M96.7249 73.8917C96.5338 73.8917 96.3427 73.8396 96.1776 73.7267C95.7172 73.4226 95.5869 72.7972 95.891 72.3368L97.3069 70.1737C97.611 69.7133 98.2364 69.583 98.6968 69.8871C99.1572 70.1911 99.2875 70.8166 98.9835 71.277L97.5675 73.44C97.3764 73.7354 97.055 73.8917 96.7249 73.8917Z" fill="#7DB164" stroke="#7DB164" stroke-width="0.5" stroke-miterlimit="10"/>
</g>
<path d="M0.5 8C0.5 3.85787 3.85786 0.5 8 0.5H184C188.142 0.5 191.5 3.85786 191.5 8V97.5H0.5V8Z" stroke="#D0CECE"/>
<path d="M0.368243 98.3682H191.632V137.108C191.632 140.159 189.159 142.632 186.108 142.632H5.89189C2.84126 142.632 0.368243 140.159 0.368243 137.108V98.3682Z" fill="white"/>
<path d="M68.7637 119.138C68.7258 118.802 68.5695 118.541 68.2949 118.357C68.0203 118.17 67.6747 118.076 67.258 118.076C66.9597 118.076 66.7016 118.123 66.4838 118.218C66.266 118.31 66.0968 118.438 65.976 118.602C65.8577 118.763 65.7985 118.946 65.7985 119.152C65.7985 119.325 65.8387 119.474 65.9192 119.599C66.0021 119.725 66.1098 119.83 66.2424 119.915C66.3773 119.998 66.5217 120.068 66.6756 120.125C66.8295 120.179 66.9775 120.224 67.1195 120.26L67.8297 120.445C68.0617 120.501 68.2997 120.578 68.5435 120.675C68.7873 120.772 69.0134 120.9 69.2218 121.059C69.4301 121.218 69.5982 121.414 69.726 121.648C69.8562 121.883 69.9213 122.163 69.9213 122.49C69.9213 122.902 69.8148 123.268 69.6017 123.587C69.391 123.907 69.0845 124.159 68.682 124.344C68.2819 124.528 67.7978 124.621 67.2296 124.621C66.6851 124.621 66.214 124.534 65.8162 124.362C65.4185 124.189 65.1072 123.944 64.8823 123.626C64.6574 123.307 64.5331 122.928 64.5094 122.49H65.6103C65.6316 122.753 65.7168 122.972 65.8659 123.147C66.0175 123.32 66.2104 123.449 66.4448 123.534C66.6815 123.617 66.9408 123.658 67.2225 123.658C67.5326 123.658 67.8084 123.61 68.0499 123.513C68.2937 123.413 68.4855 123.276 68.6252 123.101C68.7649 122.923 68.8347 122.716 68.8347 122.479C68.8347 122.264 68.7731 122.088 68.65 121.95C68.5293 121.813 68.3648 121.699 68.1564 121.609C67.9505 121.519 67.7173 121.44 67.4569 121.371L66.5975 121.137C66.0151 120.978 65.5534 120.745 65.2125 120.438C64.874 120.13 64.7047 119.723 64.7047 119.216C64.7047 118.797 64.8184 118.431 65.0456 118.119C65.2729 117.806 65.5807 117.563 65.9689 117.391C66.3572 117.215 66.7952 117.128 67.2828 117.128C67.7753 117.128 68.2097 117.214 68.5861 117.387C68.9649 117.56 69.2632 117.798 69.481 118.101C69.6988 118.402 69.8124 118.747 69.8219 119.138H68.7637ZM71.1474 124.5V119.045H72.1665V119.933H72.234C72.3477 119.633 72.5335 119.398 72.7915 119.23C73.0496 119.06 73.3585 118.974 73.7184 118.974C74.083 118.974 74.3884 119.06 74.6346 119.23C74.8832 119.401 75.0666 119.635 75.185 119.933H75.2418C75.372 119.642 75.5792 119.41 75.8633 119.237C76.1474 119.062 76.4859 118.974 76.8789 118.974C77.3737 118.974 77.7773 119.129 78.0898 119.44C78.4047 119.75 78.5621 120.217 78.5621 120.842V124.5H77.5004V120.942C77.5004 120.572 77.3997 120.305 77.1985 120.139C76.9973 119.973 76.757 119.891 76.4776 119.891C76.132 119.891 75.8633 119.997 75.6715 120.21C75.4798 120.421 75.3839 120.692 75.3839 121.023V124.5H74.3256V120.874C74.3256 120.578 74.2333 120.34 74.0487 120.161C73.864 119.981 73.6237 119.891 73.3278 119.891C73.1265 119.891 72.9407 119.944 72.7702 120.05C72.6022 120.155 72.466 120.3 72.3619 120.487C72.2601 120.674 72.2092 120.891 72.2092 121.137V124.5H71.1474ZM82.3361 124.61C81.7987 124.61 81.3359 124.495 80.9476 124.266C80.5617 124.034 80.2634 123.708 80.0527 123.289C79.8444 122.868 79.7402 122.374 79.7402 121.808C79.7402 121.25 79.8444 120.757 80.0527 120.331C80.2634 119.905 80.557 119.572 80.9334 119.333C81.3122 119.094 81.7549 118.974 82.2615 118.974C82.5693 118.974 82.8676 119.025 83.1564 119.127C83.4453 119.229 83.7045 119.389 83.9341 119.607C84.1638 119.824 84.3449 120.107 84.4775 120.455C84.61 120.801 84.6763 121.221 84.6763 121.716V122.092H80.3404V121.297H83.6358C83.6358 121.018 83.579 120.77 83.4654 120.555C83.3517 120.337 83.1919 120.165 82.986 120.04C82.7824 119.914 82.5433 119.852 82.2686 119.852C81.9703 119.852 81.7099 119.925 81.4874 120.072C81.2672 120.216 81.0968 120.406 80.976 120.64C80.8577 120.872 80.7985 121.124 80.7985 121.396V122.018C80.7985 122.382 80.8624 122.692 80.9902 122.948C81.1204 123.204 81.3016 123.399 81.5336 123.534C81.7656 123.667 82.0366 123.733 82.3468 123.733C82.548 123.733 82.7315 123.705 82.8972 123.648C83.0629 123.589 83.2061 123.501 83.3269 123.385C83.4476 123.269 83.54 123.126 83.6039 122.955L84.6088 123.136C84.5283 123.432 84.3839 123.692 84.1756 123.914C83.9696 124.134 83.7104 124.306 83.3979 124.429C83.0878 124.55 82.7338 124.61 82.3361 124.61ZM86.9162 117.227V124.5H85.8544V117.227H86.9162ZM89.4064 117.227V124.5H88.3446V117.227H89.4064ZM91.506 126.545C91.3474 126.545 91.203 126.532 91.0728 126.506C90.9426 126.483 90.8455 126.457 90.7816 126.428L91.0373 125.558C91.2314 125.61 91.4042 125.633 91.5558 125.626C91.7073 125.619 91.841 125.562 91.957 125.455C92.0754 125.349 92.1796 125.175 92.2695 124.933L92.4009 124.571L90.4052 119.045H91.5415L92.9229 123.278H92.9798L94.3612 119.045H95.5011L93.2532 125.228C93.149 125.512 93.0165 125.752 92.8555 125.949C92.6945 126.148 92.5027 126.297 92.2802 126.396C92.0576 126.496 91.7996 126.545 91.506 126.545ZM101.187 124.607C100.747 124.607 100.354 124.494 100.008 124.269C99.6651 124.042 99.3952 123.719 99.1987 123.3C99.0046 122.878 98.9075 122.373 98.9075 121.783C98.9075 121.194 99.0057 120.69 99.2022 120.271C99.4011 119.852 99.6734 119.531 100.019 119.308C100.365 119.086 100.756 118.974 101.194 118.974C101.533 118.974 101.805 119.031 102.011 119.145C102.22 119.256 102.381 119.386 102.494 119.536C102.61 119.685 102.7 119.816 102.764 119.93H102.828V117.227H103.89V124.5H102.853V123.651H102.764C102.7 123.767 102.608 123.9 102.487 124.049C102.369 124.198 102.205 124.328 101.997 124.44C101.789 124.551 101.519 124.607 101.187 124.607ZM101.422 123.701C101.727 123.701 101.985 123.621 102.196 123.46C102.409 123.296 102.57 123.07 102.679 122.781C102.79 122.492 102.846 122.156 102.846 121.773C102.846 121.394 102.791 121.062 102.682 120.778C102.573 120.494 102.414 120.273 102.203 120.114C101.992 119.956 101.732 119.876 101.422 119.876C101.102 119.876 100.836 119.959 100.623 120.125C100.41 120.291 100.249 120.517 100.14 120.803C100.033 121.09 99.9799 121.413 99.9799 121.773C99.9799 122.137 100.034 122.465 100.143 122.756C100.252 123.048 100.413 123.278 100.626 123.449C100.842 123.617 101.107 123.701 101.422 123.701ZM105.405 124.5V119.045H106.431V119.912H106.488C106.588 119.618 106.763 119.388 107.014 119.219C107.267 119.049 107.554 118.964 107.873 118.964C107.94 118.964 108.018 118.966 108.108 118.971C108.2 118.976 108.272 118.982 108.324 118.989V120.004C108.282 119.992 108.206 119.979 108.097 119.965C107.988 119.949 107.879 119.94 107.77 119.94C107.519 119.94 107.296 119.994 107.099 120.1C106.905 120.204 106.751 120.35 106.637 120.537C106.524 120.722 106.467 120.932 106.467 121.169V124.5H105.405ZM110.782 124.621C110.436 124.621 110.123 124.557 109.844 124.429C109.565 124.299 109.343 124.111 109.18 123.864C109.019 123.618 108.939 123.316 108.939 122.959C108.939 122.651 108.998 122.398 109.116 122.199C109.234 122 109.394 121.843 109.596 121.727C109.797 121.611 110.022 121.523 110.27 121.464C110.519 121.405 110.772 121.36 111.03 121.329C111.357 121.291 111.622 121.26 111.826 121.237C112.029 121.21 112.177 121.169 112.27 121.112C112.362 121.055 112.408 120.963 112.408 120.835V120.81C112.408 120.5 112.32 120.26 112.145 120.089C111.972 119.919 111.714 119.834 111.371 119.834C111.014 119.834 110.732 119.913 110.526 120.072C110.322 120.228 110.181 120.402 110.103 120.594L109.105 120.366C109.224 120.035 109.397 119.768 109.624 119.564C109.854 119.358 110.118 119.209 110.416 119.116C110.714 119.022 111.028 118.974 111.357 118.974C111.575 118.974 111.806 119 112.049 119.053C112.296 119.102 112.525 119.195 112.738 119.33C112.954 119.464 113.13 119.657 113.267 119.908C113.405 120.157 113.473 120.48 113.473 120.878V124.5H112.436V123.754H112.394C112.325 123.892 112.222 124.027 112.085 124.159C111.948 124.292 111.771 124.402 111.556 124.489C111.34 124.577 111.082 124.621 110.782 124.621ZM111.012 123.768C111.306 123.768 111.557 123.71 111.765 123.594C111.976 123.478 112.136 123.327 112.245 123.14C112.356 122.951 112.412 122.748 112.412 122.533V121.83C112.374 121.867 112.3 121.903 112.191 121.936C112.085 121.967 111.963 121.994 111.826 122.018C111.688 122.039 111.555 122.059 111.424 122.078C111.294 122.095 111.185 122.109 111.098 122.121C110.892 122.147 110.703 122.191 110.533 122.252C110.365 122.314 110.23 122.402 110.128 122.518C110.029 122.632 109.979 122.784 109.979 122.973C109.979 123.236 110.076 123.435 110.27 123.57C110.464 123.702 110.712 123.768 111.012 123.768ZM114.888 124.5V119.045H115.949V124.5H114.888ZM115.424 118.204C115.239 118.204 115.081 118.142 114.948 118.019C114.818 117.894 114.753 117.745 114.753 117.572C114.753 117.397 114.818 117.247 114.948 117.124C115.081 116.999 115.239 116.936 115.424 116.936C115.608 116.936 115.766 116.999 115.896 117.124C116.029 117.247 116.095 117.397 116.095 117.572C116.095 117.745 116.029 117.894 115.896 118.019C115.766 118.142 115.608 118.204 115.424 118.204ZM118.44 121.261V124.5H117.378V119.045H118.397V119.933H118.464C118.59 119.644 118.786 119.412 119.054 119.237C119.324 119.062 119.664 118.974 120.073 118.974C120.445 118.974 120.77 119.053 121.05 119.209C121.329 119.363 121.546 119.592 121.7 119.898C121.853 120.203 121.93 120.581 121.93 121.031V124.5H120.869V121.158C120.869 120.763 120.766 120.454 120.56 120.232C120.354 120.007 120.071 119.894 119.711 119.894C119.465 119.894 119.246 119.947 119.054 120.054C118.865 120.161 118.714 120.317 118.603 120.523C118.494 120.726 118.44 120.973 118.44 121.261ZM127.442 120.377L126.479 120.548C126.439 120.424 126.375 120.307 126.288 120.196C126.202 120.085 126.086 119.994 125.94 119.923C125.793 119.852 125.609 119.816 125.389 119.816C125.089 119.816 124.838 119.884 124.636 120.018C124.435 120.151 124.335 120.323 124.335 120.533C124.335 120.716 124.402 120.862 124.537 120.974C124.672 121.085 124.89 121.176 125.19 121.247L126.057 121.446C126.559 121.562 126.933 121.741 127.179 121.982C127.425 122.224 127.548 122.537 127.548 122.923C127.548 123.25 127.454 123.541 127.264 123.797C127.077 124.05 126.816 124.249 126.479 124.393C126.146 124.538 125.759 124.61 125.318 124.61C124.707 124.61 124.209 124.48 123.823 124.219C123.437 123.957 123.201 123.584 123.113 123.101L124.139 122.945C124.203 123.212 124.335 123.415 124.533 123.552C124.732 123.687 124.991 123.754 125.311 123.754C125.659 123.754 125.937 123.682 126.146 123.538C126.354 123.391 126.458 123.212 126.458 123.001C126.458 122.831 126.394 122.688 126.266 122.572C126.141 122.456 125.948 122.368 125.688 122.309L124.764 122.107C124.255 121.991 123.879 121.806 123.635 121.553C123.393 121.299 123.273 120.978 123.273 120.59C123.273 120.268 123.363 119.987 123.543 119.745C123.723 119.504 123.971 119.315 124.288 119.18C124.606 119.043 124.969 118.974 125.379 118.974C125.968 118.974 126.432 119.102 126.771 119.358C127.109 119.611 127.333 119.951 127.442 120.377Z" fill="#787373"/>
<path d="M0.368243 98.3682H191.632V137.108C191.632 140.159 189.159 142.632 186.108 142.632H5.89189C2.84126 142.632 0.368243 140.159 0.368243 137.108V98.3682Z" stroke="#D0CECE" stroke-width="0.736486"/>
<defs>
<clipPath id="clip0_17965_223091">
<rect width="69" height="69" fill="white" transform="translate(61.5 14.5)"/>
</clipPath>
</defs>
</svg>
